<svg width="42" height="42" viewBox="0 0 42 42" fill="none" xmlns="http://www.w3.org/2000/svg">
<g clip-path="url(#clip0_27244_2183)">
<path d="M9.6939 32.0124C9.91534 32.2678 10.1855 32.4766 10.4885 32.6264C10.7915 32.7763 11.1214 32.8642 11.4588 32.8851C11.7963 32.906 12.1345 32.8594 12.4537 32.748C12.7729 32.6367 13.0667 32.4629 13.3179 32.2367C13.5691 32.0105 13.7728 31.7364 13.9169 31.4306C14.061 31.1248 14.1427 30.7933 14.1572 30.4556C14.1718 30.1178 14.1188 29.7806 14.0015 29.4635C13.8841 29.1465 13.7048 28.856 13.4739 28.6091L6.62003 20.9966L13.4713 13.3841C13.9221 12.8825 14.1555 12.2226 14.1203 11.5491C14.0852 10.8756 13.7842 10.2436 13.2836 9.79176C13.0364 9.56689 12.7467 9.3937 12.4316 9.28236C12.1165 9.17102 11.7823 9.12376 11.4487 9.14338C11.1153 9.15974 10.7884 9.24205 10.4869 9.38556C10.1855 9.52906 9.91551 9.73092 9.69259 9.97944L1.30966 19.2956C0.888437 19.7622 0.655273 20.3686 0.655273 20.9972C0.655273 21.6259 0.888437 22.2322 1.30966 22.6989L9.6939 32.0124ZM32.3057 9.97944C31.8538 9.4792 31.2221 9.17853 30.549 9.14335C29.8758 9.10817 29.2162 9.34134 28.7147 9.79176C28.2143 10.2438 27.9136 10.8758 27.8784 11.5491C27.8433 12.2225 28.0765 12.8823 28.527 13.3841L35.3782 20.9966L28.527 28.6091C28.0905 29.1126 27.8691 29.7672 27.9102 30.4322C27.9514 31.0973 28.2519 31.7196 28.7471 32.1655C29.2422 32.6113 29.8926 32.845 30.5583 32.8164C31.224 32.7878 31.8519 32.4991 32.307 32.0124L40.6899 22.6976C41.111 22.2311 41.3442 21.625 41.3442 20.9966C41.3442 20.3681 41.111 19.762 40.6899 19.2956L32.3057 9.97944ZM25.4544 2.85257H25.4518C24.7973 2.69442 24.1068 2.80165 23.5312 3.15084C22.9555 3.50004 22.5414 4.06283 22.3792 4.71632L14.6827 36.0654C14.5916 36.4398 14.5865 36.8299 14.6681 37.2065C14.7496 37.5831 14.9155 37.9363 15.1533 38.2394C15.3911 38.5426 15.6947 38.7878 16.041 38.9566C16.3874 39.1255 16.7675 39.2135 17.1528 39.2141C18.3262 39.2141 19.3408 38.4174 19.6203 37.2768L27.3168 5.92776C27.4765 5.27305 27.3702 4.58174 27.0211 4.00531C26.672 3.42888 26.1086 3.01435 25.4544 2.85257Z" fill="#F38402"/>
</g>
<defs>
<clipPath id="clip0_27244_2183">
<rect width="42" height="42" fill="white"/>
</clipPath>
</defs>
</svg>
