<svg width="32" height="29" viewBox="0 0 32 29" fill="none" xmlns="http://www.w3.org/2000/svg">
<path d="M11.1008 24.4609L10.468 26.3594H8.46875C7.951 26.3594 7.53125 26.7791 7.53125 27.2969C7.53125 27.8146 7.951 28.2344 8.46875 28.2344H23.5312C24.049 28.2344 24.4688 27.8146 24.4688 27.2969C24.4688 26.7791 24.049 26.3594 23.5312 26.3594H21.532L20.8992 24.4609H11.1008ZM0 20.5274C0 21.6625 0.9235 22.5859 2.05856 22.5859H29.9414C31.0765 22.5859 32 21.6625 32 20.5273V18.8203H0V20.5274ZM32 2.05862C32 0.9235 31.0765 0 29.9414 0H2.05856C0.9235 0 0 0.923437 0 2.05862V16.9453H32V2.05862ZM11.6466 11.3372C12.0131 11.703 12.0138 12.2966 11.648 12.6631C11.561 12.7504 11.4576 12.8198 11.3437 12.867C11.2298 12.9142 11.1077 12.9385 10.9844 12.9383C10.8614 12.9385 10.7396 12.9143 10.626 12.8673C10.5123 12.8203 10.4091 12.7514 10.3221 12.6644L7.8065 10.1539C7.71923 10.0669 7.64999 9.96344 7.60274 9.84958C7.5555 9.73572 7.53118 9.61365 7.53118 9.49037C7.53118 9.3671 7.5555 9.24503 7.60274 9.13117C7.64999 9.01731 7.71923 8.91388 7.8065 8.82681L10.3221 6.31637C10.6886 5.95062 11.2822 5.95112 11.6479 6.31769C12.0137 6.68419 12.0131 7.27775 11.6466 7.6435L9.79594 9.49037L11.6466 11.3372ZM18.0938 7.39919L15.5833 12.4201C15.4191 12.7486 15.0879 12.9385 14.7441 12.9385C14.6032 12.9385 14.4601 12.9066 14.3256 12.8393C13.8624 12.6078 13.6748 12.0446 13.9063 11.5816L16.4167 6.56069C16.6483 6.09762 17.2114 5.90975 17.6746 6.14144C18.1376 6.37294 18.3253 6.93612 18.0938 7.39919ZM24.1935 10.1539L21.6779 12.6644C21.5909 12.7514 21.4877 12.8203 21.3741 12.8673C21.2604 12.9143 21.1386 12.9385 21.0156 12.9383C20.8923 12.9385 20.7702 12.9142 20.6563 12.867C20.5424 12.8198 20.439 12.7504 20.352 12.6631C19.9862 12.2966 19.9869 11.703 20.3534 11.3372L22.204 9.49037L20.3534 7.6435C19.9869 7.27775 19.9862 6.68419 20.352 6.31769C20.7178 5.95119 21.3113 5.95062 21.6778 6.31637L24.1934 8.82681C24.2807 8.91387 24.35 9.0173 24.3972 9.13116C24.4445 9.24502 24.4688 9.36709 24.4688 9.49036C24.4688 9.61364 24.4445 9.7357 24.3972 9.84957C24.35 9.96344 24.2808 10.0669 24.1935 10.1539Z" fill="#1A72F5"/>
</svg>
