<svg width="37" height="42" viewBox="0 0 37 42" fill="none" xmlns="http://www.w3.org/2000/svg">
<path d="M33.3558 21.9751C33.2399 21.9295 30.4784 20.856 27.1803 20.6576C24.0849 20.4711 21.5341 21.1156 19.6383 22.5385V41.9658C21.0186 39.7654 23.4853 38.7499 26.978 38.9479C29.8954 39.1133 32.431 40.0931 32.4551 40.1025C32.6417 40.1759 32.8433 40.2026 33.0426 40.1803C33.2418 40.1579 33.4326 40.0872 33.5983 39.9744C33.764 39.8615 33.8996 39.7098 33.9933 39.5326C34.087 39.3554 34.136 39.1579 34.136 38.9574V23.1201C34.136 22.873 34.0616 22.6316 33.9224 22.4273C33.7832 22.2231 33.5858 22.0655 33.3558 21.9751ZM30.0896 32.5947C30.0282 33.2715 29.4294 33.7704 28.7531 33.7091C27.4285 33.5891 26.2186 33.6385 25.157 33.8559C24.2174 34.0479 23.7743 33.237 23.7047 32.8972C23.5684 32.2314 23.9977 31.5813 24.6634 31.4449C25.9604 31.1794 27.4112 31.1165 28.9752 31.2582C29.6519 31.3196 30.1508 31.9179 30.0896 32.5947ZM30.0896 27.3155C30.0283 27.9924 29.4294 28.4913 28.7531 28.43C27.4299 28.3102 26.22 28.3598 25.1569 28.5774C24.2173 28.7696 23.7742 27.9585 23.7047 27.6187C23.5683 26.953 23.9976 26.3028 24.6634 26.1665C25.9619 25.9007 27.4125 25.8377 28.9751 25.9791C29.6518 26.0404 30.1508 26.6387 30.0896 27.3155ZM9.63531 20.6576C6.33724 20.856 3.57574 21.9295 3.45983 21.9751C3.22983 22.0655 3.0324 22.2231 2.89325 22.4273C2.75411 22.6316 2.6797 22.873 2.67971 23.1201V38.9575C2.67971 39.158 2.7287 39.3554 2.82241 39.5327C2.91613 39.7099 3.05173 39.8616 3.21743 39.9744C3.38312 40.0873 3.57389 40.158 3.77313 40.1803C3.97237 40.2027 4.17405 40.176 4.36062 40.1026C4.38539 40.0928 6.87061 39.1265 9.78321 38.9511C13.3042 38.7392 15.7896 39.7535 17.1774 41.9658V22.5385C15.2814 21.1158 12.7304 20.4714 9.63531 20.6576ZM13.111 32.8972C13.0414 33.2369 12.5983 34.0479 11.6587 33.8559C10.5971 33.6386 9.38725 33.5891 8.0626 33.7091C7.38634 33.7704 6.78743 33.2716 6.72615 32.5947C6.66488 31.9179 7.16379 31.3196 7.84063 31.2582C9.40464 31.1165 10.8554 31.1794 12.1524 31.4449C12.818 31.5813 13.2473 32.2314 13.111 32.8972ZM13.111 27.6187C13.0414 27.9584 12.5984 28.7695 11.6587 28.5774C10.5956 28.3597 9.38569 28.3101 8.06252 28.4299C6.43322 28.5166 6.22281 26.1858 7.84055 25.979C9.40308 25.8376 10.8537 25.9006 12.1523 26.1664C12.818 26.3027 13.2473 26.953 13.111 27.6187ZM18.4078 10.4221C21.2906 10.4221 23.6359 8.07676 23.6359 5.19401C23.3731 -1.73229 13.4414 -1.73041 13.1796 5.1941C13.1797 8.07676 15.525 10.4221 18.4078 10.4221ZM5.2281 13.7157C8.11092 13.7157 10.4562 11.3703 10.4562 8.48757C10.1934 1.56126 0.261762 1.56315 0 8.48765C0 11.3704 2.34527 13.7157 5.2281 13.7157ZM31.5875 13.7157C34.4704 13.7157 36.8156 11.3703 36.8156 8.48757C36.5528 1.56126 26.6211 1.56315 26.3593 8.48765C26.3594 11.3704 28.7047 13.7157 31.5875 13.7157ZM26.2281 16.1599C26.2281 14.1827 25.1295 12.4057 23.3613 11.5226L23.0124 11.3482C20.4542 13.3738 16.3624 13.3738 13.8041 11.3489L13.4525 11.5248C11.6853 12.4092 10.5874 14.186 10.5874 16.1619V18.1659C12.7668 18.1585 15.7759 18.5346 18.4077 20.3918C21.0395 18.5343 24.048 18.1582 26.2281 18.1658V16.1599Z" fill="#1A72F5"/>
</svg>
