<svg width="25" height="32" viewBox="0 0 25 32" fill="none" xmlns="http://www.w3.org/2000/svg">
<path d="M2.8125 32H21.5625C23.1134 32 24.375 30.7384 24.375 29.1875V9.375H17.8125C16.2616 9.375 15 8.11337 15 6.5625V0H2.8125C1.26163 0 0 1.26163 0 2.8125V29.1875C0 30.7384 1.26163 32 2.8125 32ZM6.5625 13.1875H17.8125C18.3307 13.1875 18.75 13.6068 18.75 14.125C18.75 14.6432 18.3307 15.0625 17.8125 15.0625H6.5625C6.04431 15.0625 5.625 14.6432 5.625 14.125C5.625 13.6068 6.04431 13.1875 6.5625 13.1875ZM6.5625 16.9375H17.8125C18.3307 16.9375 18.75 17.3568 18.75 17.875C18.75 18.3932 18.3307 18.8125 17.8125 18.8125H6.5625C6.04431 18.8125 5.625 18.3932 5.625 17.875C5.625 17.3568 6.04431 16.9375 6.5625 16.9375ZM6.5625 20.6875H17.8125C18.3307 20.6875 18.75 21.1068 18.75 21.625C18.75 22.1432 18.3307 22.5625 17.8125 22.5625H6.5625C6.04431 22.5625 5.625 22.1432 5.625 21.625C5.625 21.1068 6.04431 20.6875 6.5625 20.6875ZM6.5625 24.4375H14.0625C14.5807 24.4375 15 24.8568 15 25.375C15 25.8932 14.5807 26.3125 14.0625 26.3125H6.5625C6.04431 26.3125 5.625 25.8932 5.625 25.375C5.625 24.8568 6.04431 24.4375 6.5625 24.4375Z" fill="#1A72F5"/>
<path d="M17.8125 7.49756H23.8257L16.875 0.546875V6.56006C16.875 7.07731 17.2952 7.49756 17.8125 7.49756Z" fill="#1A72F5"/>
</svg>
