<svg width="92" height="105" viewBox="0 0 92 105" fill="none" xmlns="http://www.w3.org/2000/svg">
<path d="M90.4355 5.25C79.2581 0.508064 68.0806 2.87903 57.2419 5.08065C46.9113 7.28226 36.9194 9.31452 27.0968 5.58871V5.08065C27.0968 2.20161 24.8952 0 22.0161 0C19.1371 0 16.9355 2.20161 16.9355 5.08065V101.613H0V105H44.0323V101.613H27.0968V49.7903C31.1613 51.1452 35.0565 51.6532 38.9516 51.6532C45.3871 51.6532 51.6532 50.2984 57.9194 49.1129C68.7581 46.9113 78.9194 44.7097 89.0806 48.9436L91.4516 49.9597V5.58871L90.4355 5.25ZM20.3226 101.613V5.08065C20.3226 4.06452 21 3.3871 22.0161 3.3871C23.0323 3.3871 23.7097 4.06452 23.7097 5.08065V101.613H20.3226ZM88.0645 45.0484C77.5645 41.6613 67.2339 43.6936 57.2419 45.8952C46.9113 48.0968 36.9194 50.129 27.0968 46.4032V9.14516C37.5968 12.5323 47.9274 10.5 57.9194 8.29839C68.25 6.09677 78.2419 4.06452 88.0645 7.79032V45.0484Z" fill="white" fill-opacity="0.1"/>
</svg>
