<svg width="160" height="70" viewBox="0 0 160 70" fill="none" xmlns="http://www.w3.org/2000/svg">
<path d="M8.84518 20.4062C31.0246 37.4501 -8.88848 51.0479 19.4428 66.6251C19.6459 66.7368 19.5174 67.0625 19.2926 67.0059C-21.6888 56.6923 16.5768 27.9046 8.84518 20.4062Z" fill="#1F76F9"/>
<path d="M28.9831 0C-15.2623 24.9472 61.6471 43.7082 26.1819 66.7025C26.1073 66.7509 26.1288 66.9073 26.2107 66.8728C30.0973 65.234 33.3227 64.1848 35.8302 62.4038C65.2524 37.727 8.81472 20.6431 28.9831 0Z" fill="#1F76F9"/>
<path d="M30.0939 0.710938C26.7911 8.32106 28.7763 14.0998 31.1616 21.7099C24.8292 13.3541 23.5175 6.71006 30.0939 0.710938Z" fill="#1F76F9"/>
<path fill-rule="evenodd" clip-rule="evenodd" d="M22.6505 69.9973C22.5316 69.9973 22.4163 69.957 22.3234 69.88L19.9848 67.8929C19.8658 67.7903 19.8026 67.6399 19.8138 67.486L21.1671 55.5234C21.327 55.6334 21.524 55.6958 21.7248 55.6958H23.5949C23.7956 55.6958 23.9927 55.6334 24.1526 55.5234L25.5059 67.486C25.517 67.6399 25.4538 67.7939 25.3311 67.8929L22.974 69.88C22.881 69.957 22.7658 69.9973 22.6505 69.9973Z" fill="#FFBC04"/>
<path fill-rule="evenodd" clip-rule="evenodd" d="M22.6615 50.8884C25.5396 50.8884 27.8816 48.4937 27.8816 45.5494C27.8816 42.6056 25.5396 40.2109 22.6615 40.2109C19.7834 40.2109 17.4414 42.6056 17.4414 45.5494C17.4414 48.4937 19.7834 50.8884 22.6615 50.8884Z" fill="#111111"/>
<path fill-rule="evenodd" clip-rule="evenodd" d="M25.1287 51.625H20.25L21.3107 54.7036H24.0672L25.1287 51.625Z" fill="#FFBC04"/>
<path d="M20.5689 55.1898L19.1019 66.548C18.8653 66.2714 17.5596 65.5989 16.3555 64.7443V59.8664C16.3555 59.6283 16.1627 59.4349 15.924 59.4349C15.686 59.4349 15.4925 59.6283 15.4925 59.8664V64.1585C13.688 62.8571 12.7133 62.0257 11.3984 60.4974V59.8664C11.3984 55.4206 14.9337 51.7861 19.3399 51.625L20.5689 55.1898Z" fill="#111111"/>
<path d="M29.0253 63.2729V64.6803C28.0472 65.4194 27.4858 65.8286 26.4575 66.548L25.8643 62.9802L24.8111 55.1905L26.0401 51.6251C29.0253 51.625 33.6925 54.2313 33.6925 59.4349V59.8968C32.4961 61.5947 31.6783 62.443 30.0609 63.8285V63.2729H29.0253Z" fill="#111111"/>
<path d="M55.9382 38.0466C55.1676 38.0466 54.412 37.9165 53.6713 37.6562C52.9407 37.396 52.2752 37.0107 51.6747 36.5003L54.0166 33.678C54.2368 33.8581 54.507 34.0233 54.8273 34.1734C55.1476 34.3135 55.5179 34.3836 55.9382 34.3836C56.4887 34.3836 56.9891 34.2435 57.4394 33.9632C57.8898 33.673 58.2501 33.2977 58.5203 32.8373C58.8006 32.3669 58.9407 31.8565 58.9407 31.306V16.639H62.6037V31.306C62.6037 32.5371 62.3034 33.663 61.7029 34.6838C61.1024 35.6946 60.2968 36.5103 59.2859 37.1308C58.2751 37.7413 57.1592 38.0466 55.9382 38.0466ZM73.2425 16.639H77.4609L85.1022 37.6562H81.214L79.8629 33.9332H70.8555L69.5044 37.6562H65.6162L73.2425 16.639ZM72.1916 30.2702H78.5118L75.3442 21.6081L72.1916 30.2702ZM92.3747 37.6562L84.7485 16.639H88.6366L94.7166 33.3777L100.812 16.639H104.685L97.0585 37.6562H92.3747ZM111.975 16.639H116.194L123.835 37.6562H119.947L118.596 33.9332H109.588L108.237 37.6562H104.349L111.975 16.639ZM110.925 30.2702H117.245L114.077 21.6081L110.925 30.2702Z" fill="#111111"/>
<path d="M52.3054 56.6797V42.3154H57.0457C57.8186 42.3154 58.5129 42.5035 59.1285 42.8797C59.7509 43.2559 60.2434 43.7655 60.606 44.4085C60.9753 45.0446 61.16 45.756 61.16 46.5426C61.16 47.3429 60.9719 48.0645 60.5957 48.7075C60.2263 49.3436 59.727 49.8498 59.0977 50.226C58.4752 50.5954 57.7912 50.7801 57.0457 50.7801H54.0292V56.6797H52.3054ZM54.0292 49.0564H56.8918C57.3569 49.0564 57.781 48.9435 58.164 48.7178C58.5539 48.4852 58.8617 48.174 59.0874 47.7841C59.32 47.3874 59.4363 46.9428 59.4363 46.4503C59.4363 45.9509 59.32 45.5063 59.0874 45.1164C58.8617 44.7197 58.5539 44.4085 58.164 44.1828C57.781 43.9502 57.3569 43.8339 56.8918 43.8339H54.0292V49.0564ZM62.9264 56.6797V46.4195H64.6501V47.702C65.0126 47.2232 65.4709 46.8436 66.0249 46.5631C66.579 46.2758 67.1809 46.1322 67.8307 46.1322C68.2275 46.1322 68.6105 46.1835 68.9799 46.2861L68.2822 48.0098C68.0017 47.9209 67.7281 47.8764 67.4614 47.8764C66.9484 47.8764 66.4764 48.003 66.0455 48.2561C65.6214 48.5023 65.2828 48.8375 65.0297 49.2616C64.7766 49.6856 64.6501 50.1576 64.6501 50.6775V56.6797H62.9264ZM74.2342 56.9465C73.2903 56.9465 72.4284 56.7036 71.6487 56.218C70.8757 55.7323 70.2567 55.0825 69.7916 54.2685C69.3333 53.4477 69.1041 52.5414 69.1041 51.5496C69.1041 50.7972 69.2375 50.0961 69.5043 49.4462C69.771 48.7896 70.137 48.215 70.6021 47.7225C71.0741 47.2232 71.6213 46.8333 72.2438 46.5529C72.8662 46.2724 73.5297 46.1322 74.2342 46.1322C75.1782 46.1322 76.0366 46.375 76.8095 46.8607C77.5893 47.3463 78.2084 47.9996 78.6666 48.8204C79.1318 49.6412 79.3643 50.5509 79.3643 51.5496C79.3643 52.2952 79.231 52.9929 78.9642 53.6427C78.6974 54.2925 78.3281 54.8671 77.8561 55.3664C77.391 55.8589 76.8472 56.2453 76.2247 56.5258C75.6091 56.8062 74.9456 56.9465 74.2342 56.9465ZM74.2342 55.2227C74.8772 55.2227 75.4552 55.0552 75.9682 54.72C76.4881 54.378 76.895 53.93 77.1892 53.3759C77.4901 52.815 77.6406 52.2062 77.6406 51.5496C77.6406 50.8793 77.4867 50.2636 77.1789 49.7027C76.8779 49.1419 76.471 48.6938 75.9579 48.3587C75.4449 48.0235 74.8704 47.8559 74.2342 47.8559C73.5913 47.8559 73.0133 48.0269 72.5003 48.3689C71.9872 48.7041 71.5803 49.1521 71.2793 49.713C70.9783 50.2739 70.8278 50.8861 70.8278 51.5496C70.8278 52.2336 70.9817 52.8561 71.2896 53.4169C71.5974 53.971 72.0112 54.4122 72.531 54.7405C73.0509 55.062 73.6186 55.2227 74.2342 55.2227ZM83.5314 43.8852V46.4195H86.5377V48.1432H83.5314V56.6797H81.8077V48.1432H80.4841V46.4195H81.8077V43.8852C81.8077 43.3585 81.9343 42.8831 82.1873 42.459C82.4473 42.0281 82.7927 41.6861 83.2236 41.433C83.6614 41.1731 84.1402 41.0431 84.66 41.0431C85.0431 41.0431 85.4159 41.1218 85.7784 41.2791C86.1409 41.4296 86.4624 41.6553 86.7429 41.9563L85.5116 43.1773C85.4159 43.0473 85.2893 42.9481 85.132 42.8797C84.9815 42.8045 84.8242 42.7668 84.66 42.7668C84.3522 42.7668 84.0855 42.8763 83.8597 43.0952C83.6409 43.3141 83.5314 43.5774 83.5314 43.8852ZM92.4701 56.9465C91.5262 56.9465 90.6643 56.7036 89.8846 56.218C89.1116 55.7323 88.4926 55.0825 88.0275 54.2685C87.5692 53.4477 87.34 52.5414 87.34 51.5496C87.34 50.7972 87.4734 50.0961 87.7402 49.4462C88.007 48.7896 88.3729 48.215 88.838 47.7225C89.31 47.2232 89.8572 46.8333 90.4797 46.5529C91.1021 46.2724 91.7656 46.1322 92.4701 46.1322C93.2431 46.1322 93.951 46.2895 94.594 46.6042C95.2438 46.912 95.7979 47.3429 96.2562 47.8969C96.7213 48.451 97.0667 49.094 97.2924 49.8259C97.525 50.5578 97.6105 51.341 97.5489 52.1755H89.1766C89.2587 52.7569 89.4502 53.2767 89.7512 53.735C90.0522 54.1865 90.4352 54.5456 90.9003 54.8123C91.3723 55.0791 91.8956 55.2159 92.4701 55.2227C93.0858 55.2227 93.6432 55.0654 94.1426 54.7508C94.6419 54.4293 95.0455 53.9915 95.3533 53.4375L97.1078 53.8479C96.6974 54.7576 96.0783 55.5032 95.2507 56.0846C94.423 56.6592 93.4962 56.9465 92.4701 56.9465ZM89.1253 50.8211H95.815C95.7603 50.2465 95.5756 49.7233 95.2609 49.2513C94.9463 48.7725 94.5461 48.3894 94.0605 48.1022C93.5748 47.8149 93.0447 47.6712 92.4701 47.6712C91.8956 47.6712 91.3689 47.8114 90.8901 48.0919C90.4113 48.3723 90.0145 48.752 89.6999 49.2308C89.3921 49.7027 89.2006 50.2329 89.1253 50.8211ZM102.447 56.8746C101.893 56.8541 101.353 56.7515 100.826 56.5668C100.306 56.3753 99.8481 56.1188 99.4514 55.7973C99.0615 55.469 98.7777 55.0928 98.5998 54.6687L100.077 54.0326C100.18 54.2651 100.365 54.484 100.631 54.6892C100.898 54.8944 101.206 55.0586 101.555 55.1817C101.904 55.3048 102.256 55.3664 102.612 55.3664C102.988 55.3664 103.34 55.3082 103.668 55.192C103.997 55.0757 104.263 54.9047 104.469 54.6789C104.681 54.4464 104.787 54.1694 104.787 53.8479C104.787 53.5059 104.67 53.2391 104.438 53.0476C104.212 52.8492 103.925 52.6953 103.576 52.5859C103.234 52.4696 102.885 52.3601 102.529 52.2575C101.825 52.0797 101.196 51.8677 100.642 51.6214C100.088 51.3683 99.6498 51.0503 99.3283 50.6672C99.0136 50.2773 98.8563 49.7814 98.8563 49.1795C98.8563 48.5433 99.0307 47.9927 99.3796 47.5276C99.7353 47.0625 100.2 46.7033 100.775 46.4503C101.35 46.1972 101.965 46.0706 102.622 46.0706C103.449 46.0706 104.205 46.2485 104.889 46.6042C105.573 46.9599 106.083 47.4421 106.418 48.0509L105.033 48.8614C104.917 48.6152 104.739 48.3997 104.499 48.215C104.26 48.0235 103.986 47.873 103.679 47.7636C103.371 47.6541 103.056 47.596 102.735 47.5891C102.338 47.5755 101.965 47.6268 101.616 47.743C101.274 47.8593 100.997 48.0372 100.785 48.2766C100.58 48.5091 100.477 48.7998 100.477 49.1487C100.477 49.4907 100.587 49.7506 100.806 49.9285C101.031 50.1063 101.322 50.25 101.678 50.3594C102.04 50.462 102.434 50.5817 102.858 50.7185C103.48 50.9169 104.062 51.146 104.602 51.4059C105.142 51.6659 105.577 51.9908 105.905 52.3807C106.24 52.7705 106.404 53.2528 106.398 53.8273C106.398 54.4566 106.209 55.0073 105.833 55.4792C105.457 55.9444 104.968 56.3001 104.366 56.5463C103.771 56.7925 103.131 56.902 102.447 56.8746ZM111.285 56.8746C110.731 56.8541 110.19 56.7515 109.664 56.5668C109.144 56.3753 108.686 56.1188 108.289 55.7973C107.899 55.469 107.615 55.0928 107.437 54.6687L108.915 54.0326C109.017 54.2651 109.202 54.484 109.469 54.6892C109.736 54.8944 110.043 55.0586 110.392 55.1817C110.741 55.3048 111.093 55.3664 111.449 55.3664C111.825 55.3664 112.177 55.3082 112.506 55.192C112.834 55.0757 113.101 54.9047 113.306 54.6789C113.518 54.4464 113.624 54.1694 113.624 53.8479C113.624 53.5059 113.508 53.2391 113.275 53.0476C113.05 52.8492 112.762 52.6953 112.413 52.5859C112.071 52.4696 111.723 52.3601 111.367 52.2575C110.662 52.0797 110.033 51.8677 109.479 51.6214C108.925 51.3683 108.487 51.0503 108.166 50.6672C107.851 50.2773 107.694 49.7814 107.694 49.1795C107.694 48.5433 107.868 47.9927 108.217 47.5276C108.573 47.0625 109.038 46.7033 109.612 46.4503C110.187 46.1972 110.803 46.0706 111.459 46.0706C112.287 46.0706 113.043 46.2485 113.727 46.6042C114.411 46.9599 114.92 47.4421 115.256 48.0509L113.87 48.8614C113.754 48.6152 113.576 48.3997 113.337 48.215C113.097 48.0235 112.824 47.873 112.516 47.7636C112.208 47.6541 111.894 47.596 111.572 47.5891C111.175 47.5755 110.803 47.6268 110.454 47.743C110.112 47.8593 109.835 48.0372 109.623 48.2766C109.417 48.5091 109.315 48.7998 109.315 49.1487C109.315 49.4907 109.424 49.7506 109.643 49.9285C109.869 50.1063 110.16 50.25 110.515 50.3594C110.878 50.462 111.271 50.5817 111.695 50.7185C112.318 50.9169 112.899 51.146 113.439 51.4059C113.98 51.6659 114.414 51.9908 114.742 52.3807C115.078 52.7705 115.242 53.2528 115.235 53.8273C115.235 54.4566 115.047 55.0073 114.671 55.4792C114.294 55.9444 113.805 56.3001 113.203 56.5463C112.608 56.7925 111.969 56.902 111.285 56.8746ZM116.853 46.4195H118.576V56.6797H116.853V46.4195ZM117.735 44.7471C117.461 44.7471 117.232 44.6581 117.048 44.4803C116.863 44.3025 116.77 44.0802 116.77 43.8134C116.77 43.5466 116.863 43.3243 117.048 43.1465C117.232 42.9686 117.458 42.8797 117.725 42.8797C117.991 42.8797 118.217 42.9686 118.402 43.1465C118.587 43.3243 118.679 43.5466 118.679 43.8134C118.679 44.0802 118.587 44.3025 118.402 44.4803C118.224 44.6581 118.002 44.7471 117.735 44.7471ZM125.415 56.9465C124.471 56.9465 123.609 56.7036 122.829 56.218C122.057 55.7323 121.437 55.0825 120.972 54.2685C120.514 53.4477 120.285 52.5414 120.285 51.5496C120.285 50.7972 120.418 50.0961 120.685 49.4462C120.952 48.7896 121.318 48.215 121.783 47.7225C122.255 47.2232 122.802 46.8333 123.425 46.5529C124.047 46.2724 124.71 46.1322 125.415 46.1322C126.359 46.1322 127.217 46.375 127.99 46.8607C128.77 47.3463 129.389 47.9996 129.847 48.8204C130.313 49.6412 130.545 50.5509 130.545 51.5496C130.545 52.2952 130.412 52.9929 130.145 53.6427C129.878 54.2925 129.509 54.8671 129.037 55.3664C128.572 55.8589 128.028 56.2453 127.406 56.5258C126.79 56.8062 126.126 56.9465 125.415 56.9465ZM125.415 55.2227C126.058 55.2227 126.636 55.0552 127.149 54.72C127.669 54.378 128.076 53.93 128.37 53.3759C128.671 52.815 128.821 52.2062 128.821 51.5496C128.821 50.8793 128.668 50.2636 128.36 49.7027C128.059 49.1419 127.652 48.6938 127.139 48.3587C126.626 48.0235 126.051 47.8559 125.415 47.8559C124.772 47.8559 124.194 48.0269 123.681 48.3689C123.168 48.7041 122.761 49.1521 122.46 49.713C122.159 50.2739 122.009 50.8861 122.009 51.5496C122.009 52.2336 122.163 52.8561 122.47 53.4169C122.778 53.971 123.192 54.4122 123.712 54.7405C124.232 55.062 124.799 55.2227 125.415 55.2227ZM141.313 50.2978V56.6797H139.589V50.6775C139.589 50.1576 139.463 49.6856 139.21 49.2616C138.956 48.8375 138.618 48.5023 138.194 48.2561C137.77 48.003 137.298 47.8764 136.778 47.8764C136.265 47.8764 135.793 48.003 135.362 48.2561C134.938 48.5023 134.599 48.8375 134.346 49.2616C134.093 49.6856 133.967 50.1576 133.967 50.6775V56.6797H132.243V46.4195H133.967V47.702C134.329 47.2232 134.787 46.8436 135.341 46.5631C135.896 46.2758 136.497 46.1322 137.147 46.1322C137.913 46.1322 138.611 46.3203 139.24 46.6965C139.876 47.0659 140.379 47.5652 140.749 48.1945C141.125 48.8238 141.313 49.5249 141.313 50.2978ZM151.414 46.4195H153.137V56.6797H151.414L151.342 54.9457C151.02 55.5408 150.576 56.023 150.008 56.3924C149.447 56.7618 148.777 56.9465 147.997 56.9465C147.245 56.9465 146.54 56.8062 145.883 56.5258C145.227 56.2385 144.645 55.8452 144.139 55.3459C143.64 54.8397 143.25 54.2583 142.969 53.6016C142.689 52.945 142.549 52.237 142.549 51.4778C142.549 50.7459 142.686 50.055 142.959 49.4052C143.233 48.7554 143.612 48.1877 144.098 47.702C144.591 47.2095 145.158 46.8265 145.801 46.5529C146.444 46.2724 147.135 46.1322 147.874 46.1322C148.681 46.1322 149.389 46.3237 149.998 46.7068C150.606 47.083 151.099 47.572 151.475 48.174L151.414 46.4195ZM147.966 55.274C148.643 55.274 149.228 55.1099 149.721 54.7815C150.22 54.4464 150.603 53.9949 150.87 53.4272C151.143 52.8595 151.28 52.2336 151.28 51.5496C151.28 50.8519 151.143 50.2226 150.87 49.6617C150.596 49.094 150.21 48.6459 149.71 48.3176C149.218 47.9825 148.636 47.8149 147.966 47.8149C147.289 47.8149 146.673 47.9825 146.119 48.3176C145.565 48.6528 145.124 49.1042 144.796 49.672C144.474 50.2329 144.314 50.8587 144.314 51.5496C144.314 52.2404 144.481 52.8697 144.816 53.4375C145.151 53.9984 145.596 54.4464 146.15 54.7815C146.704 55.1099 147.31 55.274 147.966 55.274ZM155.308 56.6797V41.2894H157.032V56.6797H155.308Z" fill="#111111"/>
</svg>
