<svg width="32" height="31" viewBox="0 0 32 31" fill="none" xmlns="http://www.w3.org/2000/svg">
<path fill-rule="evenodd" clip-rule="evenodd" d="M19.2288 28.1562C19.2288 27.0503 18.3321 26.1536 17.2261 26.1536H14.7739C14.2427 26.1536 13.7334 26.3646 13.3578 26.7402C12.9822 27.1157 12.7712 27.6251 12.7712 28.1562C12.7712 29.2622 13.6679 30.1589 14.7739 30.1589H17.2261C18.3321 30.1589 19.2288 29.2622 19.2288 28.1562ZM4.21006 22.9923C4.54456 23.0179 4.94925 23.0326 5.35575 23.0087C5.61054 24.3007 6.30592 25.4641 7.32314 26.3003C8.34035 27.1365 9.61631 27.5937 10.9331 27.5938H11.6973C11.6294 27.9657 11.6292 28.3468 11.6967 28.7188H10.9331C9.31484 28.7187 7.74945 28.1424 6.51749 27.0931C5.28552 26.0438 4.46752 24.59 4.21006 22.9923ZM3.63781 21.7952C2.62074 21.6238 1.6973 21.0975 1.03135 20.3099C0.3654 19.5223 5.0752e-06 18.5242 0 17.4928L0 14.8338C-1.18719e-10 13.6766 0.45969 12.5668 1.27794 11.7486C2.0962 10.9303 3.20599 10.4706 4.36319 10.4706H4.65363C5.11788 4.61081 10.0205 0 16 0C21.9795 0 26.8821 4.61081 27.3464 10.4706H27.6368C28.794 10.4706 29.9038 10.9303 30.7221 11.7486C31.5403 12.5668 32 13.6766 32 14.8338V17.4928C32 18.6499 31.5403 19.7597 30.7221 20.578C29.9038 21.3963 28.794 21.856 27.6368 21.856H26.3493C25.8153 21.856 25.3824 21.4231 25.3824 20.8891V11.3824C25.3824 6.20062 21.1817 2 16 2C10.8183 2 6.61763 6.20062 6.61763 11.3824V20.8891C6.61763 21.2661 6.40181 21.5928 6.08694 21.7523C5.22019 22.053 3.876 21.8354 3.63781 21.7952Z" fill="#1A72F5"/>
</svg>
