<svg width="42" height="42" viewBox="0 0 42 42" fill="none" xmlns="http://www.w3.org/2000/svg">
<path d="M13.9389 33.3062C13.9166 33.5282 13.9358 33.7601 14.0168 33.9899C14.2144 34.5439 14.6782 34.9952 15.2275 35.1654C15.738 35.3267 16.2458 35.2193 16.3999 35.0517L17.4649 33.909C17.773 33.5795 17.8508 33.053 17.6698 32.5421C17.2242 31.6882 16.6271 31.3801 15.8625 31.2421L13.9389 33.3062ZM12.5145 27.5922L10.6532 29.5883C10.2751 29.9997 10.1666 30.632 10.3778 31.2379C10.6019 31.8781 11.1367 32.3989 11.7768 32.5934C12.3827 32.775 12.9907 32.6339 13.3714 32.2287L15.0947 30.3805C15.4755 29.9701 15.5813 29.3409 15.3702 28.735C15.1461 28.0918 14.6081 27.573 13.9711 27.3795C13.4627 27.2171 12.8662 27.2109 12.5145 27.5922ZM8.82464 24.3075L7.10604 26.1527C6.72736 26.5609 6.62154 27.1954 6.83059 27.8033C7.05469 28.4414 7.58951 28.9622 8.22964 29.1567C8.8345 29.3409 9.44869 29.1972 9.64011 28.9944L11.5481 26.9469C11.9288 26.5355 12.0346 25.9032 11.8235 25.2983C11.5984 24.6561 11.0635 24.1374 10.4234 23.9449C9.83464 23.753 9.1831 23.9236 8.82464 24.3075ZM5.46266 20.6701L3.55783 22.7186C3.17707 23.1289 3.07125 23.7582 3.28238 24.3609C3.5044 25.0063 4.04234 25.525 4.68247 25.7195C5.28732 25.9001 5.90048 25.76 6.08982 25.5546L7.99984 23.5071V23.505C8.3806 23.0999 8.48642 22.4696 8.27529 21.8647C8.05431 21.2194 7.51637 20.7007 6.87624 20.5082C6.38706 20.3396 5.79518 20.3106 5.46266 20.6701ZM30.1922 8.45312C28.9602 9.14202 27.2479 9.26548 25.5801 9.38531C24.3185 9.47142 23.017 9.56272 22.0817 9.9082L16.8813 11.827C16.8464 11.8406 16.81 11.8498 16.7728 11.8545C16.5218 11.894 16.2894 11.9277 16.0808 11.9567C14.8146 12.1352 14.6683 12.1896 14.5225 12.5647C14.3897 12.9112 14.5355 13.4108 14.8955 13.8351C15.1891 14.1837 16.3381 15.272 18.7021 14.7123L21.6636 14.3212C23.322 14.1074 24.6515 15.1885 25.7134 16.061L33.6777 22.4323L33.6839 22.4291C35.2583 21.7703 36.8986 20.9134 38.293 19.2337L30.1922 8.45312Z" fill="#9160F4"/>
<path d="M19.2339 8.07138C18.7619 8.11495 18.2208 8.17461 17.6533 8.23375C14.5144 8.56886 12.774 8.70062 11.8885 8.53669L3.73954 19.1435C4.02611 19.4096 4.27764 19.7112 4.48809 20.0409C5.1692 19.3437 6.19839 19.0947 7.2006 19.3976C8.18414 19.6944 9.00531 20.4917 9.34872 21.4809C9.49449 21.8995 9.54014 22.3291 9.50279 22.7404C9.9197 22.6806 10.3447 22.7128 10.7478 22.8348C11.7287 23.1295 12.553 23.9289 12.8938 24.9181C13.0417 25.3347 13.0883 25.7632 13.0531 26.1745C13.4702 26.1144 13.8954 26.1477 14.2981 26.272C15.2769 26.5688 16.0976 27.3661 16.441 28.3501C16.6568 28.9742 16.6651 29.6164 16.4898 30.1922C16.5899 30.2114 16.6926 30.2358 16.7948 30.2679C17.673 30.5403 18.419 31.2619 18.7401 32.1515C19.0461 33.0126 18.9133 33.9173 18.4107 34.5668L19.8564 35.723C20.2102 36.0037 20.7258 36.0343 21.2072 35.8009C21.7291 35.5477 22.1233 35.0336 22.2395 34.4584C22.2844 34.23 22.2768 33.9944 22.2172 33.7695L20.3835 32.3025C20.2647 32.2056 20.1882 32.0665 20.17 31.9144C20.1519 31.7623 20.1934 31.6091 20.2859 31.487C20.3313 31.4272 20.3882 31.3771 20.4532 31.3396C20.5182 31.3022 20.5901 31.278 20.6646 31.2687C20.739 31.2594 20.8146 31.265 20.8869 31.2853C20.9591 31.3056 21.0266 31.3401 21.0853 31.3869L23.29 33.1537C23.5089 33.329 24.136 33.3757 24.7113 33.1049C25.3162 32.816 25.7732 32.2205 25.8998 31.556C26.0212 30.9278 25.8266 30.3188 25.394 29.9702L23.4 28.3745C23.2805 28.2787 23.2033 28.1398 23.1851 27.9877C23.1669 27.8357 23.209 27.6825 23.3024 27.5611C23.3471 27.5008 23.4036 27.4501 23.4684 27.4122C23.5333 27.3743 23.6051 27.3499 23.6797 27.3405C23.7542 27.3312 23.8298 27.337 23.902 27.3577C23.9742 27.3784 24.0415 27.4136 24.0997 27.461L26.9985 29.7793C27.4342 30.1258 28.0604 30.1735 28.6388 29.9038C29.2384 29.6169 29.6954 29.0224 29.8251 28.3507C29.9465 27.7225 29.752 27.1155 29.3147 26.7638L26.4149 24.4487C26.2952 24.3516 26.2181 24.2117 26.1999 24.0586C26.1817 23.9056 26.2238 23.7515 26.3174 23.629C26.3632 23.5696 26.4204 23.5199 26.4857 23.4829C26.5509 23.4458 26.6229 23.4221 26.6974 23.4131C26.7719 23.4041 26.8474 23.41 26.9196 23.4306C26.9918 23.4511 27.0591 23.4857 27.1178 23.5326C27.1178 23.5326 31.5209 27.0533 31.524 27.0533C31.7429 27.2255 32.367 27.2743 32.9397 27.0004C33.5456 26.7176 33.9995 26.1232 34.1312 25.4535C34.2505 24.8242 34.056 24.2132 33.6208 23.8677L25.0029 16.971C24.0141 16.1602 22.9927 15.3203 21.8064 15.4796L18.9045 15.8583C16.9483 16.3282 15.1032 15.8634 14.0361 14.6019C13.3929 13.8419 13.1739 12.9019 13.4629 12.1461C13.868 11.0977 14.6441 10.9893 15.9248 10.8088C16.1163 10.7844 16.3222 10.7543 16.5489 10.7185L21.6959 8.81993C22.0305 8.69543 22.4009 8.60932 22.7842 8.53306C21.4609 8.02106 20.5017 7.99046 19.2339 8.07138ZM8.04875 6.06125C7.11138 5.99018 6.25545 6.69671 5.02343 8.30118L1.87258 12.4055C0.732895 13.886 0.305968 14.8068 0.40038 15.5869C0.476116 16.2281 0.922237 16.8574 1.36473 17.2122L2.85923 18.4058L10.975 7.84261L9.92453 7.00173C9.20243 6.42592 8.61107 6.10482 8.04875 6.06125ZM34.0731 6.05035C33.5108 6.08563 32.9142 6.39999 32.1864 6.96749L31.1246 7.79126L39.1278 18.4406L40.1621 17.636C41.057 16.9419 41.5135 16.321 41.597 15.6803C41.7002 14.9022 41.2868 13.9742 40.1652 12.4745L37.0658 8.33075C35.8581 6.70968 35.0131 5.99018 34.0731 6.05035Z" fill="#9160F4"/>
</svg>
