<svg width="60" height="60" viewBox="0 0 60 60" fill="none" xmlns="http://www.w3.org/2000/svg">
<path d="M50.4003 14.1016C52.8843 14.1016 54.9003 12.0856 54.9003 9.60156C54.9003 7.11756 52.8843 5.10156 50.4003 5.10156C47.9163 5.10156 45.9003 7.11756 45.9003 9.60156C45.9003 9.78756 45.9123 9.97956 45.9363 10.1536C46.0383 10.9996 46.3803 11.7856 46.9023 12.4336L39.5523 21.3556C39.4323 21.2716 39.3123 21.1876 39.1863 21.1096C39.0903 21.0436 38.9943 20.9896 38.9223 20.9536C37.3203 20.0056 35.4783 19.5016 33.6003 19.5016C31.3683 19.5016 29.2083 20.2156 27.4323 21.5116L23.1543 16.5796C23.5023 16.1896 23.8083 15.7696 24.0543 15.3076C24.6063 14.2996 24.8943 13.1536 24.8943 12.0016C24.8943 11.7256 24.8763 11.4376 24.8403 11.1496C24.4203 7.69956 21.4743 5.10156 18.0003 5.10156C14.1963 5.10156 11.1003 8.19756 11.1003 12.0016C11.1003 13.9276 11.9163 15.7816 13.3443 17.0896C14.6223 18.2596 16.2783 18.9016 18.0003 18.9016C18.1023 18.9016 18.1983 18.9016 18.2523 18.8956C19.5123 18.8536 20.7423 18.4516 21.7923 17.7556L26.0703 22.6876C25.4103 23.3596 24.8403 24.1276 24.3783 24.9736C23.5383 26.5156 23.1003 28.2496 23.1003 30.0016C23.1003 32.1556 23.7483 34.2076 24.9603 35.9596L18.8403 40.9936C17.3403 39.5296 15.3303 38.7016 13.2003 38.7016C13.0923 38.7016 12.9903 38.7016 12.9063 38.7076C8.52634 38.8636 5.10034 42.4216 5.10034 46.8016C5.10034 51.2656 8.73634 54.9016 13.2003 54.9016C17.4543 54.9016 21.0003 51.5776 21.2763 47.3536C21.2883 47.1736 21.3003 46.9876 21.3003 46.8016C21.3003 45.2176 20.8443 43.6996 19.9803 42.3856L26.1123 37.3396C28.0743 39.3556 30.7503 40.5016 33.6003 40.5016C35.3223 40.5016 37.0203 40.0816 38.4963 39.2896C38.5983 39.2416 38.6943 39.1816 38.7423 39.1516C38.7543 39.1456 38.7663 39.1336 38.7783 39.1276L42.8643 45.0736C41.8383 46.0456 41.2023 47.3776 41.1063 48.8296C41.1003 48.9496 41.0943 49.0756 41.0943 49.2016C41.0943 52.3456 43.6503 54.9016 46.7943 54.9016C49.9383 54.9016 52.4943 52.3456 52.4943 49.2016C52.4943 46.0576 49.9383 43.5016 46.7943 43.5016C45.9423 43.5016 45.1023 43.6996 44.3523 44.0596L40.2603 38.1016C42.6603 36.1276 44.0943 33.1636 44.0943 29.9956C44.0943 27.1156 42.9363 24.4396 40.9383 22.4896L48.3003 13.5676C48.9423 13.9096 49.6563 14.1016 50.4003 14.1016ZM46.8003 45.3016C48.9483 45.3016 50.7003 47.0536 50.7003 49.2016C50.7003 51.3496 48.9483 53.1016 46.8003 53.1016C44.6523 53.1016 42.9003 51.3496 42.9003 49.2016C42.9003 49.1116 42.9063 49.0216 42.9123 48.9436C42.9963 47.6296 43.7403 46.4536 44.8563 45.8236C44.8923 45.8056 44.9283 45.7876 44.9823 45.7516C45.5343 45.4576 46.1643 45.3016 46.8003 45.3016ZM18.1503 17.1016C18.1023 17.1076 18.0543 17.1016 18.0003 17.1016C16.7283 17.1016 15.5043 16.6276 14.5563 15.7576C13.4883 14.7796 12.9003 13.4476 12.9003 12.0016C12.9003 9.18756 15.1863 6.90156 18.0003 6.90156C20.5683 6.90156 22.7463 8.82156 23.0583 11.3716C23.0883 11.5936 23.1003 11.8036 23.1003 12.0016C23.1003 12.8536 22.8843 13.6996 22.4763 14.4436C22.1883 14.9776 21.8043 15.4516 21.3423 15.8536C20.4603 16.6156 19.3383 17.0596 18.1503 17.1016ZM19.4823 47.2216C19.2663 50.5156 16.5063 53.1016 13.2003 53.1016C9.72634 53.1016 6.90034 50.2756 6.90034 46.8016C6.90034 43.3936 9.56434 40.6276 12.9963 40.5076C13.0503 40.5016 13.1043 40.5016 13.1583 40.5016C15.0423 40.4776 16.8603 41.3296 18.0723 42.8176C18.1623 42.9256 18.2463 43.0396 18.3243 43.1476C19.0923 44.2156 19.5003 45.4756 19.5003 46.8016C19.5003 46.9396 19.4943 47.0776 19.4823 47.2216ZM42.3003 30.0016C42.3003 33.1396 40.6023 36.0496 37.8243 37.6036C37.7823 37.6276 37.7403 37.6576 37.6743 37.6876C36.4383 38.3476 35.0283 38.6956 33.6063 38.6956C30.9963 38.6956 28.5483 37.5436 26.8863 35.5096C26.7603 35.3656 26.6403 35.2156 26.5263 35.0476C25.4643 33.5716 24.9063 31.8196 24.9063 29.9896C24.9063 28.5376 25.2723 27.0976 25.9683 25.8256C26.4663 24.9136 27.1383 24.0856 27.9183 23.4196C29.4903 22.0456 31.5063 21.2896 33.6063 21.2896C35.1663 21.2896 36.6903 21.7036 38.0463 22.5076C38.1003 22.5376 38.1483 22.5616 38.2203 22.6096C40.7703 24.2236 42.3003 26.9836 42.3003 30.0016ZM50.4003 6.90156C51.8883 6.90156 53.1003 8.11356 53.1003 9.60156C53.1003 11.0896 51.8883 12.3016 50.4003 12.3016C49.9203 12.3016 49.4583 12.1756 49.0623 11.9356C49.0383 11.9236 49.0143 11.9056 48.9903 11.8936C48.9843 11.8876 48.9783 11.8876 48.9723 11.8816C48.2883 11.4556 47.8203 10.7296 47.7243 9.93156C47.7123 9.82356 47.7003 9.70956 47.7003 9.59556C47.7003 8.11356 48.9123 6.90156 50.4003 6.90156Z" fill="white"/>
<circle cx="34.0022" cy="29.9922" r="9.7" stroke="#F38402" stroke-width="2.6"/>
</svg>
