<svg width="60" height="60" viewBox="0 0 60 60" fill="none" xmlns="http://www.w3.org/2000/svg">
<path fill-rule="evenodd" clip-rule="evenodd" d="M11.3663 3.91605C9.8474 2.3973 7.23904 3.47801 7.23904 5.62559C7.23904 7.77316 9.84752 8.85387 11.3663 7.33512C12.3103 6.39106 12.3102 4.86012 11.3663 3.91605ZM9.65674 1.92188C11.7021 1.92188 13.3606 3.58031 13.3606 5.6257C13.3606 7.67109 11.7021 9.32953 9.65674 9.32953C7.61135 9.32953 5.95291 7.67109 5.95291 5.6257C5.95291 3.58031 7.61135 1.92188 9.65674 1.92188ZM16.7509 20.0741H2.56256C2.20736 20.0741 1.91943 19.7862 1.91943 19.431V14.9795C1.91943 12.3785 3.83475 10.0264 6.41146 10.0264H12.9018C15.4784 10.0264 17.3939 12.3785 17.3939 14.9795V19.431C17.3939 19.7862 17.1061 20.0741 16.7509 20.0741ZM3.20568 18.788H4.94205V17.2386C4.94205 16.8834 5.22998 16.5955 5.58518 16.5955C5.94037 16.5955 6.2283 16.8834 6.2283 17.2386V18.788H13.0854V17.2386C13.0854 16.8834 13.3733 16.5955 13.7285 16.5955C14.0837 16.5955 14.3717 16.8834 14.3717 17.2386V18.788H16.108V14.9796C16.108 13.0768 14.764 11.3128 12.9021 11.3128H6.41182C4.54982 11.3128 3.20592 13.0768 3.20592 14.9796L3.20568 18.788ZM11.3663 41.9263C9.8474 40.4075 7.23904 41.4882 7.23904 43.6358C7.23904 45.7834 9.84752 46.8641 11.3663 45.3454C12.3103 44.4013 12.3102 42.8703 11.3663 41.9263ZM9.65674 39.9321C11.7021 39.9321 13.3606 41.5905 13.3606 43.6359C13.3606 45.6813 11.7021 47.3398 9.65674 47.3398C7.61135 47.3398 5.95291 45.6813 5.95291 43.6359C5.95291 41.5905 7.61135 39.9321 9.65674 39.9321ZM16.7509 58.0843H2.56256C2.20736 58.0843 1.91943 57.7964 1.91943 57.4412V52.9897C1.91943 50.3889 3.83475 48.0368 6.41146 48.0368H12.9018C15.4784 48.0368 17.3939 50.3889 17.3939 52.9897V57.4412C17.3939 57.7964 17.1061 58.0843 16.7509 58.0843ZM3.20568 56.7982H4.94205V55.2489C4.94205 54.8937 5.22998 54.6057 5.58518 54.6057C5.94037 54.6057 6.2283 54.8937 6.2283 55.2489V56.7982H13.0854V55.2489C13.0854 54.8937 13.3733 54.6057 13.7285 54.6057C14.0837 54.6057 14.3717 54.8937 14.3717 55.2489V56.7982H16.108V52.9898C16.108 51.0871 14.764 49.323 12.9021 49.323H6.41182C4.54982 49.323 3.20592 51.0871 3.20592 52.9898L3.20568 56.7982ZM52.0541 3.91605C50.5353 2.3973 47.9269 3.47801 47.9269 5.62559C47.9269 7.77316 50.5354 8.85387 52.0541 7.33512C52.9982 6.39106 52.9981 4.86012 52.0541 3.91605ZM50.3446 1.92188C52.39 1.92188 54.0484 3.58031 54.0484 5.6257C54.0484 7.67109 52.39 9.32953 50.3446 9.32953C48.2992 9.32953 46.6408 7.67109 46.6408 5.6257C46.6408 3.58031 48.2992 1.92188 50.3446 1.92188ZM57.4388 20.0741H43.2505C42.8953 20.0741 42.6074 19.7862 42.6074 19.431V14.9795C42.6074 12.3785 44.5227 10.0264 47.0994 10.0264H53.5897C56.1664 10.0264 58.0819 12.3785 58.0819 14.9795V19.431C58.0819 19.7862 57.794 20.0741 57.4388 20.0741ZM43.8935 18.788H45.6299V17.2386C45.6299 16.8834 45.9178 16.5955 46.273 16.5955C46.6282 16.5955 46.9162 16.8834 46.9162 17.2386V18.788H53.7733V17.2386C53.7733 16.8834 54.0612 16.5955 54.4164 16.5955C54.7716 16.5955 55.0595 16.8834 55.0595 17.2386V18.788H56.7959V14.9796C56.7959 13.0768 55.4519 11.3128 53.59 11.3128H47.0997C45.2377 11.3128 43.8938 13.0768 43.8938 14.9796L43.8935 18.788ZM52.0541 41.9263C50.5353 40.4075 47.9269 41.4882 47.9269 43.6358C47.9269 45.7834 50.5354 46.8641 52.0541 45.3454C52.9982 44.4013 52.9981 42.8703 52.0541 41.9263ZM50.3446 39.9321C52.39 39.9321 54.0484 41.5905 54.0484 43.6359C54.0484 45.6813 52.39 47.3398 50.3446 47.3398C48.2992 47.3398 46.6408 45.6813 46.6408 43.6359C46.6408 41.5905 48.2992 39.9321 50.3446 39.9321ZM57.4388 58.0843H43.2505C42.8953 58.0843 42.6074 57.7964 42.6074 57.4412V52.9897C42.6074 50.3889 44.5227 48.0368 47.0994 48.0368H53.5897C56.1664 48.0368 58.0819 50.3889 58.0819 52.9897V57.4412C58.0819 57.7964 57.794 58.0843 57.4388 58.0843ZM43.8935 56.7982H45.6299V55.2489C45.6299 54.8937 45.9178 54.6057 46.273 54.6057C46.6282 54.6057 46.9162 54.8937 46.9162 55.2489V56.7982H53.7733V55.2489C53.7733 54.8937 54.0612 54.6057 54.4164 54.6057C54.7716 54.6057 55.0595 54.8937 55.0595 55.2489V56.7982H56.7959V52.9898C56.7959 51.0871 55.4519 49.323 53.59 49.323H47.0997C45.2377 49.323 43.8938 51.0871 43.8938 52.9898L43.8935 56.7982ZM30.867 31.7739C30.0978 31.0045 28.7756 31.5514 28.7756 32.6401C28.7756 33.7288 30.0976 34.2758 30.867 33.5065C31.3453 33.0282 31.3453 32.2521 30.867 31.7739ZM30.867 42.5677C30.0975 41.7982 28.7756 42.3454 28.7756 43.4339C28.7756 44.5225 30.0976 45.0696 30.867 44.3003C31.3453 43.8219 31.3453 43.0459 30.867 42.5677ZM21.591 27.7282C21.5788 27.7536 21.5649 27.7785 21.549 27.8024C21.238 28.324 21.4245 29.107 22.014 29.4469C22.5993 29.7843 23.3523 29.5842 23.6916 28.9968C24.2306 28.0893 23.386 26.9121 22.3112 27.2C22.0213 27.2777 21.7605 27.4595 21.591 27.7282ZM35.5922 35.1277C35.9094 34.807 36.3018 34.5841 36.7231 34.4713C38.0612 34.1127 39.439 34.9096 39.7974 36.2469C40.3671 38.3735 38.0862 40.1912 36.1173 39.0682L36.1167 39.0693L36.0819 39.0488L36.074 39.0439C35.4974 38.696 35.1096 38.151 34.9474 37.5456C34.8346 37.1244 34.8314 36.6734 34.9504 36.2387L31.7824 34.4096C31.474 34.7211 31.0803 34.9529 30.6437 35.0682V41.0059C32.5006 41.4966 33.151 43.8349 31.7764 45.2096C30.1978 46.7882 27.4895 45.6634 27.4895 43.434C27.4895 42.2817 28.2707 41.2932 29.3576 41.006V35.0684C28.021 34.715 27.2096 33.3327 27.5772 31.9804L24.4112 30.1525C24.094 30.4729 23.701 30.696 23.2785 30.8092C21.9401 31.1678 20.5624 30.3705 20.2042 29.0336C19.6274 26.8809 21.9597 25.0921 23.8842 26.2124L23.8848 26.2113C24.8821 26.7872 25.3487 27.9565 25.0507 29.043L28.2181 30.8718C29.7919 29.2842 32.5119 30.4051 32.5119 32.6404C32.5119 32.8683 32.4816 33.0892 32.4246 33.2991L35.5922 35.1277ZM36.3344 36.2404C36.3205 36.2692 36.3044 36.2973 36.286 36.3243C35.9827 36.8286 36.1846 37.6351 36.7286 37.9403C36.7512 37.9518 36.7733 37.9646 36.7949 37.9791C37.7322 38.4781 38.8353 37.6193 38.5565 36.5786C38.2791 35.5431 36.8985 35.3453 36.3344 36.2404ZM40.8257 23.3184C34.8474 17.3401 25.1541 17.3401 19.1756 23.3184C13.1973 29.2968 13.1973 38.99 19.1756 44.9684C25.154 50.9467 34.8474 50.9467 40.8256 44.9684C46.8039 38.99 46.804 29.2968 40.8257 23.3184ZM30.0007 17.5485C20.8358 17.5485 13.4058 24.9784 13.4058 34.1434C13.4058 43.3084 20.8357 50.7383 30.0007 50.7383C39.1657 50.7383 46.5956 43.3083 46.5956 34.1434C46.5956 24.9785 39.1656 17.5485 30.0007 17.5485Z" fill="white"/>
<path fill-rule="evenodd" clip-rule="evenodd" d="M30.8764 31.8905C30.0983 31.1242 28.7609 31.669 28.7609 32.7534C28.7609 33.8378 30.0982 34.3826 30.8764 33.6163C31.3603 33.14 31.3603 32.3669 30.8764 31.8905ZM30.8764 42.6418C30.0981 41.8754 28.7609 42.4204 28.7609 43.5046C28.7609 44.5889 30.0982 45.1339 30.8764 44.3676C31.3603 43.8911 31.3603 43.1181 30.8764 42.6418ZM21.4932 27.8608C21.4809 27.8862 21.4667 27.9109 21.4507 27.9347C21.1361 28.4543 21.3247 29.2342 21.9211 29.5727C22.5131 29.9088 23.2749 29.7095 23.6181 29.1244C24.1634 28.2205 23.3089 27.0479 22.2217 27.3347C21.9285 27.4121 21.6646 27.5932 21.4932 27.8608ZM35.6563 35.2311C35.9772 34.9117 36.3741 34.6897 36.8003 34.5773C38.1539 34.2201 39.5476 35.0139 39.9101 36.346C40.4865 38.4642 38.1792 40.2747 36.1875 39.1561L36.1869 39.1572L36.1517 39.1367L36.1437 39.132C35.5604 38.7854 35.1682 38.2425 35.0041 37.6395C34.8899 37.22 34.8867 36.7707 35.0071 36.3378L31.8025 34.5159C31.4905 34.8262 31.0922 35.0571 30.6506 35.1719V41.0862C32.5289 41.5749 33.1868 43.9041 31.7963 45.2734C30.1996 46.8456 27.4599 45.7253 27.4599 43.5047C27.4599 42.357 28.2501 41.3724 29.3496 41.0863V35.172C27.9975 34.8201 27.1767 33.4432 27.5486 32.0962L24.346 30.2755C24.0251 30.5947 23.6275 30.8169 23.2002 30.9297C21.8463 31.2868 20.4527 30.4927 20.0903 29.161C19.5069 27.0169 21.8661 25.2351 23.8129 26.351L23.8135 26.3499C24.8223 26.9235 25.2944 28.0882 24.9929 29.1705L28.1969 30.992C29.7889 29.4107 32.5404 30.5272 32.5404 32.7536C32.5404 32.9806 32.5097 33.2007 32.4521 33.4097L35.6563 35.2311ZM36.4071 36.3394C36.3931 36.3681 36.3767 36.3961 36.3581 36.423C36.0513 36.9254 36.2556 37.7287 36.8058 38.0326C36.8287 38.0441 36.8511 38.0569 36.8729 38.0713C37.821 38.5683 38.9369 37.7129 38.6549 36.6763C38.3743 35.6449 36.9777 35.4479 36.4071 36.3394Z" fill="#7E23FB"/>
</svg>
