<svg width="60" height="60" viewBox="0 0 60 60" fill="none" xmlns="http://www.w3.org/2000/svg">
<path d="M53.4375 7.03125H6.5625C5.01159 7.03125 3.75 8.29284 3.75 9.84375V41.7188C3.75 43.2697 5.01159 44.5312 6.5625 44.5312H12.1875C12.7057 44.5312 13.125 44.1119 13.125 43.5938C13.125 43.0756 12.7057 42.6562 12.1875 42.6562H6.5625C6.04522 42.6562 5.625 42.236 5.625 41.7188V9.84375C5.625 9.32693 6.04522 8.90625 6.5625 8.90625H53.4375C53.9548 8.90625 54.375 9.32693 54.375 9.84375V14.5308H40.7007L39.1003 12.9309C38.9246 12.7556 38.6856 12.6567 38.4375 12.6567H9.375C8.15611 12.6795 8.13008 14.5058 9.37505 14.5317C9.375 14.5317 38.0493 14.5317 38.0493 14.5317L39.6497 16.1316C39.8254 16.3069 40.0644 16.4058 40.3125 16.4058H54.375V41.7188C54.375 42.236 53.9548 42.6562 53.4375 42.6562H47.8125C47.2943 42.6562 46.875 43.0756 46.875 43.5938C46.875 44.1119 47.2943 44.5312 47.8125 44.5312H53.4375C54.9884 44.5312 56.25 43.2697 56.25 41.7188V9.84375C56.25 8.29284 54.9884 7.03125 53.4375 7.03125Z" fill="white"/>
<path d="M44.5312 11.7132C44.5103 10.4809 42.677 10.4811 42.6562 11.7132C42.6772 12.9455 44.5105 12.9453 44.5312 11.7132ZM48.2812 11.7132C48.2603 10.4809 46.427 10.4811 46.4062 11.7132C46.4272 12.9455 48.2605 12.9453 48.2812 11.7132ZM52.0312 11.7132C52.0104 10.4809 50.177 10.4811 50.1562 11.7132C50.1772 12.9455 52.0105 12.9453 52.0312 11.7132ZM34.9622 41.4388L37.1118 43.5885L34.9622 45.7381C34.0994 46.607 35.417 47.9281 36.2879 47.0638C36.2878 47.0638 39.1003 44.2513 39.1003 44.2513C39.4665 43.8851 39.4665 43.2919 39.1003 42.9256L36.2878 40.1131C35.4179 39.2513 34.0984 40.5671 34.9622 41.4388ZM25.0378 40.1131C24.6716 39.7469 24.0784 39.7469 23.7122 40.1131L20.8997 42.9256C20.5334 43.2919 20.5334 43.8851 20.8997 44.2513L23.7122 47.0638C24.0784 47.43 24.6716 47.43 25.0378 47.0638C25.404 46.6976 25.404 46.1044 25.0378 45.7381L22.8882 43.5885L25.0378 41.4388C25.404 41.0726 25.404 40.4794 25.0378 40.1131ZM32.2943 38.9999C31.8311 38.7701 31.2689 38.9559 31.0364 39.4192L27.2864 46.9192C27.0547 47.3824 27.2424 47.9455 27.7057 48.1771C28.1592 48.4058 28.7307 48.2257 28.9636 47.7578L32.7136 40.2578C32.9453 39.7945 32.7576 39.2315 32.2943 38.9999Z" fill="#02C5A3"/>
<path d="M24.375 34.2188H18.75C17.1991 34.2188 15.9375 35.4803 15.9375 37.0312V50.1562C15.9375 51.7072 17.1991 52.9688 18.75 52.9688H41.25C42.8009 52.9688 44.0625 51.7072 44.0625 50.1562V37.0312C44.0625 35.4803 42.8009 34.2188 41.25 34.2188H35.625V29.9194L37.2325 28.3119C39.018 29.2346 41.3008 27.7982 41.25 25.7812C41.25 24.2304 39.9884 22.9688 38.4375 22.9688C36.4192 22.92 34.9855 25.1984 35.9069 26.9863C35.9068 26.9862 34.0247 28.8684 34.0247 28.8684C33.8489 29.0442 33.75 29.2827 33.75 29.5312V34.2187H30.9375V24.671C33.8694 23.6259 33.1495 19.2455 29.9999 19.2188C26.8494 19.2513 26.1291 23.6195 29.0626 24.6709C29.0625 24.6709 29.0625 34.2187 29.0625 34.2187H26.25V29.5312C26.25 29.2827 26.1511 29.0442 25.9753 28.8684L24.0932 26.9862C25.0165 25.2 23.5789 22.9184 21.5625 22.9688C20.0116 22.9687 18.75 24.2303 18.75 25.7812C18.7015 27.7992 20.9794 29.2335 22.7676 28.3119C22.7675 28.3119 24.375 29.9194 24.375 29.9194V34.2188ZM38.4375 24.8438C39.6695 24.8657 39.6695 26.697 38.4375 26.7188C37.2087 26.693 37.2038 24.8668 38.4375 24.8438ZM30 21.0938C31.2321 21.1156 31.2319 22.947 30 22.9688C28.7679 22.9469 28.7681 21.1155 30 21.0938ZM42.1875 37.0312V50.1562C42.1875 50.6735 41.7673 51.0938 41.25 51.0938H18.75C18.2327 51.0938 17.8125 50.6735 17.8125 50.1562V37.0312C17.8125 36.514 18.2327 36.0938 18.75 36.0938H41.25C41.7673 36.0938 42.1875 36.514 42.1875 37.0312ZM20.625 25.7812C20.6469 24.5493 22.4783 24.5493 22.5 25.7813C22.4741 27.0103 20.6479 27.0147 20.625 25.7812Z" fill="white"/>
</svg>
