<svg width="42" height="42" viewBox="0 0 42 42" fill="none" xmlns="http://www.w3.org/2000/svg">
<path d="M40.0312 14.2997C39.6703 14.2997 39.375 14.595 39.375 14.9559V23.1984C39.375 23.5594 39.6703 23.8547 40.0312 23.8547C40.3922 23.8547 40.6875 23.5594 40.6875 23.1984V14.9559C40.6875 14.595 40.3922 14.2997 40.0312 14.2997ZM22.3125 34.7812C22.3125 34.4203 22.0172 34.125 21.6562 34.125H4.59375C3.51094 34.125 2.625 33.2391 2.625 32.1562V30.1875H21.6562C22.0172 30.1875 22.3125 29.8922 22.3125 29.5312C22.3125 29.1703 22.0172 28.875 21.6562 28.875H2.625V8.53125C2.625 7.44844 3.51094 6.5625 4.59375 6.5625H24.6619C25.0228 6.5625 25.3181 6.26719 25.3181 5.90625C25.3181 5.54531 25.0228 5.25 24.6619 5.25H4.59375C2.7825 5.25 1.3125 6.72 1.3125 8.53125V32.1562C1.3125 33.9675 2.7825 35.4375 4.59375 35.4375H21.6562C22.0172 35.4375 22.3125 35.1422 22.3125 34.7812ZM21.8859 39.375H15.5006L16.3406 37.7016C16.5047 37.38 16.3734 36.9862 16.0453 36.8222C15.7172 36.6581 15.3234 36.7894 15.1659 37.1175L13.8534 39.7425C13.755 39.9459 13.7616 40.1887 13.8797 40.3791C13.9978 40.5694 14.2078 40.6875 14.4375 40.6875H21.8859C22.2469 40.6875 22.5422 40.3922 22.5422 40.0312C22.5422 39.6703 22.2469 39.375 21.8859 39.375ZM38.7188 24.9375H36.75V23.625C36.75 23.2641 36.4547 22.9688 36.0938 22.9688C35.7328 22.9688 35.4375 23.2641 35.4375 23.625V24.9375H28.875V23.625C28.875 23.2641 28.5797 22.9688 28.2188 22.9688C27.8578 22.9688 27.5625 23.2641 27.5625 23.625V24.9375H25.5938C24.5109 24.9375 23.625 25.8234 23.625 26.9062V38.7188C23.625 39.8016 24.5109 40.6875 25.5938 40.6875H38.7188C39.8016 40.6875 40.6875 39.8016 40.6875 38.7188V26.9062C40.6875 25.8234 39.8016 24.9375 38.7188 24.9375ZM25.5938 26.25H38.7188C39.0797 26.25 39.375 26.5453 39.375 26.9062V28.875H24.9375V26.9062C24.9375 26.5453 25.2328 26.25 25.5938 26.25ZM38.7188 39.375H25.5938C25.2328 39.375 24.9375 39.0797 24.9375 38.7188V30.1875H39.375V38.7188C39.375 39.0797 39.0797 39.375 38.7188 39.375Z" fill="white"/>
<path d="M9.1875 19.6875H5.90625C5.54531 19.6875 5.25 19.9828 5.25 20.3438V25.5938C5.25 25.9547 5.54531 26.25 5.90625 26.25H9.1875C9.54844 26.25 9.84375 25.9547 9.84375 25.5938V20.3438C9.84375 19.9828 9.54844 19.6875 9.1875 19.6875ZM8.53125 24.9375H6.5625V21H8.53125V24.9375ZM11.8125 26.25H15.0938C15.4547 26.25 15.75 25.9547 15.75 25.5938V16.4062C15.75 16.0453 15.4547 15.75 15.0938 15.75H11.8125C11.4516 15.75 11.1562 16.0453 11.1562 16.4062V25.5938C11.1562 25.9547 11.4516 26.25 11.8125 26.25ZM12.4688 17.0625H14.4375V24.9375H12.4688V17.0625ZM17.7188 17.7188C17.3578 17.7188 17.0625 18.0141 17.0625 18.375V25.5938C17.0625 25.9547 17.3578 26.25 17.7188 26.25H21C21.3609 26.25 21.6562 25.9547 21.6562 25.5938V18.375C21.6562 18.0141 21.3609 17.7188 21 17.7188H17.7188ZM20.3438 24.9375H18.375V19.0312H20.3438V24.9375ZM5.90625 9.84375H13.7812C14.1422 9.84375 14.4375 9.54844 14.4375 9.1875C14.4375 8.82656 14.1422 8.53125 13.7812 8.53125H5.90625C5.54531 8.53125 5.25 8.82656 5.25 9.1875C5.25 9.54844 5.54531 9.84375 5.90625 9.84375ZM14.4375 11.8125C14.4375 11.4516 14.1422 11.1562 13.7812 11.1562H5.90625C5.54531 11.1562 5.25 11.4516 5.25 11.8125C5.25 12.1734 5.54531 12.4688 5.90625 12.4688H13.7812C14.1422 12.4688 14.4375 12.1734 14.4375 11.8125ZM9.1875 13.7812H5.90625C5.54531 13.7812 5.25 14.0766 5.25 14.4375C5.25 14.7984 5.54531 15.0938 5.90625 15.0938H9.1875C9.54844 15.0938 9.84375 14.7984 9.84375 14.4375C9.84375 14.0766 9.54844 13.7812 9.1875 13.7812ZM33.4688 15.75C37.4522 15.75 40.6875 12.5147 40.6875 8.53125C40.6875 4.54781 37.4522 1.3125 33.4688 1.3125C29.4853 1.3125 26.25 4.54781 26.25 8.53125C26.25 12.5147 29.4853 15.75 33.4688 15.75ZM33.4688 2.625C36.7237 2.625 39.375 5.27625 39.375 8.53125C39.375 11.7863 36.7237 14.4375 33.4688 14.4375C30.2138 14.4375 27.5625 11.7863 27.5625 8.53125C27.5625 5.27625 30.2138 2.625 33.4688 2.625Z" fill="#1F76F9"/>
<path d="M33.1078 9.07594L35.0766 10.3884C35.1881 10.4606 35.3128 10.5 35.4375 10.5C35.6475 10.5 35.8575 10.395 35.9822 10.2047C36.1856 9.90281 36.1003 9.49594 35.7984 9.2925L34.125 8.17688V5.25C34.125 4.88906 33.8297 4.59375 33.4688 4.59375C33.1078 4.59375 32.8125 4.88906 32.8125 5.25V8.53125C32.8125 8.74781 32.9241 8.95781 33.1078 9.07594ZM29.5312 31.5H26.9062C26.5453 31.5 26.25 31.7953 26.25 32.1562V34.7812C26.25 35.1422 26.5453 35.4375 26.9062 35.4375H29.5312C29.8922 35.4375 30.1875 35.1422 30.1875 34.7812V32.1562C30.1875 31.7953 29.8922 31.5 29.5312 31.5ZM28.875 34.125H27.5625V32.8125H28.875V34.125Z" fill="white"/>
</svg>
