<svg width="42" height="42" viewBox="0 0 42 42" fill="none" xmlns="http://www.w3.org/2000/svg">
<g clip-path="url(#clip0_27151_627)">
<path d="M35.9481 21.9907C35.8322 21.9451 33.0707 20.8716 29.7726 20.6733C26.6772 20.4867 24.1264 21.1313 22.2306 22.5541V41.9814C23.6109 39.7811 26.0776 38.7655 29.5703 38.9635C32.4877 39.1289 35.0233 40.1087 35.0474 40.1181C35.2339 40.1915 35.4356 40.2182 35.6349 40.1959C35.8341 40.1735 36.0249 40.1029 36.1906 39.99C36.3563 39.8771 36.4919 39.7255 36.5856 39.5482C36.6793 39.371 36.7283 39.1735 36.7283 38.973V23.1358C36.7283 22.8886 36.6538 22.6472 36.5147 22.443C36.3755 22.2387 36.1781 22.0811 35.9481 21.9907ZM32.6818 32.6103C32.6205 33.2871 32.0217 33.786 31.3454 33.7248C30.0208 33.6048 28.8109 33.6541 27.7493 33.8715C26.8097 34.0635 26.3666 33.2526 26.297 32.9128C26.1607 32.2471 26.59 31.5969 27.2557 31.4605C28.5527 31.195 30.0034 31.1322 31.5674 31.2738C32.2442 31.3352 32.7431 31.9335 32.6818 32.6103ZM32.6818 27.3312C32.6206 28.008 32.0217 28.5069 31.3454 28.4456C30.0222 28.3258 28.8123 28.3754 27.7492 28.5931C26.8095 28.7852 26.3665 27.9741 26.2969 27.6344C26.1606 26.9686 26.5899 26.3184 27.2556 26.1821C28.5542 25.9163 30.0048 25.8533 31.5674 25.9947C32.2441 26.056 32.7431 26.6543 32.6818 27.3312ZM12.2276 20.6733C8.92953 20.8716 6.16803 21.9451 6.05212 21.9907C5.82212 22.0811 5.62469 22.2387 5.48554 22.443C5.34639 22.6472 5.27198 22.8886 5.272 23.1358V38.9731C5.272 39.1736 5.32099 39.3711 5.4147 39.5483C5.50841 39.7255 5.64402 39.8772 5.80971 39.9901C5.97541 40.1029 6.16617 40.1736 6.36541 40.196C6.56465 40.2183 6.76633 40.1916 6.9529 40.1182C6.97768 40.1084 9.46289 39.1421 12.3755 38.9667C15.8964 38.7548 18.3819 39.7692 19.7697 41.9815V22.5542C17.8737 21.1314 15.3227 20.4871 12.2276 20.6733ZM15.7033 32.9128C15.6337 33.2525 15.1906 34.0635 14.251 33.8715C13.1894 33.6542 11.9795 33.6048 10.6549 33.7248C9.97862 33.786 9.37971 33.2872 9.31844 32.6103C9.25716 31.9335 9.75607 31.3352 10.4329 31.2738C11.9969 31.1322 13.4476 31.195 14.7446 31.4605C15.4103 31.5969 15.8396 32.2471 15.7033 32.9128ZM15.7033 27.6343C15.6337 27.9741 15.1906 28.7851 14.251 28.593C13.1879 28.3753 11.978 28.3257 10.6548 28.4456C9.0255 28.5322 8.81509 26.2014 10.4328 25.9946C11.9954 25.8532 13.446 25.9162 14.7446 26.182C15.4103 26.3183 15.8396 26.9686 15.7033 27.6343ZM21.0001 10.4377C23.8829 10.4377 26.2282 8.09238 26.2282 5.20964C25.9654 -1.71667 16.0337 -1.71478 15.7719 5.20972C15.772 8.09238 18.1173 10.4377 21.0001 10.4377ZM7.82038 13.7313C10.7032 13.7313 13.0485 11.3859 13.0485 8.50319C12.7857 1.57688 2.85405 1.57877 2.59229 8.50328C2.59229 11.386 4.93756 13.7313 7.82038 13.7313ZM34.1798 13.7313C37.0626 13.7313 39.4079 11.3859 39.4079 8.50319C39.1451 1.57688 29.2134 1.57877 28.9516 8.50328C28.9517 11.386 31.297 13.7313 34.1798 13.7313ZM28.8204 16.1755C28.8204 14.1983 27.7217 12.4213 25.9536 11.5382L25.6047 11.3638C23.0465 13.3894 18.9546 13.3895 16.3964 11.3645L16.0448 11.5404C14.2776 12.4249 13.1797 14.2017 13.1797 16.1775V18.1815C15.3591 18.1741 18.3682 18.5502 21 20.4074C23.6318 18.5499 26.6402 18.1739 28.8204 18.1814V16.1755Z" fill="#1A72F5"/>
<path d="M39.1333 14.8306L38.7843 14.6562C36.7767 16.2343 33.6526 16.6564 31.261 15.6152C31.2744 15.8002 31.2813 15.9867 31.2813 16.1745V18.3415C34.2632 18.7095 36.5628 19.5871 36.8485 19.6994C38.2704 20.2586 39.189 21.607 39.189 23.1347V26.1647H40.7695C41.4491 26.1647 42 25.6138 42 24.9343V19.468C42 17.4908 40.9014 15.7138 39.1333 14.8306ZM10.7187 16.1764C10.7187 15.9879 10.7257 15.8007 10.7391 15.6151C8.34758 16.6563 5.22449 16.2344 3.21661 14.657L2.86494 14.8329C1.09782 15.7172 0 17.4941 0 19.4699V24.9343C0 25.6138 0.550922 26.1647 1.23047 26.1647H2.81096V23.1347C2.81096 21.607 3.72963 20.2586 5.1514 19.6994C5.4372 19.5871 7.7367 18.7096 10.7187 18.3416V16.1764Z" fill="#1A72F5"/>
</g>
<defs>
<clipPath id="clip0_27151_627">
<rect width="42" height="42" fill="white"/>
</clipPath>
</defs>
</svg>
