<svg width="42" height="42" viewBox="0 0 42 42" fill="none" xmlns="http://www.w3.org/2000/svg">
<g clip-path="url(#clip0_26080_2042)">
<path d="M24.5775 8.36894C24.5299 7.47308 24.1386 6.65194 23.4769 6.05779L22.6913 5.34781C22.5657 5.23436 22.4043 5.17924 22.2302 5.18375C22.061 5.19253 21.9021 5.26791 21.7886 5.39375L17.2456 10.4273H8.51826C4.23057 10.4273 0.742188 13.9156 0.742188 18.2033V24.8958C0.742188 26.7256 2.20997 28.2182 4.0268 28.2511V37.8232C3.23028 38.091 2.65417 38.8432 2.65417 39.7288V40.2118C2.65417 40.7888 3.12733 41.2576 3.7095 41.2576H15.5894C16.1663 41.2576 16.6352 40.7887 16.6352 40.2118V39.7288C16.6352 38.8432 16.0591 38.0909 15.2625 37.8232V15.482H18.4102C19.1283 15.482 19.7557 15.2008 20.2194 14.6748L23.7228 10.7925C24.3212 10.1264 24.6248 9.26538 24.5775 8.36894ZM22.7728 9.93754L19.2655 13.8244C19.0402 14.0801 18.7604 14.2043 18.4101 14.2043H14.6237C14.2709 14.2043 13.9848 14.4903 13.9848 14.8432V37.7175H12.456C12.1032 37.7175 11.8171 38.0035 11.8171 38.3564C11.8171 38.7093 12.1031 38.9952 12.456 38.9952H14.6237C15.0281 38.9952 15.3574 39.3246 15.3574 39.729V39.9801H10.2835V29.2882C10.2835 28.9354 9.99753 28.6494 9.64463 28.6494C9.29181 28.6494 9.00577 28.9353 9.00577 29.2882V39.9801H3.93181V39.729C3.93181 39.3315 4.26805 38.9952 4.66558 38.9952H6.83325C7.18607 38.9952 7.47211 38.7093 7.47211 38.3564C7.47211 38.0035 7.18615 37.7175 6.83325 37.7175H5.30444V16.5566C5.30444 16.2037 5.01848 15.9177 4.66558 15.9177C4.31268 15.9177 4.02672 16.2037 4.02672 16.5566V26.9729C2.9147 26.9402 2.01982 26.021 2.01982 24.8959V18.2034C2.01982 14.6201 4.93489 11.705 8.51826 11.705H17.5296C17.7103 11.705 17.8828 11.6284 18.0038 11.4943L22.3088 6.72462L22.6215 7.00739C23.0304 7.37456 23.2721 7.882 23.3011 8.43637C23.3305 8.99246 23.1427 9.52599 22.7728 9.93754ZM33.8205 31.2051H31.6623C27.5572 31.2051 24.2176 34.5406 24.2176 38.6404V40.619C24.2176 40.9718 24.5035 41.2578 24.8564 41.2578H40.6173C40.9701 41.2578 41.2562 40.9719 41.2562 40.619V38.6404C41.2561 34.5406 37.9207 31.2051 33.8205 31.2051ZM39.9785 39.9801H38.1229V37.0692C38.1229 36.7164 37.837 36.4304 37.4841 36.4304C37.1312 36.4304 36.8452 36.7163 36.8452 37.0692V39.9801H28.6285V37.0692C28.6285 36.7164 28.3425 36.4304 27.9896 36.4304C27.6368 36.4304 27.3507 36.7163 27.3507 37.0692V39.9801H25.4952V38.6404C25.4952 35.2453 28.2619 32.4828 31.6623 32.4828H33.8205C37.2159 32.4828 39.9784 35.2453 39.9784 38.6404L39.9785 39.9801ZM28.5007 6.906H30.1054V18.3929C30.1054 18.7457 30.3914 19.0318 30.7443 19.0318H34.7388C35.0916 19.0318 35.3777 18.7458 35.3777 18.3929V6.906H36.9727C37.2228 6.906 37.4498 6.76023 37.5538 6.53292C37.6578 6.30561 37.6197 6.03852 37.4559 5.84935L33.2247 0.955449C33.1034 0.81493 32.9273 0.734375 32.7418 0.734375C32.5565 0.734375 32.3798 0.814602 32.2584 0.954793L28.0177 5.8487C27.8539 6.03786 27.8155 6.30495 27.9195 6.53259C28.0232 6.76023 28.2505 6.906 28.5007 6.906ZM32.7408 2.34957L35.5757 5.62828H34.7389C34.3861 5.62828 34.1 5.91424 34.1 6.26714V17.7541H31.3832V6.26714C31.3832 5.91432 31.0973 5.62828 30.7444 5.62828H29.8998L32.7408 2.34957Z" fill="white"/>
<circle cx="10.1516" cy="5.25313" r="3.55" stroke="#1F76F9" stroke-width="2"/>
<circle cx="32.55" cy="25.55" r="3.55" stroke="#1F76F9" stroke-width="2"/>
</g>
<defs>
<clipPath id="clip0_26080_2042">
<rect width="42" height="42" fill="white"/>
</clipPath>
</defs>
</svg>
