<svg width="60" height="60" viewBox="0 0 60 60" fill="none" xmlns="http://www.w3.org/2000/svg">
<path d="M49.824 30.4682C49.1353 30.4214 48.5393 30.9417 48.4925 31.6303C47.8713 42.1911 39.1324 50.4409 28.5535 50.4535H10.3209L14.4104 46.3642C14.8983 45.8761 14.8986 45.0844 14.4104 44.5966C10.6606 40.846 8.55382 35.7598 8.55351 30.4561C8.55275 19.4097 17.5071 10.4543 28.5535 10.4536C29.7371 10.4572 30.9179 10.5685 32.0813 10.7856C32.761 10.9083 33.4113 10.4569 33.534 9.77728C33.6567 9.09766 33.2053 8.44733 32.5257 8.32465C25.6604 7.06061 18.5978 9.06058 13.4147 13.7366C4.20521 22.0453 3.47493 36.2465 11.7835 45.456L6.41972 50.8198C6.18535 51.0541 6.05366 51.372 6.05366 51.7034C6.05351 52.3937 6.6132 52.9534 7.30351 52.9536H28.5535C40.4558 52.9401 50.2884 43.6587 50.9874 31.7768C51.0212 31.0964 50.5037 30.5143 49.824 30.4682Z" fill="white"/>
<path d="M54.9736 8.52197C54.8322 7.84601 54.1696 7.41266 53.4937 7.55395C51.2271 8.02957 48.8649 7.54816 46.9653 6.22339C46.5349 5.92554 45.9651 5.92554 45.5347 6.22339C43.6353 7.54831 41.2729 8.02988 39.0063 7.55395C38.9224 7.53641 38.837 7.52756 38.7512 7.52756C38.0606 7.5271 37.5005 8.08649 37.5 8.7771V16.675C37.5023 19.9038 39.0613 22.9334 41.687 24.8124L45.5225 27.554C45.7352 27.7046 45.9894 27.7856 46.25 27.7859C46.5106 27.7856 46.7648 27.7046 46.9775 27.554L50.8105 24.8124C53.4378 22.9345 54.9979 19.9044 55 16.675V8.7771C55 8.69135 54.9911 8.6059 54.9736 8.52197ZM52.5 16.675C52.4983 19.0966 51.3283 21.3685 49.3579 22.7761L46.25 25.0002L43.1396 22.7761C41.1708 21.3674 40.0018 19.096 40 16.675V10.2102C42.1848 10.3619 44.3642 9.84674 46.25 8.73315C48.1354 9.84796 50.3151 10.3631 52.5 10.2102V16.675Z" fill="#E7398A"/>
</svg>
