<svg width="41" height="37" viewBox="0 0 41 37" fill="none" xmlns="http://www.w3.org/2000/svg">
<path d="M9.03863 29.2311C9.26006 29.4866 9.53019 29.6953 9.83323 29.8452C10.1363 29.995 10.4661 30.083 10.8036 30.1038C11.141 30.1247 11.4792 30.0781 11.7984 29.9668C12.1176 29.8555 12.4114 29.6816 12.6626 29.4554C12.9139 29.2292 13.1175 28.9552 13.2616 28.6494C13.4057 28.3436 13.4874 28.0121 13.502 27.6743C13.5165 27.3366 13.4635 26.9993 13.3462 26.6823C13.2289 26.3652 13.0495 26.0747 12.8186 25.8278L5.96476 18.2153L12.816 10.6028C13.2668 10.1012 13.5003 9.44132 13.4651 8.76785C13.4299 8.09437 13.129 7.46236 12.6283 7.01051C12.3811 6.78564 12.0914 6.61245 11.7763 6.50111C11.4612 6.38977 11.1271 6.34251 10.7934 6.36213C10.46 6.37849 10.1331 6.4608 9.83166 6.60431C9.53022 6.74781 9.26024 6.94967 9.03732 7.19819L0.654382 16.5143C0.233163 16.981 0 17.5873 0 18.216C0 18.8446 0.233163 19.451 0.654382 19.9176L9.03863 29.2311ZM31.6504 7.19819C31.1986 6.69795 30.5668 6.39728 29.8937 6.3621C29.2205 6.32692 28.5609 6.56009 28.0594 7.01051C27.5591 7.46255 27.2584 8.09451 27.2232 8.76788C27.188 9.44125 27.4212 10.1011 27.8717 10.6028L34.7229 18.2153L27.8717 25.8278C27.4353 26.3313 27.2138 26.9859 27.255 27.651C27.2961 28.316 27.5966 28.9384 28.0918 29.3842C28.587 29.83 29.2373 30.0638 29.903 30.0352C30.5687 30.0065 31.1966 29.7178 31.6517 29.2311L40.0346 19.9163C40.4558 19.4499 40.6889 18.8438 40.6889 18.2153C40.6889 17.5869 40.4558 16.9808 40.0346 16.5143L31.6504 7.19819ZM24.7991 0.0713192H24.7965C24.142 -0.0868327 23.4516 0.0203962 22.8759 0.369591C22.3002 0.718786 21.8861 1.28158 21.7239 1.93507L14.0274 33.2841C13.9363 33.6585 13.9313 34.0487 14.0128 34.4253C14.0943 34.8019 14.2602 35.155 14.498 35.4582C14.7359 35.7613 15.0394 36.0066 15.3858 36.1754C15.7321 36.3442 16.1123 36.4322 16.4976 36.4328C17.6709 36.4328 18.6855 35.6361 18.9651 34.4956L26.6616 3.14651C26.8213 2.4918 26.7149 1.80049 26.3658 1.22406C26.0167 0.64763 25.4533 0.233104 24.7991 0.0713192Z" fill="#33BE31"/>
</svg>
