<svg width="42" height="42" viewBox="0 0 42 42" fill="none" xmlns="http://www.w3.org/2000/svg">
<path d="M18.0593 12.8622L21.0001 11.643L23.9409 12.8622C24.1354 12.9426 24.3474 12.9718 24.5564 12.9471C24.7655 12.9224 24.9648 12.8446 25.1352 12.7211C25.3055 12.5971 25.4411 12.4315 25.5291 12.2402C25.6171 12.0489 25.6547 11.8382 25.6381 11.6283L25.3879 8.45473L27.4559 6.03357C27.5926 5.87353 27.686 5.6811 27.7271 5.47467C27.7681 5.26823 27.7555 5.05472 27.6905 4.85454C27.6257 4.6541 27.5103 4.47371 27.3556 4.33074C27.2009 4.18777 27.012 4.08701 26.807 4.03816L23.712 3.2948L22.0492 0.579889C21.6066 -0.193337 20.3934 -0.193255 19.9509 0.579889L18.2881 3.2948L15.1931 4.03816C14.9881 4.08701 14.7992 4.18777 14.6445 4.33074C14.4898 4.47371 14.3744 4.6541 14.3096 4.85454C14.2446 5.05472 14.232 5.26823 14.2731 5.47467C14.3141 5.6811 14.4075 5.87353 14.5442 6.03357L16.6122 8.45473L16.362 11.6283C16.3454 11.8382 16.383 12.0489 16.471 12.2402C16.559 12.4315 16.6946 12.5971 16.8649 12.7211C17.0353 12.8447 17.2346 12.9226 17.4437 12.9473C17.6528 12.972 17.8647 12.9427 18.0593 12.8622ZM41.9399 9.6952C41.8751 9.49476 41.7597 9.31438 41.605 9.1714C41.4503 9.02843 41.2614 8.92767 41.0564 8.87883L37.9614 8.13546L36.2986 5.42055C36.1886 5.24107 36.0344 5.09281 35.8507 4.98996C35.667 4.88711 35.46 4.8331 35.2495 4.8331C35.0389 4.8331 34.8319 4.88711 34.6482 4.98996C34.4645 5.09281 34.3103 5.24107 34.2003 5.42055L32.5375 8.13546L29.4425 8.87883C29.2375 8.92767 29.0486 9.02843 28.8939 9.1714C28.7392 9.31438 28.6238 9.49476 28.559 9.6952C28.494 9.89538 28.4814 10.1089 28.5225 10.3153C28.5635 10.5218 28.6569 10.7142 28.7936 10.8742L30.8616 13.2954L30.6114 16.4689C30.5948 16.6789 30.6324 16.8896 30.7204 17.0809C30.8084 17.2722 30.944 17.4378 31.1143 17.5618C31.2847 17.6854 31.484 17.7633 31.6931 17.788C31.9022 17.8127 32.1141 17.7834 32.3086 17.7028L35.2495 16.4836L38.1903 17.7028C38.3848 17.7832 38.5968 17.8125 38.8058 17.7878C39.0149 17.7631 39.2142 17.6853 39.3847 17.5618C39.5549 17.4377 39.6905 17.2722 39.7785 17.0809C39.8665 16.8896 39.9041 16.6789 39.8875 16.4689L39.6373 13.2954L41.7053 10.8742C41.842 10.7142 41.9354 10.5218 41.9765 10.3153C42.0175 10.1089 42.005 9.89538 41.9399 9.6952ZM10.1623 17.7964C10.4183 17.7964 10.6717 17.7169 10.8858 17.5618C11.0561 17.4378 11.1917 17.2723 11.2797 17.081C11.3677 16.8896 11.4053 16.679 11.3887 16.469L11.1385 13.2955L13.2065 10.8743C13.3432 10.7143 13.4366 10.5218 13.4776 10.3154C13.5187 10.109 13.5061 9.89546 13.4411 9.69528C13.3763 9.49484 13.2609 9.31446 13.1062 9.17148C12.9515 9.02851 12.7626 8.92775 12.5576 8.87891L9.4626 8.13554L7.79983 5.42064C7.6898 5.24115 7.53557 5.09289 7.35187 4.99004C7.16818 4.88719 6.96118 4.83318 6.75065 4.83318C6.54012 4.83318 6.33312 4.88719 6.14943 4.99004C5.96574 5.09289 5.8115 5.24115 5.70147 5.42064L4.0387 8.13554L0.943659 8.87891C0.738729 8.92775 0.549817 9.02851 0.39509 9.17148C0.240364 9.31446 0.12503 9.49484 0.0601821 9.69528C-0.00484567 9.89546 -0.0174229 10.109 0.0236535 10.3154C0.0647299 10.5218 0.158086 10.7143 0.294791 10.8743L2.3628 13.2955L2.1126 16.469C2.09604 16.679 2.13356 16.8896 2.2216 17.081C2.30963 17.2723 2.44523 17.4378 2.61546 17.5618C2.78588 17.6855 2.98515 17.7634 3.19425 17.7881C3.40335 17.8128 3.61529 17.7835 3.80983 17.7029L6.75065 16.4837L9.69147 17.7029C9.84323 17.7653 10.0032 17.7964 10.1623 17.7964ZM35.4851 29.5985L34.0291 37.9436C33.6632 40.0329 31.8495 41.557 29.729 41.557H21.3315C20.7503 41.5565 20.1748 41.4423 19.6375 41.2207C19.1051 40.9992 18.6154 40.676 18.2011 40.2609C18.1757 40.2355 18.1495 40.2101 18.1232 40.1847V26.323L18.179 26.3033C18.7634 26.0936 19.2922 25.7531 19.725 25.3079C20.1578 24.8626 20.4831 24.3243 20.676 23.7341L21.4102 21.3847L22.3995 18.2192C22.6907 17.3291 23.6472 16.8443 24.5381 17.1355C26.1688 17.6671 27.2057 19.183 27.2057 20.8097C27.2057 21.2084 27.1434 21.6136 27.0121 22.0123L25.9096 25.6299H32.1497C34.253 25.6299 35.8477 27.5272 35.4851 29.5985ZM14.439 42H8.74319C8.0675 42 7.51978 41.4523 7.51978 40.7766V26.0253C7.51978 25.3496 8.0675 24.8019 8.74319 24.8019H14.439C15.1147 24.8019 15.6624 25.3496 15.6624 26.0253V40.7766C15.6624 41.4523 15.1147 42 14.439 42Z" fill="#7E23FB"/>
</svg>
