<svg width="943" height="1212" viewBox="0 0 943 1212" fill="none" xmlns="http://www.w3.org/2000/svg">
<path d="M936 1484C936 1096.6 936 -168 936 -168" stroke="#E5E7EB" stroke-width="2"/>
<path d="M942.125 123.961H936.875V118.711C936.875 118.479 936.783 118.256 936.619 118.092C936.455 117.928 936.232 117.836 936 117.836C935.768 117.836 935.545 117.928 935.381 118.092C935.217 118.256 935.125 118.479 935.125 118.711V123.961H929.875C929.643 123.961 929.42 124.053 929.256 124.217C929.092 124.381 929 124.604 929 124.836C929 125.068 929.092 125.291 929.256 125.455C929.42 125.619 929.643 125.711 929.875 125.711H935.125V130.961C935.125 131.193 935.217 131.416 935.381 131.58C935.545 131.744 935.768 131.836 936 131.836C936.232 131.836 936.455 131.744 936.619 131.58C936.783 131.416 936.875 131.193 936.875 130.961V125.711H942.125C942.357 125.711 942.58 125.619 942.744 125.455C942.908 125.291 943 125.068 943 124.836C943 124.604 942.908 124.381 942.744 124.217C942.58 124.053 942.357 123.961 942.125 123.961Z" fill="#94A3B8"/>
<path d="M942.125 418.961H936.875V413.711C936.875 413.479 936.783 413.256 936.619 413.092C936.455 412.928 936.232 412.836 936 412.836C935.768 412.836 935.545 412.928 935.381 413.092C935.217 413.256 935.125 413.479 935.125 413.711V418.961H929.875C929.643 418.961 929.42 419.053 929.256 419.217C929.092 419.381 929 419.604 929 419.836C929 420.068 929.092 420.291 929.256 420.455C929.42 420.619 929.643 420.711 929.875 420.711H935.125V425.961C935.125 426.193 935.217 426.416 935.381 426.58C935.545 426.744 935.768 426.836 936 426.836C936.232 426.836 936.455 426.744 936.619 426.58C936.783 426.416 936.875 426.193 936.875 425.961V420.711H942.125C942.357 420.711 942.58 420.619 942.744 420.455C942.908 420.291 943 420.068 943 419.836C943 419.604 942.908 419.381 942.744 419.217C942.58 419.053 942.357 418.961 942.125 418.961Z" fill="#94A3B8"/>
<path d="M942.125 713.961H936.875V708.711C936.875 708.479 936.783 708.256 936.619 708.092C936.455 707.928 936.232 707.836 936 707.836C935.768 707.836 935.545 707.928 935.381 708.092C935.217 708.256 935.125 708.479 935.125 708.711V713.961H929.875C929.643 713.961 929.42 714.053 929.256 714.217C929.092 714.381 929 714.604 929 714.836C929 715.068 929.092 715.291 929.256 715.455C929.42 715.619 929.643 715.711 929.875 715.711H935.125V720.961C935.125 721.193 935.217 721.416 935.381 721.58C935.545 721.744 935.768 721.836 936 721.836C936.232 721.836 936.455 721.744 936.619 721.58C936.783 721.416 936.875 721.193 936.875 720.961V715.711H942.125C942.357 715.711 942.58 715.619 942.744 715.455C942.908 715.291 943 715.068 943 714.836C943 714.604 942.908 714.381 942.744 714.217C942.58 714.053 942.357 713.961 942.125 713.961Z" fill="#94A3B8"/>
<path d="M942.125 1008.96H936.875V1003.71C936.875 1003.48 936.783 1003.26 936.619 1003.09C936.455 1002.93 936.232 1002.84 936 1002.84C935.768 1002.84 935.545 1002.93 935.381 1003.09C935.217 1003.26 935.125 1003.48 935.125 1003.71V1008.96H929.875C929.643 1008.96 929.42 1009.05 929.256 1009.22C929.092 1009.38 929 1009.6 929 1009.84C929 1010.07 929.092 1010.29 929.256 1010.45C929.42 1010.62 929.643 1010.71 929.875 1010.71H935.125V1015.96C935.125 1016.19 935.217 1016.42 935.381 1016.58C935.545 1016.74 935.768 1016.84 936 1016.84C936.232 1016.84 936.455 1016.74 936.619 1016.58C936.783 1016.42 936.875 1016.19 936.875 1015.96V1010.71H942.125C942.357 1010.71 942.58 1010.62 942.744 1010.45C942.908 1010.29 943 1010.07 943 1009.84C943 1009.6 942.908 1009.38 942.744 1009.22C942.58 1009.05 942.357 1008.96 942.125 1008.96Z" fill="#94A3B8"/>
<path d="M7 1484C7 1096.6 7 -168 7 -168" stroke="#E5E7EB" stroke-width="2"/>
<path d="M13.125 123.961H7.875V118.711C7.875 118.479 7.78281 118.256 7.61872 118.092C7.45462 117.928 7.23206 117.836 7 117.836C6.76794 117.836 6.54538 117.928 6.38128 118.092C6.21719 118.256 6.125 118.479 6.125 118.711V123.961H0.875C0.642936 123.961 0.420376 124.053 0.256282 124.217C0.0921874 124.381 0 124.604 0 124.836C0 125.068 0.0921874 125.291 0.256282 125.455C0.420376 125.619 0.642936 125.711 0.875 125.711H6.125V130.961C6.125 131.193 6.21719 131.416 6.38128 131.58C6.54538 131.744 6.76794 131.836 7 131.836C7.23206 131.836 7.45462 131.744 7.61872 131.58C7.78281 131.416 7.875 131.193 7.875 130.961V125.711H13.125C13.3571 125.711 13.5796 125.619 13.7437 125.455C13.9078 125.291 14 125.068 14 124.836C14 124.604 13.9078 124.381 13.7437 124.217C13.5796 124.053 13.3571 123.961 13.125 123.961Z" fill="#94A3B8"/>
<path d="M13.125 418.961H7.875V413.711C7.875 413.479 7.78281 413.256 7.61872 413.092C7.45462 412.928 7.23206 412.836 7 412.836C6.76794 412.836 6.54538 412.928 6.38128 413.092C6.21719 413.256 6.125 413.479 6.125 413.711V418.961H0.875C0.642936 418.961 0.420376 419.053 0.256282 419.217C0.0921874 419.381 0 419.604 0 419.836C0 420.068 0.0921874 420.291 0.256282 420.455C0.420376 420.619 0.642936 420.711 0.875 420.711H6.125V425.961C6.125 426.193 6.21719 426.416 6.38128 426.58C6.54538 426.744 6.76794 426.836 7 426.836C7.23206 426.836 7.45462 426.744 7.61872 426.58C7.78281 426.416 7.875 426.193 7.875 425.961V420.711H13.125C13.3571 420.711 13.5796 420.619 13.7437 420.455C13.9078 420.291 14 420.068 14 419.836C14 419.604 13.9078 419.381 13.7437 419.217C13.5796 419.053 13.3571 418.961 13.125 418.961Z" fill="#94A3B8"/>
<path d="M13.125 713.961H7.875V708.711C7.875 708.479 7.78281 708.256 7.61872 708.092C7.45462 707.928 7.23206 707.836 7 707.836C6.76794 707.836 6.54538 707.928 6.38128 708.092C6.21719 708.256 6.125 708.479 6.125 708.711V713.961H0.875C0.642936 713.961 0.420376 714.053 0.256282 714.217C0.0921874 714.381 0 714.604 0 714.836C0 715.068 0.0921874 715.291 0.256282 715.455C0.420376 715.619 0.642936 715.711 0.875 715.711H6.125V720.961C6.125 721.193 6.21719 721.416 6.38128 721.58C6.54538 721.744 6.76794 721.836 7 721.836C7.23206 721.836 7.45462 721.744 7.61872 721.58C7.78281 721.416 7.875 721.193 7.875 720.961V715.711H13.125C13.3571 715.711 13.5796 715.619 13.7437 715.455C13.9078 715.291 14 715.068 14 714.836C14 714.604 13.9078 714.381 13.7437 714.217C13.5796 714.053 13.3571 713.961 13.125 713.961Z" fill="#94A3B8"/>
<path d="M13.125 1008.96H7.875V1003.71C7.875 1003.48 7.78281 1003.26 7.61872 1003.09C7.45462 1002.93 7.23206 1002.84 7 1002.84C6.76794 1002.84 6.54538 1002.93 6.38128 1003.09C6.21719 1003.26 6.125 1003.48 6.125 1003.71V1008.96H0.875C0.642936 1008.96 0.420376 1009.05 0.256282 1009.22C0.0921874 1009.38 0 1009.6 0 1009.84C0 1010.07 0.0921874 1010.29 0.256282 1010.45C0.420376 1010.62 0.642936 1010.71 0.875 1010.71H6.125V1015.96C6.125 1016.19 6.21719 1016.42 6.38128 1016.58C6.54538 1016.74 6.76794 1016.84 7 1016.84C7.23206 1016.84 7.45462 1016.74 7.61872 1016.58C7.78281 1016.42 7.875 1016.19 7.875 1015.96V1010.71H13.125C13.3571 1010.71 13.5796 1010.62 13.7437 1010.45C13.9078 1010.29 14 1010.07 14 1009.84C14 1009.6 13.9078 1009.38 13.7437 1009.22C13.5796 1009.05 13.3571 1008.96 13.125 1008.96Z" fill="#94A3B8"/>
</svg>
