<svg width="50" height="50" viewBox="0 0 50 50" fill="none" xmlns="http://www.w3.org/2000/svg">
<path d="M44.9416 19.2607C42.6984 19.2607 40.8419 20.8851 40.3778 22.9736L34.6538 22.3548C34.4991 21.6586 34.1897 21.0398 33.6482 20.4983C34.4217 18.1778 33.0294 15.7025 30.4768 15.0063C30.5541 14.0781 30.1673 13.2272 29.5485 12.5311L32.72 8.7408C33.4935 9.20491 34.3444 9.51432 35.3499 9.51432C37.9799 9.51432 40.0684 7.34846 40.0684 4.79583C40.0684 2.24321 37.9799 0 35.3499 0C32.72 0 30.5541 2.16586 30.5541 4.71848C30.5541 5.80141 30.9409 6.80699 31.5597 7.65786C29.8579 9.74637 28.4656 11.3708 28.3109 11.6028C27.7694 11.3708 27.228 11.2161 26.6091 11.2161C25.4489 11.2161 24.2886 11.6802 23.5151 12.6858C22.7415 11.6802 21.5813 11.2161 20.421 11.2161C18.3325 11.2161 16.6307 12.7631 16.5534 14.6196L10.3652 9.0502C11.0614 8.12198 11.5255 6.88434 11.5255 5.64671C11.5255 2.55262 8.97285 0 5.87877 0C2.70733 0 0.154704 2.55262 0.154704 5.72406C0.154704 8.8955 2.70733 11.3708 5.87877 11.3708C7.19375 11.3708 8.35403 10.9067 9.28226 10.2105L15.2384 15.6251C13.4593 16.7854 12.7631 18.7966 13.3819 20.5757C12.3763 21.6586 11.9896 23.2057 12.4537 24.6753L7.03905 26.3771C6.34288 25.2942 5.1826 24.5206 3.79026 24.5206C1.70175 24.5206 0 26.2224 0 28.3109C0 30.3994 1.70175 32.1012 3.79026 32.1012C5.87877 32.1012 7.58051 30.3994 7.58051 28.3109C7.58051 28.1562 7.58051 28.0015 7.50316 27.8468L13.2272 26.0677C13.4593 26.2997 13.6913 26.5318 13.9234 26.7639C13.4593 28.9297 14.7743 31.0956 17.1722 31.8691C16.7854 33.5708 17.8684 35.1952 19.5701 35.6594V35.7367L18.9513 39.4496C18.7966 39.4496 18.5645 39.4496 18.4098 39.4496C15.6251 39.4496 13.3819 41.6928 13.3819 44.4775C13.3819 47.2622 15.6251 49.5054 18.4098 49.5054C21.1945 49.5054 23.4377 47.2622 23.4377 44.4775C23.4377 42.389 22.2001 40.6872 20.421 39.8364L21.0398 35.9688C21.0398 35.8914 21.0398 35.8914 21.0398 35.8141C22.0454 35.7367 22.9736 35.2726 23.5151 34.4991C24.1339 35.2726 25.2168 35.8141 26.3771 35.8141C28.6977 35.8141 30.3221 33.8802 29.8579 31.7917C32.2559 31.0956 33.5708 28.8524 33.1067 26.6865C34.035 25.9903 34.5764 24.9848 34.7311 23.9018L40.3005 24.5206C40.6099 26.7639 42.5437 28.3882 44.8643 28.3882C47.4169 28.3882 49.428 26.2997 49.428 23.8245C49.428 21.3492 47.4169 19.2607 44.9416 19.2607ZM3.79026 30.4768C2.55262 30.4768 1.54704 29.4712 1.54704 28.2335C1.54704 26.9959 2.55262 25.9903 3.79026 25.9903C5.02789 25.9903 6.03347 26.9959 6.03347 28.2335C6.03347 29.4712 5.02789 30.4768 3.79026 30.4768ZM21.968 44.4775C21.968 46.4113 20.421 47.9583 18.4872 47.9583C16.5534 47.9583 15.0063 46.4113 15.0063 44.4775C15.0063 42.5437 16.5534 40.9967 18.4872 40.9967C20.3436 40.9193 21.968 42.5437 21.968 44.4775ZM35.3499 1.54704C37.129 1.54704 38.5214 3.01674 38.5214 4.71848C38.5214 6.42023 37.0517 7.88992 35.3499 7.88992C33.5708 7.88992 32.1012 6.42023 32.1012 4.71848C32.1012 3.01674 33.5708 1.54704 35.3499 1.54704ZM1.70175 5.72406C1.70175 3.4035 3.5582 1.54704 5.87877 1.54704C8.12198 1.54704 9.97843 3.4035 9.97843 5.64671C9.97843 7.88992 8.12198 9.74637 5.87877 9.74637C3.5582 9.82373 1.70175 7.96727 1.70175 5.72406ZM20.653 34.267C19.0286 34.267 18.1778 32.7973 18.8739 31.7144C19.1833 31.2503 18.8739 30.5541 18.3325 30.4768C16.3987 30.3221 15.0063 28.6203 15.5478 26.9186C15.9345 26.6865 16.9401 26.0677 18.7192 26.145C19.106 26.145 19.4927 25.8356 19.4927 25.3715C19.4927 24.9074 19.1833 24.598 18.7192 24.598C16.7854 24.5206 15.4704 25.1395 14.7743 25.5262C13.3819 24.4433 13.3819 22.5095 14.6969 21.3492C15.0063 21.1171 15.0837 20.7304 14.8516 20.421C14.0781 18.8739 15.0837 16.9401 17.0948 16.476C17.4816 16.8628 18.1778 17.7136 18.4872 18.8739C18.5645 19.2607 19.0286 19.5701 19.4154 19.4154C19.8022 19.338 20.1116 18.8739 19.9569 18.4872C19.5701 16.7854 18.4872 15.6251 18.0231 15.2384C17.7136 14.0007 18.8739 12.8405 20.3436 12.8405C21.5813 12.8405 22.6642 13.6913 22.6642 14.8516V32.4879C22.7415 33.4935 21.8133 34.267 20.653 34.267ZM32.1785 25.4489C31.4823 25.0621 30.1673 24.4433 28.2335 24.5206C27.7694 24.5206 27.46 24.9074 27.46 25.2942C27.46 25.6809 27.8468 26.0677 28.2335 26.0677C30.0126 25.9903 31.0956 26.6091 31.405 26.8412C31.9464 28.543 30.5541 30.2447 28.6203 30.3994C28.0015 30.4768 27.6921 31.0956 28.0788 31.637C28.775 32.72 27.9241 34.1897 26.2997 34.1897C25.1395 34.1897 24.2886 33.4161 24.2886 32.4106C24.2886 30.1673 24.2886 16.6307 24.2886 14.7743C24.2886 13.614 25.3715 12.7631 26.6091 12.7631C28.0788 12.7631 29.1618 13.9234 28.9297 15.161C28.4656 15.6251 27.3053 16.7854 26.9186 18.6419C26.8412 19.106 27.1506 19.5701 27.6921 19.5701C28.0788 19.5701 28.3882 19.338 28.4656 18.9513C28.6977 17.7136 29.4712 16.7854 29.8579 16.3987C31.8691 16.8628 32.8747 18.7192 32.1012 20.3436C31.9464 20.653 32.0238 21.0398 32.2559 21.2718C33.6482 22.5095 33.5708 24.3659 32.1785 25.4489ZM44.9416 26.9186C43.2399 26.9186 41.8475 25.5262 41.8475 23.9018C41.8475 22.2774 43.2399 20.8851 44.9416 20.8851C46.6434 20.8851 47.9583 22.2774 47.9583 23.9018C47.9583 25.5262 46.566 26.9186 44.9416 26.9186Z" fill="#216CFD"/>
</svg>
