<svg width="86" height="86" viewBox="0 0 86 86" fill="none" xmlns="http://www.w3.org/2000/svg">
<path d="M84.2116 2.99529C84.1367 2.70454 83.9851 2.43919 83.7728 2.22687C83.5605 2.01456 83.2952 1.86304 83.0044 1.7881C69.2854 -1.74982 54.8586 -0.00126804 42.3815 6.71026C39.6607 8.17332 37.0647 9.85738 34.6197 11.7455C27.6752 9.26859 19.9504 10.9778 14.691 16.2373L4.17919 26.7484C3.5236 27.4045 3.5236 28.4681 4.17919 29.1243L15.8754 40.8198C15.8754 40.8203 15.876 40.8203 15.876 40.821L17.3844 42.3289L15.9966 52.5251C15.9616 52.7816 15.9863 53.0428 16.069 53.2882C16.1516 53.5337 16.2899 53.7566 16.473 53.9397L17.6948 55.1614L7.65983 65.2566C7.00576 65.9147 7.00896 66.9783 7.66706 67.6317C8.32516 68.2859 9.38874 68.2827 10.0423 67.6251L20.07 57.5366L28.4638 65.9312L14.3203 80.0123C13.6629 80.6671 13.6602 81.7306 14.3144 82.3881C14.4705 82.545 14.6561 82.6695 14.8605 82.7544C15.0648 82.8393 15.284 82.8829 15.5053 82.8827C15.9336 82.8827 16.3621 82.7195 16.6902 82.3933L30.8395 68.3063L32.06 69.5274C32.2432 69.7104 32.4661 69.8486 32.7115 69.9312C32.9569 70.0138 33.2181 70.0386 33.4746 70.0037L43.6708 68.616L45.1792 70.1243C45.1792 70.1243 45.1792 70.125 45.1799 70.125L56.8755 81.8212C57.0313 81.9773 57.2164 82.1011 57.4202 82.1855C57.624 82.2698 57.8425 82.313 58.0631 82.3127C58.2837 82.3131 58.5023 82.2699 58.7062 82.1856C58.9102 82.1012 59.0954 81.9774 59.2513 81.8212L69.7624 71.3094C75.022 66.0499 76.7318 58.3254 74.2542 51.3809C76.1422 48.9357 77.8262 46.3396 79.2894 43.6189C86.0015 31.1411 87.7495 16.7143 84.2116 2.99529ZM16.364 36.5581L7.74281 27.9366L17.0663 18.6132C20.904 14.7748 26.3341 13.229 31.5012 14.3404C24.7706 20.3643 19.5661 27.9565 16.3643 36.5581H16.364ZM33.8467 66.5624L19.4375 52.153L20.3685 45.313L40.6867 65.6312L33.8467 66.5624ZM67.3872 68.9336L58.0631 78.2571L49.4421 69.6356C58.0439 66.4337 65.6354 61.2292 71.6593 54.4987C72.7707 59.6658 71.2249 65.0952 67.3872 68.9336ZM47.0132 66.9381L46.813 67.007L18.9925 39.1867L19.0614 38.9865C27.8522 13.4362 55.006 -1.42632 81.1981 4.80146C87.4253 30.9928 72.5643 58.1475 47.0132 66.9381Z" fill="white" fill-opacity="0.1"/>
<path d="M65.479 18.4635L43.4331 24.3706C43.1483 24.4471 42.8887 24.5972 42.6803 24.8057C42.4719 25.0143 42.322 25.274 42.2457 25.5588C42.1694 25.8436 42.1693 26.1434 42.2455 26.4282C42.3218 26.7131 42.4715 26.9728 42.6799 27.1814L45.9553 30.4562L39.3553 37.0556C38.6997 37.7117 38.6997 38.7753 39.3553 39.4314C40.0114 40.0868 41.075 40.0868 41.731 39.4314L49.5181 31.6439C50.1742 30.9883 50.1742 29.9247 49.5181 29.2686L47.1128 26.8633L63.5388 22.462L59.1375 38.8875L56.7322 36.4822C56.4172 36.1671 55.9901 35.9907 55.5446 35.9907C55.0992 35.9907 54.6712 36.1671 54.3562 36.482L40.9528 49.8861C40.2968 50.5422 40.2968 51.6058 40.9528 52.262C41.1086 52.4181 41.2938 52.5419 41.4976 52.6262C41.7014 52.7105 41.9198 52.7537 42.1404 52.7533C42.361 52.7538 42.5794 52.7106 42.7833 52.6263C42.9871 52.5419 43.1723 52.4182 43.3281 52.262L55.5439 40.0457L58.8187 43.3202C59.0272 43.5287 59.2869 43.6786 59.5717 43.7549C59.8565 43.8313 60.1564 43.8314 60.4412 43.7552C60.726 43.679 60.9857 43.5291 61.1942 43.3207C61.4027 43.1122 61.5526 42.8525 61.6288 42.5677L67.5359 20.5211C67.6124 20.2363 67.6125 19.9364 67.5362 19.6515C67.46 19.3667 67.3101 19.1069 67.1016 18.8984C66.8931 18.6898 66.6334 18.5398 66.3485 18.4635C66.0637 18.3872 65.7638 18.3872 65.479 18.4635ZM16.123 69.8771C15.4676 69.2208 14.404 69.2208 13.7479 69.8771L0.49219 83.1328C-0.164063 83.7882 -0.164063 84.8518 0.49219 85.5079C0.820233 85.836 1.24973 86.0001 1.67973 86.0001C2.10973 86.0001 2.5399 85.836 2.86727 85.5079L16.123 72.2522C16.7793 71.5967 16.7793 70.5332 16.123 69.8771ZM4.22815 72.7436C4.66974 72.7436 5.10277 72.5659 5.41569 72.2515C5.72811 71.9392 5.90784 71.5074 5.90784 71.0639C5.90629 70.619 5.72947 70.1926 5.41569 69.8771C5.1001 69.563 4.67342 69.3859 4.22815 69.3843C3.78471 69.3843 3.35287 69.564 3.04061 69.8771C2.72684 70.1926 2.55002 70.619 2.54846 71.0639C2.54846 71.5074 2.72819 71.9392 3.04061 72.2515C3.35578 72.5662 3.78279 72.7431 4.22815 72.7436ZM33.834 42.5768L33.8195 42.5894C33.1285 43.2093 33.0716 44.2716 33.6915 44.9619C33.849 45.1377 34.0417 45.2783 34.2572 45.3744C34.4727 45.4705 34.7061 45.52 34.9421 45.5196C35.3563 45.5201 35.756 45.3667 36.0634 45.0891L36.0779 45.0767C36.7682 44.4567 36.8258 43.3951 36.2059 42.7049C35.5857 42.0139 34.5242 41.9568 33.834 42.5768Z" fill="white" fill-opacity="0.1"/>
</svg>
