<svg width="52" height="52" viewBox="0 0 52 52" fill="none" xmlns="http://www.w3.org/2000/svg">
<path d="M46.3125 4.0625H5.6875C3.445 4.0625 1.625 5.8825 1.625 8.125V35.75C1.625 37.9925 3.445 39.8125 5.6875 39.8125H18.8581L16.51 44.4031C16.1281 45.1588 16.1606 46.0363 16.5994 46.7594C17.0544 47.4987 17.8425 47.9375 18.72 47.9375H33.2719C34.1494 47.9375 34.9375 47.4987 35.3925 46.7594C35.8312 46.0363 35.8719 45.1588 35.4819 44.4031L33.1337 39.8125H46.3044C48.5469 39.8125 50.3669 37.9925 50.3669 35.75V8.125C50.3669 5.8825 48.5469 4.0625 46.3044 4.0625H46.3125ZM48.75 8.125V33.3125H30.0625V5.6875H46.3125C47.6531 5.6875 48.75 6.78437 48.75 8.125ZM5.6875 5.6875H28.4375V33.3125H3.25V8.125C3.25 6.78437 4.34687 5.6875 5.6875 5.6875ZM34.0356 45.1425C34.2144 45.5 34.0762 45.8006 34.0031 45.9144C33.93 46.0362 33.7106 46.3125 33.2719 46.3125H18.72C18.2812 46.3125 18.0619 46.0281 17.9888 45.9144C17.9183 45.799 17.8783 45.6677 17.8726 45.5326C17.8669 45.3976 17.8957 45.2633 17.9563 45.1425L20.6781 39.8125H31.3056L34.0275 45.1425H34.0356ZM48.75 35.75C48.75 37.0906 47.6531 38.1875 46.3125 38.1875H5.6875C4.34687 38.1875 3.25 37.0906 3.25 35.75V34.9375H48.75V35.75Z" fill="#0064FE"/>
<path d="M7.3125 19.5H25.1875C26.0812 19.5 26.8125 18.7688 26.8125 17.875V9.75C26.8125 8.85625 26.0812 8.125 25.1875 8.125H7.3125C6.41875 8.125 5.6875 8.85625 5.6875 9.75V17.875C5.6875 18.7688 6.41875 19.5 7.3125 19.5ZM7.3125 9.75H25.1875V17.875H7.3125V9.75ZM7.3125 30.875H13.8125C14.7063 30.875 15.4375 30.1437 15.4375 29.25V22.75C15.4375 21.8562 14.7063 21.125 13.8125 21.125H7.3125C6.41875 21.125 5.6875 21.8562 5.6875 22.75V29.25C5.6875 30.1437 6.41875 30.875 7.3125 30.875ZM7.3125 22.75H13.8125V29.25H7.3125V22.75ZM25.1875 21.125H18.6875C17.7937 21.125 17.0625 21.8562 17.0625 22.75V29.25C17.0625 30.1437 17.7937 30.875 18.6875 30.875H25.1875C26.0812 30.875 26.8125 30.1437 26.8125 29.25V22.75C26.8125 21.8562 26.0812 21.125 25.1875 21.125ZM18.6875 29.25V22.75H25.1875V29.25H18.6875ZM45.5 29.25H33.3125C32.8656 29.25 32.5 29.6156 32.5 30.0625C32.5 30.5094 32.8656 30.875 33.3125 30.875H45.5C45.9469 30.875 46.3125 30.5094 46.3125 30.0625C46.3125 29.6156 45.9469 29.25 45.5 29.25ZM45.5 25.1875H33.3125C32.8656 25.1875 32.5 25.5531 32.5 26C32.5 26.4469 32.8656 26.8125 33.3125 26.8125H45.5C45.9469 26.8125 46.3125 26.4469 46.3125 26C46.3125 25.5531 45.9469 25.1875 45.5 25.1875ZM45.5 21.125H33.3125C32.8656 21.125 32.5 21.4906 32.5 21.9375C32.5 22.3844 32.8656 22.75 33.3125 22.75H45.5C45.9469 22.75 46.3125 22.3844 46.3125 21.9375C46.3125 21.4906 45.9469 21.125 45.5 21.125ZM42.575 16.9C42.7213 17.0056 42.8919 17.0625 43.0625 17.0625C43.3063 17.0625 43.55 16.9488 43.7125 16.7375L46.15 13.4875C46.2567 13.3474 46.3146 13.1761 46.3146 13C46.3146 12.8239 46.2567 12.6526 46.15 12.5125L43.7125 9.2625C43.4444 8.905 42.9325 8.83187 42.575 9.1C42.2175 9.36812 42.1444 9.88 42.4125 10.2375L44.4844 13L42.4125 15.7625C42.1444 16.12 42.2175 16.6319 42.575 16.9ZM31.85 13.4875L34.2875 16.7375C34.45 16.9488 34.6938 17.0625 34.9375 17.0625C35.1081 17.0625 35.2787 17.0056 35.425 16.9C35.7825 16.6319 35.8556 16.12 35.5875 15.7625L33.5156 13L35.5875 10.2375C35.8556 9.88 35.7825 9.36812 35.425 9.1C35.0675 8.83187 34.5556 8.905 34.2875 9.2625L31.85 12.5125C31.7433 12.6526 31.6854 12.8239 31.6854 13C31.6854 13.1761 31.7433 13.3474 31.85 13.4875ZM37.9925 17.0381C38.096 17.0645 38.2038 17.0701 38.3095 17.0545C38.4152 17.0389 38.5167 17.0025 38.6082 16.9473C38.6997 16.8921 38.7793 16.8193 38.8423 16.733C38.9054 16.6468 38.9507 16.5489 38.9756 16.445L40.6006 9.945C40.6267 9.84149 40.632 9.73383 40.6163 9.62825C40.6005 9.52267 40.564 9.42125 40.5089 9.32985C40.4538 9.23845 40.3811 9.15888 40.295 9.09572C40.2089 9.03256 40.1112 8.98707 40.0075 8.96187C39.904 8.93488 39.7961 8.92888 39.6902 8.94422C39.5843 8.95957 39.4825 8.99595 39.3909 9.05122C39.2993 9.10649 39.2197 9.17954 39.1567 9.26606C39.0938 9.35258 39.0488 9.45082 39.0244 9.555L37.3994 16.055C37.2937 16.4938 37.5537 16.9325 37.9925 17.0381Z" fill="#0064FE"/>
</svg>
