<svg width="32" height="32" viewBox="0 0 32 32" fill="none" xmlns="http://www.w3.org/2000/svg">
<path d="M16.88 25.627L18.161 29.6C18.291 30.02 18.811 30.15 19.121 29.84C21.051 27.91 24.251 24.66 24.471 22.88C24.575 22.118 24.297 21.104 23.986 20.208C22.116 22.109 19.787 23.955 16.88 25.627ZM11.793 8.01502C10.898 7.70402 9.88303 7.42602 9.12103 7.53002C7.34103 7.75002 4.09103 10.95 2.16103 12.88C1.85103 13.19 1.98103 13.71 2.40103 13.84L6.37403 15.12C8.04603 12.214 9.89203 9.88502 11.793 8.01502ZM9.26203 27.173C6.49603 28.759 3.27203 28.77 3.23203 28.77C3.23203 28.729 3.24203 25.506 4.82903 22.74L9.26203 27.173ZM21.457 8.56702C20.929 8.56702 20.433 8.77302 20.06 9.14602C19.686 9.52002 19.48 10.016 19.48 10.544C19.48 11.072 19.686 11.569 20.06 11.942C20.805 12.69 22.108 12.69 22.855 11.942C23.1301 11.665 23.3171 11.3128 23.3926 10.9298C23.468 10.5468 23.4286 10.15 23.2792 9.78928C23.1298 9.42861 22.8771 9.12015 22.5529 8.90267C22.2287 8.6852 21.8474 8.56842 21.457 8.56702Z" fill="#0064FE"/>
<path d="M28.742 1.99251C24.982 2.06351 13.506 3.55151 6.35 18.3725C6.12 18.8485 6.22 19.4215 6.594 19.7945L12.207 25.4075C12.581 25.7815 13.153 25.8815 13.629 25.6515C28.451 18.4965 29.939 7.02051 30.01 3.26051C30.0138 3.09295 29.9837 2.92635 29.9213 2.77078C29.8589 2.6152 29.7657 2.47389 29.6471 2.35538C29.5286 2.23686 29.3873 2.1436 29.2317 2.08123C29.0762 2.01886 28.9096 1.98868 28.742 1.99251ZM24.128 13.2165C23.414 13.9295 22.466 14.3225 21.457 14.3225C20.448 14.3225 19.499 13.9295 18.786 13.2165C18.073 12.5035 17.68 11.5545 17.68 10.5455C17.68 9.53651 18.074 8.58751 18.786 7.87451C20.212 6.44851 22.7 6.44851 24.128 7.87451C24.835 8.58363 25.232 9.54415 25.232 10.5455C25.232 11.5469 24.835 12.5074 24.128 13.2165Z" fill="#0064FE"/>
</svg>
