<svg width="52" height="52" viewBox="0 0 52 52" fill="none" xmlns="http://www.w3.org/2000/svg">
<path d="M9.74967 20.8516C8.95981 20.8524 8.20255 21.1666 7.64404 21.7251C7.08552 22.2836 6.77137 23.0409 6.77051 23.8307V29.2474C6.77051 30.2896 8.39551 30.3047 8.39551 29.2474V27.8932H11.1038V29.2474C11.1038 30.3026 12.7288 30.2982 12.7288 29.2474V23.8307C12.728 23.0409 12.4138 22.2836 11.8553 21.7251C11.2968 21.1666 10.5395 20.8524 9.74967 20.8516ZM8.39551 26.2682V23.8307C8.4095 23.481 8.55829 23.1502 8.81072 22.9076C9.06314 22.6651 9.39962 22.5297 9.74967 22.5297C10.0997 22.5297 10.4362 22.6651 10.6886 22.9076C10.9411 23.1502 11.0898 23.481 11.1038 23.8307V26.2682H8.39551ZM20.3122 23.8307C20.3113 23.0409 19.9972 22.2836 19.4386 21.7251C18.8801 21.1666 18.1229 20.8524 17.333 20.8516H15.1663C14.9509 20.8516 14.7442 20.9372 14.5918 21.0895C14.4394 21.2419 14.3538 21.4486 14.3538 21.6641V29.2474C14.3538 30.3015 15.9788 30.2982 15.9788 29.2474V26.8099H17.333C18.1229 26.809 18.8801 26.4949 19.4386 25.9364C19.9972 25.3779 20.3113 24.6206 20.3122 23.8307ZM17.333 25.1849H15.9788V22.4766H17.333C17.6828 22.4906 18.0136 22.6393 18.2561 22.8918C18.4986 23.1442 18.6341 23.4807 18.6341 23.8307C18.6341 24.1808 18.4986 24.5173 18.2561 24.7697C18.0136 25.0221 17.6828 25.1709 17.333 25.1849ZM22.7497 20.8776C22.3434 20.8743 21.9372 21.1332 21.9372 21.6641V29.2474C21.9372 30.2906 23.5622 30.3004 23.5622 29.2474V21.6641C23.5622 21.1462 23.1559 20.8808 22.7497 20.8776Z" fill="#7E23FB"/>
<path d="M47.6665 5.6875H4.33317C3.54331 5.68836 2.78605 6.00251 2.22753 6.56103C1.66902 7.11954 1.35486 7.87681 1.354 8.66667V43.3333C1.35486 44.1232 1.66902 44.8805 2.22753 45.439C2.78605 45.9975 3.54331 46.3116 4.33317 46.3125H47.6665C48.4564 46.3116 49.2136 45.9975 49.7721 45.439C50.3307 44.8805 50.6448 44.1232 50.6457 43.3333V8.66667C50.6448 7.87681 50.3307 7.11954 49.7721 6.56103C49.2136 6.00251 48.4564 5.68836 47.6665 5.6875ZM4.33317 7.3125H47.6665C48.414 7.3125 49.0207 7.91917 49.0207 8.66667V14.3542H2.979V8.66667C2.979 7.91917 3.58567 7.3125 4.33317 7.3125ZM47.6665 44.6875H4.33317C3.58567 44.6875 2.979 44.0808 2.979 43.3333V15.9792H49.0207V43.3333C49.0207 44.0808 48.414 44.6875 47.6665 44.6875Z" fill="#7E23FB"/>
<path d="M43.9617 29.3871C44.3964 29.1352 44.7135 28.7212 44.8435 28.2359C44.9735 27.7505 44.9057 27.2334 44.655 26.798L43.2629 24.3854C42.7516 23.5079 41.5513 23.1829 40.6727 23.691C39.9609 24.1026 39.039 23.5653 39.039 22.7474C39.039 21.702 38.1886 20.8516 37.1432 20.8516H34.3568C33.3114 20.8516 32.461 21.702 32.461 22.7474C32.461 23.5707 31.5402 24.1016 30.8273 23.691C30.3907 23.4455 29.8754 23.3805 29.3915 23.5101C28.9076 23.6397 28.4937 23.9535 28.2382 24.3843L26.8439 26.7969C26.5932 27.2323 26.5255 27.7494 26.6554 28.2348C26.7854 28.7201 27.1025 29.1342 27.5373 29.3861C28.2544 29.801 28.2512 30.8626 27.5373 31.2743C27.1025 31.5262 26.7854 31.9402 26.6554 32.4256C26.5255 32.9109 26.5932 33.428 26.8439 33.8635L28.2371 36.2761C28.7517 37.1666 29.9379 37.4861 30.8273 36.9705C31.5423 36.5566 32.461 37.0951 32.461 37.9141C32.461 38.9595 33.3114 39.8099 34.3568 39.8099H37.1432C38.1886 39.8099 39.039 38.9595 39.039 37.9141C39.039 37.0886 39.9566 36.5577 40.6727 36.9705C41.5664 37.4851 42.7505 37.172 43.2618 36.2771L44.6561 33.8646C44.9068 33.4291 44.9746 32.912 44.8446 32.4267C44.7146 31.9413 44.3975 31.5273 43.9628 31.2754C43.2445 30.8605 43.2467 29.7999 43.9617 29.3871ZM43.1492 32.6805C43.1802 32.6982 43.2075 32.7219 43.2293 32.7503C43.2512 32.7786 43.2672 32.811 43.2764 32.8455C43.2857 32.88 43.288 32.9161 43.2833 32.9515C43.2786 32.987 43.2669 33.0212 43.2488 33.0521L41.8557 35.4636C41.8194 35.5256 41.7602 35.5708 41.6909 35.5895C41.6215 35.6081 41.5476 35.5987 41.4852 35.5632C39.7053 34.5351 37.414 35.872 37.414 37.9141C37.414 37.9859 37.3855 38.0548 37.3347 38.1056C37.2839 38.1564 37.215 38.1849 37.1432 38.1849H34.3568C34.285 38.1849 34.2161 38.1564 34.1653 38.1056C34.1145 38.0548 34.086 37.9859 34.086 37.9141C34.086 35.8666 31.7937 34.5341 30.0148 35.5632C29.9524 35.5987 29.8785 35.6081 29.8091 35.5895C29.7398 35.5708 29.6806 35.5256 29.6443 35.4636L28.2512 33.0521C28.2333 33.0212 28.2217 32.9871 28.2171 32.9518C28.2125 32.9165 28.2148 32.8805 28.2241 32.8461C28.2333 32.8117 28.2493 32.7794 28.2711 32.7512C28.2928 32.723 28.3199 32.6993 28.3508 32.6816C30.1221 31.6502 30.1286 29.0058 28.3508 27.9799C28.3199 27.9622 28.2928 27.9385 28.2711 27.9103C28.2493 27.882 28.2333 27.8498 28.2241 27.8153C28.2148 27.7809 28.2125 27.745 28.2171 27.7097C28.2217 27.6743 28.2333 27.6403 28.2512 27.6094L29.6443 25.1979C29.6621 25.167 29.6857 25.1399 29.714 25.1181C29.7422 25.0964 29.7745 25.0804 29.8089 25.0711C29.8433 25.0619 29.8792 25.0595 29.9146 25.0642C29.9499 25.0688 29.984 25.0804 30.0148 25.0982C31.7958 26.1296 34.086 24.7949 34.086 22.7474C34.086 22.6756 34.1145 22.6067 34.1653 22.5559C34.2161 22.5051 34.285 22.4766 34.3568 22.4766H37.1432C37.215 22.4766 37.2839 22.5051 37.3347 22.5559C37.3855 22.6067 37.414 22.6756 37.414 22.7474C37.414 24.7981 39.7053 26.1274 41.4852 25.0982C41.5476 25.0625 41.6216 25.0529 41.691 25.0716C41.7604 25.0903 41.8196 25.1357 41.8557 25.1979L43.2488 27.6094C43.2667 27.6403 43.2783 27.6743 43.2829 27.7097C43.2876 27.745 43.2852 27.7809 43.2759 27.8153C43.2667 27.8498 43.2507 27.882 43.2289 27.9103C43.2072 27.9385 43.1801 27.9622 43.1492 27.9799C41.3855 29.0069 41.3866 31.6621 43.1492 32.6805Z" fill="#7E23FB"/>
<path d="M35.75 26.2734C33.5108 26.2734 31.6875 28.0956 31.6875 30.3359C31.6875 32.5763 33.5108 34.3984 35.75 34.3984C37.9893 34.3984 39.8125 32.5763 39.8125 30.3359C39.8125 28.0956 37.9893 26.2734 35.75 26.2734ZM35.75 32.7734C34.4067 32.7734 33.3125 31.6793 33.3125 30.3359C33.3125 28.9926 34.4067 27.8984 35.75 27.8984C37.0933 27.8984 38.1875 28.9926 38.1875 30.3359C38.1875 31.6793 37.0933 32.7734 35.75 32.7734ZM34.6667 11.6484H45.5C46.54 11.6484 46.5595 10.0234 45.5 10.0234H34.6667C33.631 10.0234 33.6104 11.6484 34.6667 11.6484Z" fill="#7E23FB"/>
<path d="M6.5 11.6484C6.94873 11.6484 7.3125 11.2847 7.3125 10.8359C7.3125 10.3872 6.94873 10.0234 6.5 10.0234C6.05127 10.0234 5.6875 10.3872 5.6875 10.8359C5.6875 11.2847 6.05127 11.6484 6.5 11.6484Z" fill="#7E23FB"/>
<path d="M9.75 11.6484C10.1987 11.6484 10.5625 11.2847 10.5625 10.8359C10.5625 10.3872 10.1987 10.0234 9.75 10.0234C9.30127 10.0234 8.9375 10.3872 8.9375 10.8359C8.9375 11.2847 9.30127 11.6484 9.75 11.6484Z" fill="#7E23FB"/>
<path d="M13 11.6484C13.4487 11.6484 13.8125 11.2847 13.8125 10.8359C13.8125 10.3872 13.4487 10.0234 13 10.0234C12.5513 10.0234 12.1875 10.3872 12.1875 10.8359C12.1875 11.2847 12.5513 11.6484 13 11.6484Z" fill="#7E23FB"/>
<path d="M11.4074 38.429L8.7316 35.7532L11.4074 33.0773C12.1224 32.3623 10.9925 31.1945 10.2591 31.929L7.0091 35.179C6.85695 35.3314 6.77148 35.5379 6.77148 35.7532C6.77148 35.9685 6.85695 36.175 7.0091 36.3273L10.2591 39.5773C10.9774 40.2967 12.1744 39.1949 11.4074 38.429ZM20.0741 31.929C19.3548 31.2086 18.1826 32.3353 18.9258 33.0773L21.6016 35.7532L18.9258 38.429C18.2021 39.1527 19.3418 40.3108 20.0741 39.5773L23.3241 36.3273C23.4763 36.175 23.5617 35.9685 23.5617 35.7532C23.5617 35.5379 23.4763 35.3314 23.3241 35.179L20.0741 31.929ZM16.4883 31.7828C16.1059 31.6463 15.6433 31.7503 15.4797 32.2464L13.313 38.7464C12.9826 39.7344 14.5209 40.2631 14.8535 39.2599L17.0202 32.761C17.1751 32.2963 16.8707 31.9193 16.4883 31.7828Z" fill="#7E23FB"/>
</svg>
