<svg width="41" height="45" viewBox="0 0 41 45" fill="none" xmlns="http://www.w3.org/2000/svg">
<path d="M7.4914 24.9187V24.9212C7.61755 24.9222 7.74217 24.9488 7.85767 24.9995C7.97317 25.0503 8.07713 25.124 8.1632 25.2162C8.24926 25.3084 8.31563 25.4172 8.35826 25.536C8.40088 25.6547 8.41887 25.7809 8.41113 25.9068C8.40338 26.0327 8.37005 26.1557 8.31319 26.2683C8.25633 26.3809 8.17712 26.4807 8.08039 26.5617C7.98367 26.6427 7.87146 26.7031 7.75061 26.7393C7.62976 26.7755 7.50281 26.7867 7.3775 26.7721C5.4808 26.6793 3.68406 25.8939 2.32775 24.5648C0.97144 23.2357 0.14981 21.4553 0.0185601 19.5609C-0.11269 17.6664 0.455561 15.7897 1.61563 14.2863C2.77569 12.7828 4.44696 11.7572 6.31274 11.4037C6.02925 9.0819 6.55466 6.73337 7.80046 4.75373C9.04626 2.77409 10.9363 1.28433 13.1522 0.535427C15.3681 -0.213475 17.7744 -0.175749 19.9657 0.642247C22.157 1.46024 23.9994 3.00852 25.1825 5.02624C26.9564 4.67706 28.7967 5.00508 30.3407 5.94562C31.8846 6.88616 33.0202 8.37099 33.5236 10.1074C35.5603 10.3385 37.4412 11.3094 38.8094 12.8357C40.1775 14.3621 40.9375 16.3377 40.9451 18.3875C40.9528 20.4372 40.2075 22.4184 38.8508 23.955C37.4941 25.4915 35.6204 26.4764 33.5855 26.7226V26.7201C33.4543 26.7376 33.321 26.7268 33.1943 26.6886C33.0677 26.6504 32.9506 26.5856 32.851 26.4985C32.7514 26.4114 32.6715 26.3041 32.6167 26.1837C32.5619 26.0633 32.5334 25.9325 32.5331 25.8002C32.5333 25.5668 32.6215 25.3419 32.78 25.1705C32.9386 24.9991 33.1559 24.8937 33.3886 24.8754C34.9679 24.6772 36.4197 23.907 37.4695 22.7107C38.5193 21.5143 39.0942 19.9747 39.0855 18.3831C39.0769 16.7915 38.4851 15.2582 37.4224 14.0734C36.3596 12.8886 34.8994 12.1343 33.3181 11.9534L32.0849 11.816L31.7395 10.6224C31.3649 9.33236 30.5207 8.22938 29.3733 7.53087C28.2258 6.83236 26.8583 6.58899 25.5404 6.84872L24.249 7.10129L23.5829 5.96719C22.6165 4.3163 21.1103 3.04918 19.3184 2.37952C17.5265 1.70986 15.5585 1.67863 13.7462 2.29111C11.934 2.90358 10.3883 4.12228 9.37005 5.74169C8.35174 7.36109 7.92305 9.28212 8.15626 11.1808L8.3655 12.908L6.65693 13.2286C5.23769 13.5001 3.96738 14.2828 3.08686 15.4285C2.20633 16.5742 1.77679 18.0032 1.87967 19.4445C1.98256 20.8858 2.61071 22.2392 3.64505 23.2482C4.67939 24.2572 6.048 24.8516 7.4914 24.9187Z" fill="#F92327"/>
<path fill-rule="evenodd" clip-rule="evenodd" d="M16.8315 29.4447H15.1848L18.3321 20.6406H20.1025L23.251 29.4447H21.5969L20.8528 27.1691H17.5756L16.8315 29.4447ZM19.2359 22.2081H19.1987L17.973 25.9545H20.4566L19.2359 22.2081Z" fill="#F92327"/>
<path d="M25.7645 29.4447H24.1909V20.6406H25.7645V29.4447Z" fill="#F92327"/>
<path fill-rule="evenodd" clip-rule="evenodd" d="M13.2559 15.3528C12.5992 15.3528 11.9694 15.6137 11.505 16.0781C11.0406 16.5424 10.7798 17.1723 10.7798 17.829V32.2652C10.7798 32.9219 11.0406 33.5517 11.505 34.0161C11.9694 34.4805 12.5992 34.7414 13.2559 34.7414H19.6123V37.069H17.978C17.6497 37.069 17.3348 37.1994 17.1026 37.4316C16.8704 37.6638 16.7399 37.9787 16.7399 38.3071V39.9686H9.89327V38.3071C9.89327 37.9787 9.76283 37.6638 9.53064 37.4316C9.29846 37.1994 8.98354 37.069 8.65518 37.069H3.6607C3.33234 37.069 3.01742 37.1994 2.78524 37.4316C2.55305 37.6638 2.42261 37.9787 2.42261 38.3071V43.3003C2.42261 43.6287 2.55305 43.9436 2.78524 44.1758C3.01742 44.408 3.33234 44.5384 3.6607 44.5384H8.65394C8.9823 44.5384 9.29722 44.408 9.52941 44.1758C9.76159 43.9436 9.89204 43.6287 9.89204 43.3003V41.692H16.7387V43.3003C16.7387 43.6287 16.8691 43.9436 17.1013 44.1758C17.3335 44.408 17.6484 44.5384 17.9768 44.5384H22.97C23.2984 44.5384 23.6133 44.408 23.8455 44.1758C24.0777 43.9436 24.2081 43.6287 24.2081 43.3003V41.692H31.0548V43.3003C31.0548 43.6287 31.1852 43.9436 31.4174 44.1758C31.6496 44.408 31.9645 44.5384 32.2929 44.5384H37.2861C37.6145 44.5384 37.9294 44.408 38.1616 44.1758C38.3938 43.9436 38.5242 43.6287 38.5242 43.3003V38.3071C38.5242 37.9787 38.3938 37.6638 38.1616 37.4316C37.9294 37.1994 37.6145 37.069 37.2861 37.069H32.2929C31.9645 37.069 31.6496 37.1994 31.4174 37.4316C31.1852 37.6638 31.0548 37.9787 31.0548 38.3071V39.9686H24.2081V38.3071C24.2081 37.9787 24.0777 37.6638 23.8455 37.4316C23.6133 37.1994 23.2984 37.069 22.97 37.069H21.3358V34.7414H27.6897C28.3464 34.7414 28.9762 34.4805 29.4406 34.0161C29.905 33.5517 30.1658 32.9219 30.1658 32.2652V17.8278C30.1658 17.171 29.905 16.5412 29.4406 16.0768C28.9762 15.6124 28.3464 15.3516 27.6897 15.3516L13.2559 15.3528ZM27.6921 17.2099H13.2559C13.0918 17.2099 12.9343 17.2752 12.8182 17.3913C12.7021 17.5074 12.6369 17.6648 12.6369 17.829V32.2652C12.6369 32.4294 12.7021 32.5868 12.8182 32.7029C12.9343 32.819 13.0918 32.8842 13.2559 32.8842H27.6921C27.8563 32.8842 28.0138 32.819 28.1299 32.7029C28.246 32.5868 28.3112 32.4294 28.3112 32.2652V17.8278C28.3112 17.6636 28.246 17.5061 28.1299 17.39C28.0138 17.2739 27.8563 17.2099 27.6921 17.2099ZM18.5971 42.6813V38.9261H22.3522V42.6813H18.5971ZM4.27975 38.9261V42.6813H8.03489V38.9261H4.27975ZM32.9119 42.6813V38.9261H36.6671V42.6813H32.9119Z" fill="#F92327"/>
</svg>
