<svg width="52" height="52" viewBox="0 0 52 52" fill="none" xmlns="http://www.w3.org/2000/svg">
<path d="M51.7329 31.9939C51.6539 32.0655 51.5615 32.1208 51.4611 32.1566C51.3607 32.1925 51.2543 32.2083 51.1478 32.203C51.0413 32.1977 50.9369 32.1715 50.8406 32.1259C50.7442 32.0802 50.6578 32.016 50.5863 31.937L48.6058 29.7493C48.1193 35.6593 45.5081 41.1426 41.1938 45.2681C36.659 49.6038 30.7064 51.9915 24.4309 51.9915C17.9522 51.9915 11.8615 49.4687 7.28 44.8872C2.69852 40.3057 0.175703 34.215 0.175703 27.7364C0.175703 27.2885 0.539297 26.9249 0.987188 26.9249C1.43508 26.9249 1.79867 27.2885 1.79867 27.7364C1.79867 40.2154 11.9509 50.3675 24.4298 50.3675C36.2588 50.3675 46.0129 41.3265 46.9848 29.6386L44.7647 31.6486C44.4326 31.9492 43.9187 31.9238 43.618 31.5917C43.3174 31.2596 43.3428 30.7457 43.6749 30.445L47.3312 27.1341C47.491 26.99 47.7012 26.9148 47.9162 26.9249C48.1315 26.935 48.3336 27.0315 48.4778 27.191L51.7887 30.8472C52.0904 31.1804 52.065 31.6932 51.7329 31.9939ZM3.72734 8.35317C3.88578 8.5116 4.09398 8.59082 4.30117 8.59082C4.50836 8.59082 4.71656 8.5116 4.875 8.35317C5.02717 8.20097 5.11266 7.99456 5.11266 7.77934C5.11266 7.56412 5.02717 7.35771 4.875 7.20551L2.77266 5.10215H24.4319C35.5459 5.10215 44.9353 13.0474 46.7573 23.9948C46.8234 24.3919 47.1677 24.6732 47.5577 24.6732C47.6023 24.6732 47.647 24.6692 47.6917 24.6621C48.1335 24.5879 48.4331 24.1705 48.359 23.7277C47.4277 18.1296 44.526 13.0037 40.1903 9.29465C35.8059 5.54395 30.2087 3.47817 24.4319 3.47817H2.77367L4.875 1.37785C5.02389 1.22499 5.10659 1.01963 5.10518 0.80624C5.10378 0.592851 5.01838 0.3886 4.86749 0.237708C4.7166 0.0868156 4.51235 0.00142319 4.29896 1.76289e-05C4.08557 -0.00138793 3.88021 0.0813064 3.72734 0.230198L0.238672 3.71582C0.0863281 3.86817 0 4.07434 0 4.28965C0 4.50496 0.0853125 4.71114 0.237656 4.86348L3.72734 8.35317ZM37.568 31.9279C37.3334 32.6601 37.0378 33.3721 36.6854 34.0556L38.4861 36.9674C38.5822 37.1231 38.623 37.3067 38.6018 37.4884C38.5806 37.6701 38.4987 37.8394 38.3693 37.9688L34.6643 41.6707C34.5348 41.8 34.3655 41.8817 34.1837 41.9027C34.002 41.9237 33.8185 41.8828 33.6629 41.7865L30.7541 39.9868C30.0727 40.3382 29.3597 40.6338 28.6264 40.8694L27.8413 44.1996C27.7994 44.3777 27.6986 44.5364 27.5551 44.65C27.4117 44.7636 27.2341 44.8253 27.0512 44.8253H21.8146C21.6317 44.8253 21.4541 44.7636 21.3106 44.65C21.1672 44.5364 21.0664 44.3777 21.0245 44.1996L20.2394 40.8694C19.5071 40.6348 18.7952 40.3393 18.1116 39.9868L15.1998 41.7875C15.0442 41.8839 14.8606 41.9247 14.6788 41.9035C14.497 41.8823 14.3277 41.8003 14.1984 41.6707L10.4965 37.9688C10.3671 37.8394 10.2852 37.6701 10.264 37.4884C10.2428 37.3067 10.2836 37.1231 10.3797 36.9674L12.1804 34.0556C11.828 33.3721 11.5324 32.6591 11.2978 31.9279L7.96758 31.1428C7.78949 31.1009 7.6308 31 7.51723 30.8566C7.40366 30.7132 7.3419 30.5356 7.34195 30.3526V25.1161C7.3419 24.9331 7.40366 24.7555 7.51723 24.6121C7.6308 24.4687 7.78949 24.3678 7.96758 24.3259L11.2978 23.5408C11.5324 22.8075 11.828 22.0946 12.1804 21.4131L10.3807 18.5043C10.2845 18.3487 10.2436 18.1652 10.2646 17.9835C10.2856 17.8018 10.3673 17.6325 10.4965 17.5029L14.1984 13.7979C14.3278 13.6686 14.4971 13.5867 14.6788 13.5655C14.8606 13.5443 15.0441 13.585 15.1998 13.6811L18.1106 15.4829C18.7941 15.1284 19.5071 14.8329 20.2394 14.6003L21.0245 11.269C21.0664 11.0909 21.1672 10.9322 21.3106 10.8187C21.4541 10.7051 21.6317 10.6433 21.8146 10.6434H27.0512C27.2341 10.6433 27.4117 10.7051 27.5551 10.8187C27.6986 10.9322 27.7994 11.0909 27.8413 11.269L28.6264 14.6003C29.3597 14.8339 30.0727 15.1294 30.7552 15.4829L33.6629 13.6811C33.8185 13.5849 34.002 13.5439 34.1837 13.5649C34.3655 13.586 34.5348 13.6677 34.6643 13.7969L38.3693 17.5019C38.4987 17.6313 38.5806 17.8006 38.6018 17.9823C38.623 18.1641 38.5822 18.3476 38.4861 18.5033L36.6864 21.4121C37.0388 22.0936 37.3344 22.8065 37.569 23.5398L40.8992 24.3249C41.0773 24.3668 41.236 24.4676 41.3496 24.6111C41.4631 24.7545 41.5249 24.9321 41.5248 25.115V30.3516C41.5249 30.5345 41.4631 30.7121 41.3496 30.8556C41.236 30.999 41.0773 31.0999 40.8992 31.1418L37.568 31.9279ZM36.7392 30.4552L39.8998 29.7107V25.7589L36.7392 25.0135C36.5982 24.9803 36.4686 24.9099 36.364 24.8097C36.2593 24.7095 36.1834 24.5832 36.1441 24.4437C35.882 23.5144 35.5103 22.6197 35.0401 21.7818C34.9691 21.6553 34.9333 21.5121 34.9364 21.3671C34.9394 21.2221 34.9812 21.0805 35.0573 20.9571L36.7656 18.1956L33.9696 15.3996L31.2081 17.1109C31.0845 17.1876 30.9426 17.2296 30.7971 17.2327C30.6517 17.2357 30.5081 17.1996 30.3814 17.1282C29.5455 16.6559 28.6508 16.2852 27.7235 16.0262C27.5836 15.9871 27.4567 15.9111 27.3562 15.8062C27.2556 15.7014 27.185 15.5715 27.1517 15.43L26.4062 12.2674H22.4555L21.71 15.43C21.6766 15.5714 21.6059 15.7012 21.5054 15.8061C21.4048 15.9109 21.278 15.9869 21.1382 16.0262C20.213 16.2842 19.3192 16.6549 18.4813 17.1282C18.3546 17.1995 18.2111 17.2356 18.0658 17.2328C17.9204 17.2299 17.7784 17.1882 17.6546 17.1119L14.8911 15.4006L12.0981 18.1966L13.8074 20.9581C13.9628 21.2089 13.9699 21.5248 13.8247 21.7828C13.3545 22.6197 12.9827 23.5154 12.7207 24.4447C12.6812 24.5841 12.6052 24.7104 12.5006 24.8106C12.396 24.9107 12.2665 24.9811 12.1255 25.0145L8.96492 25.76V29.7118L12.1255 30.4562C12.413 30.5243 12.6405 30.7426 12.7207 31.026C12.9823 31.9535 13.3528 32.8467 13.8247 33.6869C13.8956 33.8134 13.9314 33.9566 13.9284 34.1016C13.9254 34.2466 13.8836 34.3882 13.8074 34.5116L12.0981 37.2761L14.8911 40.0691L17.6556 38.3598C17.779 38.2836 17.9206 38.2419 18.0656 38.2388C18.2106 38.2358 18.3538 38.2716 18.4803 38.3425C19.3202 38.8138 20.215 39.1855 21.1413 39.4465C21.4256 39.5268 21.644 39.7543 21.711 40.0417L22.4565 43.2023H26.4083L27.1537 40.0417C27.1869 39.9007 27.2573 39.7711 27.3575 39.6664C27.4577 39.5618 27.5841 39.4858 27.7235 39.4465C28.6528 39.1845 29.5486 38.8128 30.3855 38.3425C30.512 38.2716 30.6552 38.2358 30.8002 38.2388C30.9452 38.2419 31.0867 38.2836 31.2102 38.3598L33.9716 40.0691L36.7677 37.2751L35.0584 34.5116C34.9822 34.3882 34.9404 34.2466 34.9374 34.1016C34.9343 33.9566 34.9701 33.8134 35.0411 33.6869C35.5134 32.847 35.8841 31.9522 36.1451 31.026C36.2243 30.7416 36.4518 30.5232 36.7392 30.4552ZM34.0895 27.7364C34.0895 33.0623 29.7568 37.395 24.4309 37.395C19.1049 37.395 14.7723 33.0623 14.7723 27.7364C14.7723 22.4104 19.1049 18.0778 24.4309 18.0778C29.7568 18.0778 34.0895 22.4104 34.0895 27.7364ZM32.4665 27.7364C32.4665 23.3062 28.862 19.7018 24.4319 19.7018C20.0017 19.7018 16.3973 23.3062 16.3973 27.7364C16.3973 32.1665 20.0017 35.771 24.4319 35.771C28.862 35.771 32.4665 32.1665 32.4665 27.7364ZM29.8624 23.7013C29.7828 23.6303 29.69 23.5757 29.5893 23.5405C29.4886 23.5054 29.3819 23.4905 29.2754 23.4966C29.1689 23.5028 29.0647 23.5298 28.9687 23.5763C28.8726 23.6227 28.7867 23.6876 28.7158 23.7673L23.1755 29.9809L20.1155 26.9208C19.9626 26.7719 19.7572 26.6892 19.5439 26.6906C19.3305 26.692 19.1262 26.7774 18.9753 26.9283C18.8244 27.0792 18.739 27.2835 18.7376 27.4969C18.7362 27.7103 18.8189 27.9156 18.9678 28.0685L22.6352 31.7359C22.7876 31.8882 22.9948 31.9736 23.2091 31.9736H23.2324C23.4559 31.9675 23.6661 31.8689 23.8154 31.7024L29.9274 24.8479C29.9986 24.7685 30.0534 24.6757 30.0887 24.575C30.124 24.4743 30.139 24.3676 30.133 24.2611C30.127 24.1546 30.0999 24.0503 30.0535 23.9542C30.0071 23.8582 29.9421 23.7722 29.8624 23.7013Z" fill="#7E23FB"/>
</svg>
