<svg width="52" height="52" viewBox="0 0 52 52" fill="none" xmlns="http://www.w3.org/2000/svg">
<path d="M49.5464 46.4503L49.522 45.2478C49.522 45.1178 49.4895 44.9959 49.4245 44.8822L46.3289 39.1622C45.9653 38.5902 45.462 38.1204 44.8664 37.7972C45.2807 37.2772 45.5326 36.6353 45.5326 35.9203V16.7534C45.5326 13.8528 43.1764 11.4966 40.2757 11.4966H36.912C37.1882 10.9034 37.1801 10.1884 36.8307 9.58719L35.2951 6.93031C35.0189 6.45094 34.572 6.10969 34.0357 5.96344C33.4995 5.81719 32.9389 5.89031 32.4595 6.16656L31.9882 6.43469C31.5089 6.71094 30.9239 6.70281 30.412 6.41031C29.9082 6.11781 29.6157 5.62219 29.6157 5.06969V4.52531C29.6157 3.37969 28.6814 2.44531 27.5357 2.44531H24.4645C23.3189 2.44531 22.3845 3.37969 22.3845 4.52531V5.06969C22.3845 5.62219 22.0839 6.11781 21.5882 6.41031C21.0845 6.70281 20.4914 6.71094 20.012 6.43469L19.5407 6.16656C19.3052 6.02902 19.0447 5.93945 18.7744 5.903C18.5041 5.86655 18.2292 5.88394 17.9656 5.95418C17.7021 6.02442 17.455 6.14611 17.2387 6.31224C17.0223 6.47837 16.841 6.68567 16.7051 6.92219L15.1695 9.57906C14.8201 10.1884 14.812 10.8953 15.0882 11.4884H11.7001C8.79948 11.4884 6.44323 13.8447 6.44323 16.7453V35.9122C6.44323 36.6272 6.70323 37.2691 7.11761 37.7891C6.52448 38.1141 6.01261 38.5853 5.62261 39.2028L2.55136 44.8741C2.48636 44.9959 2.45386 45.1259 2.45386 45.2641V46.4666C2.45386 48.1728 3.84323 49.5622 5.54948 49.5622H46.4589C48.1651 49.5622 49.5545 48.1728 49.5545 46.4666V46.4503H49.5464ZM16.5751 10.3916L18.1107 7.73469C18.1676 7.62906 18.2651 7.55594 18.387 7.52344C18.5089 7.49094 18.6226 7.50719 18.7282 7.57219L19.1995 7.84031C20.1907 8.40906 21.3851 8.40094 22.4007 7.81594C23.4082 7.23094 24.0095 6.20719 24.0095 5.06969V4.52531C24.0095 4.27344 24.2126 4.07031 24.4645 4.07031H27.5357C27.7876 4.07031 27.9907 4.27344 27.9907 4.52531V5.06969C27.9907 6.20719 28.592 7.23094 29.5995 7.81594C30.6151 8.40094 31.8095 8.40906 32.8007 7.84031L33.272 7.57219C33.3776 7.51531 33.4995 7.49906 33.6132 7.53156C33.727 7.56406 33.8326 7.63719 33.8895 7.74281L35.4251 10.3997C35.547 10.6191 35.4739 10.8953 35.2626 11.0172L34.7914 11.2853C33.8001 11.8541 33.2151 12.8941 33.2151 14.0641C33.2151 15.2341 33.8082 16.2741 34.7914 16.8428L35.2626 17.1109C35.3682 17.1678 35.4414 17.2653 35.4739 17.3872C35.5064 17.5091 35.4901 17.6228 35.4251 17.7284L33.8895 20.3853C33.7595 20.6047 33.4832 20.6778 33.272 20.5559L32.8007 20.2878C31.8095 19.7191 30.6151 19.7272 29.5995 20.3122C28.592 20.8972 27.9907 21.9209 27.9907 23.0584V23.6028C27.9907 23.8547 27.7795 24.0741 27.5357 24.0741H24.4645C24.2207 24.0741 24.0095 23.8547 24.0095 23.6028V23.0584C24.0095 21.9209 23.4082 20.8972 22.4007 20.3122C21.8889 20.0116 21.3201 19.8653 20.7676 19.8653C20.2151 19.8653 19.687 20.0034 19.1995 20.2878L18.7282 20.5559C18.6226 20.6128 18.5007 20.6291 18.387 20.5966C18.2732 20.5641 18.1757 20.4909 18.1107 20.3853L16.5751 17.7284C16.519 17.624 16.5017 17.5031 16.5264 17.3872C16.5589 17.2734 16.632 17.1759 16.7376 17.1109L17.2089 16.8428C18.192 16.2741 18.7851 15.2341 18.7851 14.0722C18.7851 12.9022 18.192 11.8622 17.2089 11.2934L16.7376 11.0253C16.6333 10.9658 16.5568 10.8675 16.5249 10.7518C16.4929 10.6361 16.508 10.5124 16.567 10.4078L16.5751 10.3916ZM8.06823 16.7453C8.06823 14.7384 9.70136 13.1134 11.7001 13.1134H16.8595C17.0545 13.3816 17.1682 13.6984 17.1682 14.0559C17.1682 14.6328 16.8839 15.1447 16.4045 15.4209L15.9332 15.6891C15.4539 15.9653 15.1045 16.4122 14.9664 16.9484C14.8201 17.4847 14.8932 18.0453 15.1776 18.5247L16.7132 21.1816C16.9895 21.6609 17.4364 22.0103 17.9726 22.1484C18.5089 22.2947 19.0695 22.2216 19.5489 21.9453L20.0201 21.6772C20.4995 21.4009 21.0845 21.4091 21.5964 21.7016C22.1001 21.9941 22.3926 22.4897 22.3926 23.0422V23.5866C22.3926 24.7403 23.327 25.6828 24.4726 25.6828H27.5439C28.6895 25.6828 29.6239 24.7403 29.6239 23.5866V23.0422C29.6239 22.4897 29.9245 21.9941 30.4201 21.7016C30.9239 21.4091 31.517 21.4009 31.9964 21.6772L32.4676 21.9453C33.4589 22.5222 34.7345 22.1809 35.3114 21.1816L36.847 18.5247C36.9845 18.2891 37.0741 18.0287 37.1105 17.7584C37.147 17.488 37.1296 17.2132 37.0594 16.9496C36.9891 16.686 36.8674 16.439 36.7013 16.2226C36.5352 16.0063 36.3279 15.8249 36.0914 15.6891L35.6201 15.4209C35.1407 15.1447 34.8564 14.6328 34.8564 14.0559C34.8564 13.6984 34.9782 13.3734 35.1651 13.1134H40.292C42.2989 13.1134 43.9239 14.7466 43.9239 16.7453V35.9122C43.9239 36.6841 43.2901 37.3178 42.5182 37.3178H9.47386C8.70198 37.3178 8.06823 36.6841 8.06823 35.9122V16.7453ZM7.02011 40.0234C7.22812 39.6921 7.51697 39.4191 7.8595 39.23C8.20203 39.041 8.587 38.9422 8.97823 38.9428H42.9976C43.7939 38.9428 44.5251 39.3491 44.9314 39.9747L47.3526 44.4516H4.62323L7.02011 40.0234ZM46.4589 47.9372H5.54136C4.72886 47.9372 4.07073 47.2791 4.07073 46.4666V46.0766H47.9132V46.4747C47.9132 47.2791 47.2632 47.9372 46.4507 47.9372H46.4589ZM26.0001 19.5159C29.0064 19.5159 31.452 17.0703 31.452 14.0641C31.452 11.0578 29.0064 8.61219 26.0001 8.61219C22.9939 8.61219 20.5482 11.0578 20.5482 14.0641C20.5482 17.0703 22.9939 19.5159 26.0001 19.5159ZM26.0001 17.8909C23.8876 17.8909 22.1732 16.1766 22.1732 14.0641C22.1732 13.7309 22.2301 13.4141 22.3114 13.1134H29.7051C29.7864 13.4222 29.8432 13.7391 29.8432 14.0641C29.8432 16.1766 28.1289 17.8909 26.0164 17.8909H26.0001ZM26.0001 10.2372C27.1132 10.2372 28.1126 10.7247 28.8114 11.4884H23.1807C23.8795 10.7247 24.8789 10.2372 25.992 10.2372H26.0001ZM23.9364 34.6203L26.382 27.7303C26.5282 27.3078 26.9995 27.0884 27.422 27.2347C27.8445 27.3809 28.0639 27.8522 27.9176 28.2747L25.472 35.1647C25.3501 35.4978 25.0414 35.7091 24.7082 35.7091C24.5782 35.7077 24.4504 35.6754 24.3354 35.6149C24.2204 35.5543 24.1215 35.4672 24.0468 35.3608C23.9722 35.2544 23.9239 35.1317 23.9061 35.0029C23.8883 34.8741 23.9015 34.743 23.9445 34.6203H23.9364ZM17.9401 31.4434C17.9401 31.1672 18.0782 30.9153 18.3057 30.7609L22.0514 28.2991C22.4251 28.0553 22.9289 28.1609 23.1807 28.5347C23.4245 28.9084 23.327 29.4122 22.9451 29.6641L20.2314 31.4516L22.9451 33.2391C23.3189 33.4828 23.4245 33.9866 23.1807 34.3684C23.0264 34.6041 22.7664 34.7341 22.4982 34.7341C22.3439 34.7341 22.1895 34.6934 22.0514 34.6041L18.3057 32.1422C18.0782 31.9878 17.9401 31.7359 17.9401 31.4597V31.4434ZM29.0551 33.2309L31.7689 31.4434L29.0551 29.6559C28.6814 29.4122 28.5757 28.9084 28.8195 28.5266C29.0632 28.1528 29.567 28.0472 29.9489 28.2909L33.6945 30.7528C33.922 30.9072 34.0601 31.1591 34.0601 31.4353C34.0601 31.7116 33.922 31.9634 33.6945 32.1178L29.9489 34.5797C29.7672 34.6961 29.5472 34.7366 29.336 34.6926C29.1249 34.6485 28.9394 34.5234 28.8195 34.3441C28.5757 33.9703 28.6732 33.4666 29.0551 33.2147V33.2309Z" fill="#216CFD"/>
</svg>
