<svg width="52" height="52" viewBox="0 0 52 52" fill="none" xmlns="http://www.w3.org/2000/svg">
<path fill-rule="evenodd" clip-rule="evenodd" d="M15.6328 4.56658C15.6328 3.83624 16.0998 3.08102 17.0877 2.47445C18.7586 1.44852 22.1185 0.710938 25.9998 0.710938C29.8813 0.710938 33.2411 1.44852 34.9119 2.47445C35.8998 3.08102 36.3669 3.83624 36.3669 4.56658V16.923C36.3669 17.6534 35.8998 18.4086 34.9119 19.0151C33.2411 20.0411 29.8813 20.7786 25.9998 20.7786C22.1185 20.7786 18.7586 20.0411 17.0877 19.0151C16.0998 18.4086 15.6328 17.6534 15.6328 16.923V4.56658ZM34.7356 4.56658C34.7356 4.42965 34.6295 4.31851 34.5006 4.19524C34.2416 3.94758 33.8587 3.72571 33.3835 3.51945C31.7193 2.79685 29.0306 2.34231 25.9998 2.34231C22.9691 2.34231 20.2803 2.79685 18.6161 3.51945C18.1411 3.72571 17.758 3.94768 17.499 4.19535C17.3702 4.31851 17.264 4.42965 17.264 4.56658C17.264 4.70362 17.3702 4.81476 17.499 4.93793C17.758 5.18559 18.1411 5.40756 18.6161 5.61382C20.2803 6.33642 22.9691 6.79096 25.9998 6.79096C29.0306 6.79096 31.7193 6.33642 33.3835 5.61382C33.8587 5.40756 34.2416 5.18559 34.5006 4.93793C34.6295 4.81476 34.7356 4.70352 34.7356 4.56658ZM34.7356 10.7448V6.76251C33.0119 7.7341 29.7492 8.42233 25.9998 8.42233C22.2505 8.42233 18.9878 7.7341 17.264 6.76251V10.7448C17.264 10.8818 17.3702 10.993 17.499 11.1161C17.758 11.3638 18.1411 11.5858 18.6161 11.792C20.2803 12.5146 22.9691 12.9691 25.9998 12.9691C29.0306 12.9691 31.7193 12.5146 33.3835 11.792C33.8587 11.5858 34.2416 11.3638 34.5006 11.1161C34.6295 10.993 34.7356 10.8818 34.7356 10.7448ZM17.264 12.9407V16.923C17.264 17.0599 17.3702 17.1711 17.499 17.2943C17.758 17.5419 18.1411 17.7639 18.6161 17.9701C20.2803 18.6927 22.9691 19.1473 25.9998 19.1473C29.0306 19.1473 31.7193 18.6927 33.3835 17.9701C33.8587 17.7639 34.2416 17.5419 34.5006 17.2943C34.6295 17.1711 34.7356 17.0599 34.7356 16.923V12.9407C33.0119 13.9122 29.7492 14.6004 25.9998 14.6004C22.2505 14.6004 18.9878 13.9122 17.264 12.9407ZM19.0019 14.8283C19.5932 14.8283 20.0726 15.3076 20.0726 15.899C20.0726 16.4903 19.5932 16.9696 19.0019 16.9696C18.4106 16.9696 17.9312 16.4903 17.9312 15.899C17.9312 15.3076 18.4106 14.8283 19.0019 14.8283ZM19.0019 8.65307C19.5932 8.65307 20.0726 9.13249 20.0726 9.72386C20.0726 10.3152 19.5932 10.7946 19.0019 10.7946C18.4106 10.7946 17.9312 10.3152 17.9312 9.72386C17.9312 9.13249 18.4106 8.65307 19.0019 8.65307ZM17.6774 28.9446C18.4898 28.9446 19.1535 29.6083 19.1535 30.4207V49.8107C19.1535 50.6231 18.4898 51.2868 17.6774 51.2868H2.49562C1.68319 51.2868 1.01953 50.6231 1.01953 49.8107V34.099C1.01953 33.6982 1.16666 33.3426 1.45297 33.0564L5.12641 29.3828C5.41527 29.0858 5.7709 28.9446 6.17385 28.9446H17.6774ZM5.08501 31.7405L3.8154 33.0101H5.08501V31.7405ZM2.65733 34.6479V49.649H17.5157V30.5824H6.72281V33.4979C6.72311 33.649 6.69356 33.7987 6.63586 33.9383C6.57817 34.078 6.49346 34.2049 6.3866 34.3117C6.27974 34.4186 6.15284 34.5033 6.01316 34.561C5.87349 34.6186 5.72381 34.6482 5.57269 34.6479H2.65733ZM14.7073 45.6751C14.9244 45.6752 15.1327 45.7616 15.2862 45.9151C15.4398 46.0687 15.5261 46.2769 15.5262 46.4941C15.5261 46.7112 15.4397 46.9194 15.2862 47.073C15.1326 47.2265 14.9244 47.3128 14.7073 47.3129H5.46574C5.24859 47.3128 5.04036 47.2265 4.88681 47.073C4.73325 46.9194 4.64692 46.7112 4.64679 46.4941C4.64689 46.2769 4.73321 46.0687 4.88677 45.9151C5.04033 45.7616 5.24857 45.6752 5.46574 45.6751H14.7073ZM14.7073 41.4212C15.1592 41.4212 15.5262 41.7881 15.5262 42.2401C15.5262 42.6921 15.1592 43.059 14.7073 43.059H5.46574C5.01374 43.059 4.64679 42.6921 4.64679 42.2401C4.64679 41.7881 5.01374 41.4212 5.46574 41.4212H14.7073ZM14.7073 32.9133C15.1592 32.9133 15.5262 33.2802 15.5262 33.7322C15.5262 34.1842 15.1592 34.5511 14.7073 34.5511H8.89947C8.44748 34.5511 8.08062 34.1842 8.08062 33.7322C8.08062 33.2802 8.44748 32.9133 8.89947 32.9133H14.7073ZM14.7073 37.1672C14.9244 37.1673 15.1327 37.2536 15.2862 37.4072C15.4398 37.5608 15.5261 37.769 15.5262 37.9862C15.5261 38.2033 15.4397 38.4115 15.2862 38.5651C15.1326 38.7186 14.9244 38.8049 14.7073 38.805H5.46574C5.24859 38.8049 5.04036 38.7186 4.88681 38.5651C4.73325 38.4115 4.64692 38.2033 4.64679 37.9862C4.64689 37.769 4.73321 37.5608 4.88677 37.4072C5.04033 37.2536 5.24857 37.1673 5.46574 37.1672H14.7073ZM49.504 28.9446C50.3165 28.9446 50.9801 29.6083 50.9801 30.4207V49.8107C50.9801 50.6231 50.3165 51.2868 49.504 51.2868H34.3223C33.5098 51.2868 32.8462 50.6231 32.8462 49.8107V34.099C32.8462 33.6982 32.9933 33.3426 33.2796 33.0564L36.9531 29.3828C37.2419 29.0858 37.5976 28.9446 38.0005 28.9446H49.504ZM36.9116 31.7405L35.6421 33.0101H36.9116V31.7405ZM34.484 34.6479V49.649H49.3423V30.5824H38.5494V33.4979C38.5497 33.649 38.5201 33.7986 38.4625 33.9383C38.4048 34.078 38.3201 34.2049 38.2132 34.3117C38.1064 34.4186 37.9795 34.5033 37.8398 34.561C37.7001 34.6186 37.5505 34.6482 37.3993 34.6479H34.484ZM46.5339 37.1672C46.7511 37.1673 46.9593 37.2536 47.1129 37.4072C47.2664 37.5608 47.3528 37.769 47.3529 37.9862C47.3527 38.2033 47.2664 38.4115 47.1128 38.5651C46.9593 38.7186 46.7511 38.8049 46.5339 38.805H37.2924C37.0752 38.8049 36.867 38.7186 36.7135 38.5651C36.5599 38.4115 36.4736 38.2033 36.4734 37.9862C36.4735 37.769 36.5599 37.5608 36.7134 37.4072C36.867 37.2536 37.0752 37.1673 37.2924 37.1672H46.5339ZM46.5339 45.6751C46.7511 45.6752 46.9593 45.7616 47.1129 45.9151C47.2664 46.0687 47.3528 46.2769 47.3529 46.4941C47.3527 46.7112 47.2664 46.9194 47.1128 47.073C46.9593 47.2265 46.7511 47.3128 46.5339 47.3129H37.2924C37.0752 47.3128 36.867 47.2265 36.7135 47.073C36.5599 46.9194 36.4736 46.7112 36.4734 46.4941C36.4735 46.2769 36.5599 46.0687 36.7134 45.9151C36.867 45.7616 37.0752 45.6752 37.2924 45.6751H46.5339ZM46.5339 32.9133C46.9859 32.9133 47.3529 33.2802 47.3529 33.7322C47.3529 34.1842 46.9859 34.5511 46.5339 34.5511H40.7261C40.2741 34.5511 39.9072 34.1842 39.9072 33.7322C39.9072 33.2802 40.2741 32.9133 40.7261 32.9133H46.5339ZM46.5339 41.4212C46.9859 41.4212 47.3529 41.7881 47.3529 42.2401C47.3529 42.6921 46.9859 43.059 46.5339 43.059H37.2924C36.8404 43.059 36.4734 42.6921 36.4734 42.2401C36.4734 41.7881 36.8404 41.4212 37.2924 41.4212H46.5339ZM10.9022 26.7195C10.9022 27.1697 10.5367 27.5352 10.0865 27.5352C9.63634 27.5352 9.27081 27.1697 9.27081 26.7195V10.7448C9.27081 10.5285 9.35675 10.321 9.50972 10.168C9.66269 10.015 9.87016 9.92911 10.0865 9.92911H13.2675C13.7176 9.92911 14.0832 10.2946 14.0832 10.7448C14.0832 11.1951 13.7176 11.5605 13.2675 11.5605H10.9022V26.7195ZM42.7288 26.7195C42.7288 27.1697 42.3633 27.5352 41.9132 27.5352C41.463 27.5352 41.0975 27.1697 41.0975 26.7195V11.5605H38.7322C38.282 11.5605 37.9165 11.1951 37.9165 10.7448C37.9165 10.2946 38.282 9.92911 38.7322 9.92911H41.9132C42.1295 9.92911 42.337 10.015 42.4899 10.168C42.6429 10.321 42.7288 10.5285 42.7288 10.7448V26.7195Z" fill="#F92327"/>
</svg>
