<svg width="32" height="32" viewBox="0 0 32 32" fill="none" xmlns="http://www.w3.org/2000/svg">
<path d="M23.5625 23.0938V24.9688H21.6875V23.0938H5.625V24.9688H3.75V23.0938H1.875V28.7188H25.4375V23.0938H23.5625ZM6.625 10.7812H0V21.2188H27.3125V17.3337C26.8281 17.4236 26.3364 17.4688 25.8438 17.4688C21.8731 17.4688 18.5669 14.5722 17.9255 10.7812H8.5V8.90625H17.8305C17.8719 8.26949 17.9896 7.64 18.1809 7.03125H6.625V10.7812Z" fill="#FF7F00"/>
<path d="M25.8438 15.5938C29.2383 15.5938 32 12.8321 32 9.4375C32 6.04294 29.2383 3.28125 25.8438 3.28125C22.4492 3.28125 19.6875 6.04294 19.6875 9.4375C19.6875 12.8321 22.4492 15.5938 25.8438 15.5938ZM21.7456 9.41331L23.0715 8.0875L25.1567 10.1728L28.6161 6.71338L29.9419 8.03919L25.1567 12.8244L21.7456 9.41331Z" fill="#FF7F00"/>
</svg>
