<svg width="52" height="52" viewBox="0 0 52 52" fill="none" xmlns="http://www.w3.org/2000/svg">
<path d="M47.3184 21.9891C45.4629 21.9891 43.9088 23.3018 43.5344 25.0471H40.8823V24.6991C40.8823 23.7602 40.2066 23.0231 39.1188 22.7757L37.0499 22.3052C36.8568 21.705 36.615 21.1215 36.3267 20.5608L37.4573 18.7645C38.0515 17.8206 38.0082 16.8216 37.3442 16.1575L37.0982 15.9115L38.9734 14.0363C39.5996 14.4406 40.3292 14.6554 41.0746 14.6548C42.0658 14.6548 43.057 14.2775 43.8115 13.5229C45.3205 12.0139 45.3205 9.55829 43.8115 8.04917C42.3024 6.54016 39.8469 6.54016 38.3377 8.04917C37.0256 9.36126 36.855 11.3883 37.8243 12.8872L35.9491 14.7625L35.7031 14.5165C35.0391 13.8524 34.0401 13.8092 33.0962 14.4033L31.2991 15.5344C30.7387 15.2463 30.1556 15.0045 29.5557 14.8114L29.0851 12.7419C28.8377 11.6542 28.1007 10.9785 27.1617 10.9785H26.8137V8.32644C28.5591 7.95208 29.8718 6.39797 29.8718 4.54242C29.8718 2.40819 28.1355 0.671875 26.0012 0.671875C23.867 0.671875 22.1308 2.40829 22.1308 4.54242C22.1308 6.39797 23.4435 7.95198 25.1887 8.32644V10.9785H24.8408C23.9017 10.9785 23.1648 11.6542 22.9174 12.7419L22.4467 14.8114C21.8468 15.0044 21.2638 15.2462 20.7033 15.5344L18.9064 14.4034C17.9623 13.8089 16.9634 13.8524 16.2994 14.5164L16.0534 14.7624L14.1781 12.8871C15.1475 11.3882 14.9768 9.36116 13.6648 8.04907C12.9338 7.31813 11.9618 6.91543 10.9279 6.91543C9.89402 6.91543 8.92206 7.31813 8.19112 8.04907C6.682 9.55819 6.682 12.0137 8.19112 13.5228C8.92217 14.2538 9.89412 14.6565 10.9279 14.6565C11.6853 14.6565 12.409 14.4396 13.0296 14.0367L14.9044 15.9114L14.6583 16.1575C13.9943 16.8215 13.951 17.8205 14.5453 18.7644L15.6762 20.5612C15.3879 21.1217 15.146 21.7049 14.9529 22.3049L12.8837 22.7755C11.796 23.0229 11.1203 23.7599 11.1203 24.6989V25.0469H8.46828C8.09382 23.3015 6.53971 21.9889 4.68427 21.9889C2.55003 21.9889 0.813721 23.7252 0.813721 25.8594C0.813721 27.9935 2.55003 29.7299 4.68427 29.7299C6.53981 29.7299 8.09392 28.4171 8.46828 26.6719H11.1203V27.0198C11.1203 27.9588 11.796 28.6958 12.8836 28.9432L14.9525 29.4139C15.1456 30.0141 15.3875 30.5975 15.6758 31.1582L14.5452 32.9544C13.9509 33.8986 13.9943 34.8975 14.6583 35.5613L14.9044 35.8074L13.0292 37.6827C11.5303 36.7135 9.50321 36.8841 8.19112 38.196C6.682 39.7051 6.682 42.1607 8.19112 43.6698C8.94573 44.4243 9.93678 44.8016 10.928 44.8016C11.9193 44.8016 12.9104 44.4243 13.6649 43.6697C14.9769 42.3577 15.1476 40.3306 14.1782 38.8317L16.0535 36.9565L16.2995 37.2025C16.9635 37.8666 17.9623 37.9099 18.9064 37.3156L20.7034 36.1845C21.2639 36.4726 21.847 36.7144 22.4468 36.9074L22.9175 38.9771C23.1649 40.0647 23.9018 40.7404 24.8409 40.7404H25.1888V43.3924C23.4435 43.7669 22.1308 45.321 22.1308 47.1765C22.1308 49.3108 23.8671 51.047 26.0013 51.047C28.1356 51.047 29.8719 49.3107 29.8719 47.1765C29.8719 45.321 28.5592 43.7669 26.8138 43.3924V40.7404H27.1618C28.1007 40.7404 28.8377 40.0647 29.0852 38.9771L29.5557 36.9082C30.1559 36.7151 30.7393 36.4732 31.3 36.1849L33.0964 37.3156C34.0405 37.9098 35.0394 37.8665 35.7033 37.2026L35.9494 36.9565L37.8246 38.8317C36.8552 40.3306 37.0259 42.3578 38.338 43.6698C39.0691 44.4008 40.041 44.8035 41.0748 44.8035C42.1086 44.8035 43.0807 44.4008 43.8117 43.6699C45.3208 42.1608 45.3208 39.7052 43.8117 38.1961C43.0807 37.4651 42.1087 37.0624 41.0748 37.0624C40.3175 37.0624 39.5937 37.2794 38.9732 37.6823L37.0983 35.8075L37.3443 35.5615C38.0083 34.8976 38.0517 33.8987 37.4575 32.9545L36.3264 31.1575C36.6145 30.5971 36.8563 30.014 37.0494 29.4142L39.1189 28.9434C40.2067 28.696 40.8824 27.9591 40.8824 27.02V26.6721H43.5344C43.9087 28.4174 45.4628 29.7301 47.3184 29.7301C49.4526 29.7301 51.1889 27.9938 51.1889 25.8597C51.1889 23.7255 49.4526 21.9891 47.3184 21.9891ZM39.4869 9.19855C39.9247 8.76072 40.4997 8.54185 41.0747 8.54185C41.6498 8.54185 42.2248 8.76072 42.6626 9.19855C43.5379 10.074 43.538 11.4986 42.6626 12.3742C41.787 13.2498 40.3625 13.2498 39.4868 12.3742C38.6112 11.4987 38.6112 10.0741 39.4868 9.19855H39.4869ZM23.7559 4.54262C23.7559 3.30448 24.7632 2.29708 26.0013 2.29708C27.2395 2.29708 28.2469 3.30448 28.2469 4.54262C28.2469 5.78077 27.2396 6.78807 26.0013 6.78807C24.7631 6.78807 23.7559 5.78077 23.7559 4.54262ZM9.3402 12.374C8.46463 11.4985 8.46463 10.074 9.3402 9.19835C9.76432 8.77423 10.3282 8.54063 10.928 8.54063C11.5279 8.54063 12.0917 8.77423 12.5159 9.19845C13.3914 10.0739 13.3914 11.4984 12.5159 12.374C12.0917 12.7982 11.5278 13.0318 10.928 13.0318C10.3283 13.0318 9.76432 12.7982 9.3402 12.374ZM4.68437 28.1052C3.44622 28.1052 2.43882 27.0978 2.43882 25.8597C2.43882 24.6215 3.44612 23.6142 4.68437 23.6142C5.92262 23.6142 6.92992 24.6215 6.92992 25.8597C6.92992 27.0978 5.92262 28.1052 4.68437 28.1052ZM12.5159 42.5208C11.6403 43.3964 10.2158 43.3964 9.3401 42.5208C8.46452 41.6453 8.46452 40.2207 9.3401 39.3451C9.77793 38.9073 10.3529 38.6884 10.9279 38.6884C11.503 38.6884 12.078 38.9073 12.5158 39.3451C13.3911 40.2206 13.3913 41.6452 12.5159 42.5208ZM28.2469 47.1766C28.2469 48.4148 27.2396 49.4221 26.0013 49.4221C24.7631 49.4221 23.7558 48.4148 23.7558 47.1766C23.7558 45.9385 24.7631 44.9311 26.0013 44.9311C27.2396 44.9311 28.2469 45.9385 28.2469 47.1766ZM42.6626 39.3452C43.5381 40.2207 43.5381 41.6453 42.6626 42.5209C42.2384 42.9451 41.6744 43.1787 41.0747 43.1787C40.475 43.1787 39.911 42.9451 39.4869 42.5209C38.6113 41.6454 38.6113 40.2208 39.4869 39.3451C39.911 38.921 40.4749 38.6874 41.0747 38.6874C41.6745 38.6874 42.2384 38.921 42.6626 39.3452ZM39.2573 27.0201C39.2573 27.2392 38.8096 27.3474 38.7585 27.3589L36.2263 27.9349C36.083 27.9675 35.9512 28.0384 35.845 28.14C35.7388 28.2416 35.6621 28.3701 35.6232 28.5118C35.4044 29.3064 35.0875 30.0706 34.6797 30.7869C34.607 30.9147 34.5704 31.0598 34.5736 31.2068C34.5769 31.3538 34.62 31.4971 34.6983 31.6215L36.0822 33.8203C36.11 33.8645 36.3502 34.2577 36.1954 34.4125L34.5541 36.0537C34.3995 36.2083 34.0062 35.9685 33.9619 35.9406L31.7639 34.5571C31.6394 34.4787 31.4961 34.4356 31.3491 34.4324C31.2021 34.4291 31.0569 34.4658 30.9291 34.5385C30.2126 34.9463 29.448 35.2633 28.6531 35.4821C28.5114 35.5211 28.3829 35.5978 28.2814 35.704C28.1798 35.8102 28.1089 35.942 28.0763 36.0853L27.5006 38.6168C27.489 38.6679 27.3808 39.1156 27.1618 39.1156H24.8409C24.6218 39.1156 24.5136 38.6679 24.5021 38.6168L23.9262 36.0846C23.8936 35.9413 23.8227 35.8095 23.7211 35.7033C23.6195 35.597 23.491 35.5204 23.3493 35.4814C22.5547 35.2626 21.7905 34.9457 21.0742 34.5381C20.9465 34.4653 20.8013 34.4286 20.6543 34.4319C20.5074 34.4351 20.364 34.4782 20.2396 34.5566L18.0408 35.9405C17.9965 35.9684 17.6033 36.2083 17.4484 36.0536L15.8073 34.4124C15.6524 34.2576 15.8926 33.8643 15.9204 33.8201L17.3039 31.6221C17.3822 31.4977 17.4253 31.3543 17.4286 31.2073C17.4318 31.0603 17.3951 30.9152 17.3224 30.7874C16.9146 30.0709 16.5976 29.3063 16.3788 28.5115C16.3398 28.3698 16.2631 28.2413 16.1569 28.1397C16.0507 28.0381 15.9189 27.9672 15.7756 27.9346L13.2441 27.3587C13.193 27.3472 12.7453 27.239 12.7453 27.0199V24.699C12.7453 24.48 13.193 24.3718 13.2441 24.3602L15.7759 23.7844C15.9192 23.7517 16.051 23.6809 16.1572 23.5793C16.2635 23.4777 16.3401 23.3492 16.3791 23.2075C16.5978 22.4128 16.9148 21.6484 17.3227 20.9322C17.3954 20.8044 17.4321 20.6592 17.4289 20.5122C17.4256 20.3652 17.3825 20.2219 17.3042 20.0974L15.9204 17.8989C15.8926 17.8545 15.6524 17.4616 15.8074 17.3067L17.4485 15.6655C17.6034 15.5107 17.9965 15.7508 18.0409 15.7787L20.2396 17.1626C20.364 17.2409 20.5073 17.284 20.6543 17.2873C20.8013 17.2905 20.9464 17.2539 21.0742 17.1812C21.7904 16.7733 22.5547 16.4564 23.3493 16.2377C23.491 16.1988 23.6195 16.1221 23.7211 16.0159C23.8227 15.9097 23.8936 15.7779 23.9262 15.6346L24.5021 13.1024C24.5136 13.0513 24.6218 12.6036 24.8409 12.6036H27.1618C27.3808 12.6036 27.489 13.0513 27.5006 13.1024L28.0764 15.6346C28.1091 15.7779 28.1799 15.9097 28.2815 16.0159C28.3831 16.1221 28.5116 16.1988 28.6533 16.2377C29.4479 16.4566 30.2122 16.7735 30.9284 17.1812C31.0562 17.2539 31.2013 17.2906 31.3483 17.2873C31.4952 17.284 31.6386 17.2409 31.763 17.1626L33.9618 15.7787C34.0061 15.7508 34.399 15.5105 34.554 15.6656L36.1952 17.3066C36.3501 17.4616 36.11 17.8546 36.0821 17.8989L34.6985 20.0969C34.6202 20.2214 34.5771 20.3647 34.5739 20.5117C34.5706 20.6587 34.6073 20.8039 34.68 20.9317C35.0879 21.6482 35.4049 22.4128 35.6237 23.2077C35.6627 23.3494 35.7393 23.4779 35.8456 23.5795C35.9518 23.6811 36.0836 23.7519 36.2269 23.7846L38.7585 24.3603C38.8095 24.3719 39.2573 24.4801 39.2573 24.6991V27.02V27.0201ZM47.3184 28.1053C46.0802 28.1053 45.0728 27.098 45.0728 25.8599C45.0728 24.6217 46.0801 23.6143 47.3184 23.6143C48.5566 23.6143 49.5639 24.6217 49.5639 25.8599C49.5639 27.098 48.5566 28.1053 47.3184 28.1053ZM26.0013 19.0333C22.2372 19.0333 19.1748 22.0956 19.1748 25.8598C19.1748 29.624 22.2371 32.6863 26.0013 32.6863C29.7655 32.6863 32.8278 29.624 32.8278 25.8598C32.8278 22.0956 29.7655 19.0333 26.0013 19.0333ZM26.0013 31.0613C23.1332 31.0613 20.7998 28.7279 20.7998 25.8598C20.7998 22.9917 23.1332 20.6583 26.0013 20.6583C28.8694 20.6583 31.2028 22.9917 31.2028 25.8598C31.2028 28.7279 28.8694 31.0613 26.0013 31.0613Z" fill="#FF7F00"/>
</svg>
