<svg width="32" height="32" viewBox="0 0 32 32" fill="none" xmlns="http://www.w3.org/2000/svg">
<path d="M30.5 22.6355H29.23V5.3125C29.23 5.17989 29.1773 5.05271 29.0836 4.95895C28.9898 4.86518 28.8626 4.8125 28.73 4.8125H3.27C3.13739 4.8125 3.01021 4.86518 2.91645 4.95895C2.82268 5.05271 2.77 5.17989 2.77 5.3125V22.6355H1.5C1.36739 22.6355 1.24021 22.6882 1.14645 22.7819C1.05268 22.8757 1 23.0029 1 23.1355C1.00093 24.2093 1.42792 25.2389 2.18724 25.9983C2.94656 26.7576 3.97616 27.1846 5.05 27.1855H26.95C28.0238 27.1846 29.0534 26.7576 29.8128 25.9983C30.5721 25.2389 30.9991 24.2093 31 23.1355C31 23.0029 30.9473 22.8757 30.8536 22.7819C30.7598 22.6882 30.6326 22.6355 30.5 22.6355ZM6.62 11.1325L15.825 7.6575C15.9373 7.61249 16.0627 7.61249 16.175 7.6575L25.38 11.1325C25.4754 11.1687 25.5576 11.233 25.6156 11.3169C25.6737 11.4009 25.7048 11.5005 25.705 11.6025C25.7047 11.7039 25.6735 11.8028 25.6154 11.8859C25.5573 11.969 25.4751 12.0324 25.38 12.0675L23.085 12.9375V17.8525C23.083 18.6391 22.7693 19.3929 22.2126 19.9486C21.6559 20.5044 20.9016 20.8168 20.115 20.8175H11.88C11.0939 20.8167 10.3402 20.5041 9.78431 19.9482C9.22843 19.3923 8.91579 18.6386 8.915 17.8525V12.9375L6.62 12.0675C6.52486 12.0324 6.44273 11.969 6.38463 11.8859C6.32654 11.8028 6.29526 11.7039 6.295 11.6025C6.29516 11.5005 6.32633 11.4009 6.38437 11.3169C6.44241 11.233 6.52458 11.1687 6.62 11.1325ZM20.22 22.6325C20.21 22.6325 20.2015 22.638 20.192 22.6385C20.2008 22.6344 20.2103 22.6323 20.22 22.6325ZM20.146 22.645C20.108 22.6495 20.0707 22.6587 20.035 22.6725C19.9732 22.6962 19.9175 22.7334 19.872 22.7815C19.8863 22.7641 19.9032 22.7489 19.922 22.7365C19.922 22.7315 19.922 22.7315 19.927 22.7315C19.932 22.7315 19.932 22.7265 19.937 22.7265H19.942C19.942 22.7252 19.9425 22.7239 19.9435 22.723C19.9444 22.722 19.9457 22.7215 19.947 22.7215L19.952 22.7165C19.9775 22.6967 20.0063 22.6814 20.037 22.6715C20.0612 22.6609 20.0863 22.6526 20.112 22.6465H20.132C20.1355 22.6475 20.141 22.6475 20.146 22.6475V22.645ZM11.965 22.6725C11.9298 22.6593 11.8933 22.6502 11.856 22.6455H11.885C11.9126 22.6515 11.9394 22.6605 11.965 22.6725ZM11.811 22.6385H11.8045C11.7945 22.6385 11.785 22.6325 11.775 22.6325C11.7853 22.6317 11.7956 22.6334 11.805 22.6375L11.811 22.6385ZM26.95 26.1845H5.05C4.32817 26.1835 3.63004 25.9268 3.07948 25.46C2.52891 24.9932 2.16152 24.3464 2.0425 23.6345H3.2765C3.282 23.6345 3.2865 23.6315 3.292 23.6315H11.57L12.72 24.7815C12.7653 24.8287 12.8196 24.8663 12.8798 24.892C12.9399 24.9178 13.0046 24.9312 13.07 24.9315H18.93C18.9954 24.9312 19.0601 24.9178 19.1202 24.892C19.1804 24.8663 19.2347 24.8287 19.28 24.7815L20.43 23.6315H28.708C28.7135 23.6315 28.718 23.6345 28.7235 23.6345H29.959C29.8399 24.3467 29.4723 24.9937 28.9215 25.4605C28.3706 25.9273 27.6721 26.1839 26.95 26.1845Z" fill="#7E23FB"/>
<path d="M16 14.5413L22.39 12.1313L23.79 11.6012L16 8.65625L8.20996 11.6012L9.60996 12.1313L16 14.5413Z" fill="#7E23FB"/>
<path d="M16 15.5775C15.9404 15.5777 15.8812 15.5676 15.825 15.5475L9.91504 13.3125V17.8525C9.91517 18.3736 10.1222 18.8733 10.4907 19.2418C10.8592 19.6103 11.3589 19.8174 11.88 19.8175H20.115C20.6367 19.8176 21.1371 19.6108 21.5064 19.2424C21.8758 18.874 22.0838 18.3742 22.085 17.8525V13.3125L16.175 15.5475C16.1189 15.5676 16.0597 15.5777 16 15.5775Z" fill="#7E23FB"/>
</svg>
