<svg width="32" height="32" viewBox="0 0 32 32" fill="none" xmlns="http://www.w3.org/2000/svg">
<path d="M5.625 13.8125C3.55725 13.8125 1.875 12.1302 1.875 10.0625C1.875 7.99475 3.55725 6.3125 5.625 6.3125C7.69275 6.3125 9.375 7.99475 9.375 10.0625C9.375 12.1302 7.69275 13.8125 5.625 13.8125ZM18.75 11.3125C16.6823 11.3125 15 9.63025 15 7.5625C15 5.49475 16.6823 3.8125 18.75 3.8125C20.8177 3.8125 22.5 5.49475 22.5 7.5625C22.5 9.63025 20.8177 11.3125 18.75 11.3125ZM31.0625 10.0625H27.3125C26.7948 10.0625 26.375 10.4823 26.375 11C26.375 11.5177 26.7948 11.9375 27.3125 11.9375H28.7992L19.1875 21.5492L16.7254 19.0871C16.3593 18.721 15.7657 18.721 15.3996 19.0871L8.17419 26.3125H0.9375C0.41975 26.3125 0 26.7323 0 27.25C0 27.7677 0.41975 28.1875 0.9375 28.1875H8.5625C8.81119 28.1875 9.04963 28.0887 9.22538 27.9129L16.0625 21.0758L18.5246 23.5379C18.8907 23.904 19.4843 23.904 19.8504 23.5379L30.125 13.2633V14.75C30.125 15.2677 30.5448 15.6875 31.0625 15.6875C31.5802 15.6875 32 15.2677 32 14.75V11C32 10.4823 31.5802 10.0625 31.0625 10.0625Z" fill="#58CD59"/>
<path d="M21.8577 12.25C20.9667 12.8428 19.8981 13.1889 18.75 13.1889C17.6019 13.1889 16.5333 12.8429 15.6423 12.25C14.1252 13.2575 13.125 14.9813 13.125 16.9389V18.7114L14.0738 17.7626C14.605 17.2314 15.3113 16.9389 16.0625 16.9389C16.8137 16.9389 17.52 17.2314 18.0512 17.7626L19.1875 18.8989L23.7419 14.3444C23.3007 13.4984 22.6525 12.7779 21.8577 12.25ZM2.51725 14.75C1.00025 15.7575 0 17.4813 0 19.4389V24.4389H7.3975L11.25 20.5864V19.4389C11.25 17.4813 10.2498 15.7575 8.73275 14.75C7.84175 15.3429 6.77306 15.6889 5.625 15.6889C4.47694 15.6889 3.40825 15.3429 2.51725 14.75Z" fill="#58CD59"/>
</svg>
