<svg width="42" height="42" viewBox="0 0 42 42" fill="none" xmlns="http://www.w3.org/2000/svg">
<g clip-path="url(#clip0_27244_2174)">
<path d="M38.3086 38.8047V15.3438H29.7773V38.8047H26.4961V26.8281H17.9648V38.8047H14.6836V29.125H6.15234V38.8047H2.46094V2.875H0V41.2656H42V38.8047H38.3086Z" fill="#1A72F5"/>
<path d="M7.1297 24.8066L22.751 15.7174L21.7898 19.3532L24.1691 19.9823L26.2038 12.2848L18.5064 10.2499L17.8774 12.6291L21.5134 13.5903L5.89209 22.6795L7.1297 24.8066ZM30.2965 12.2701L34.0473 11.2284L37.7981 12.2702L37.9664 8.38098L40.1162 5.13574L36.4694 3.77394L34.0473 0.726562L31.6252 3.77394L27.9784 5.13574L30.1283 8.38098L30.2965 12.2701Z" fill="#1A72F5"/>
</g>
<defs>
<clipPath id="clip0_27244_2174">
<rect width="42" height="42" fill="white"/>
</clipPath>
</defs>
</svg>
