<svg width="76" height="76" viewBox="0 0 76 76" fill="none" xmlns="http://www.w3.org/2000/svg">
<path d="M68.3529 29.2941C64.9412 29.2941 62.1176 31.7647 61.4118 34.9412L52.7059 34C52.4706 32.9412 52 32 51.1765 31.1765C52.3529 27.6471 50.2353 23.8824 46.3529 22.8235C46.4706 21.4118 45.8824 20.1176 44.9412 19.0588L49.7647 13.2941C50.9412 14 52.2353 14.4706 53.7647 14.4706C57.7647 14.4706 60.9412 11.1765 60.9412 7.29412C60.9412 3.41176 57.7647 0 53.7647 0C49.7647 0 46.4706 3.29412 46.4706 7.17647C46.4706 8.82353 47.0588 10.3529 48 11.6471C45.4118 14.8235 43.2941 17.2941 43.0588 17.6471C42.2353 17.2941 41.4118 17.0588 40.4706 17.0588C38.7059 17.0588 36.9412 17.7647 35.7647 19.2941C34.5882 17.7647 32.8235 17.0588 31.0588 17.0588C27.8824 17.0588 25.2941 19.4118 25.1765 22.2353L15.7647 13.7647C16.8235 12.3529 17.5294 10.4706 17.5294 8.58824C17.5294 3.88235 13.6471 0 8.94118 0C4.11765 0 0.235294 3.88235 0.235294 8.70588C0.235294 13.5294 4.11765 17.2941 8.94118 17.2941C10.9412 17.2941 12.7059 16.5882 14.1176 15.5294L23.1765 23.7647C20.4706 25.5294 19.4118 28.5882 20.3529 31.2941C18.8235 32.9412 18.2353 35.2941 18.9412 37.5294L10.7059 40.1176C9.64706 38.4706 7.88235 37.2941 5.76471 37.2941C2.58824 37.2941 0 39.8824 0 43.0588C0 46.2353 2.58824 48.8235 5.76471 48.8235C8.94118 48.8235 11.5294 46.2353 11.5294 43.0588C11.5294 42.8235 11.5294 42.5882 11.4118 42.3529L20.1176 39.6471C20.4706 40 20.8235 40.3529 21.1765 40.7059C20.4706 44 22.4706 47.2941 26.1176 48.4706C25.5294 51.0588 27.1765 53.5294 29.7647 54.2353V54.3529L28.8235 60C28.5882 60 28.2353 60 28 60C23.7647 60 20.3529 63.4118 20.3529 67.6471C20.3529 71.8824 23.7647 75.2941 28 75.2941C32.2353 75.2941 35.6471 71.8824 35.6471 67.6471C35.6471 64.4706 33.7647 61.8824 31.0588 60.5882L32 54.7059C32 54.5882 32 54.5882 32 54.4706C33.5294 54.3529 34.9412 53.6471 35.7647 52.4706C36.7059 53.6471 38.3529 54.4706 40.1176 54.4706C43.6471 54.4706 46.1176 51.5294 45.4118 48.3529C49.0588 47.2941 51.0588 43.8824 50.3529 40.5882C51.7647 39.5294 52.5882 38 52.8235 36.3529L61.2941 37.2941C61.7647 40.7059 64.7059 43.1765 68.2353 43.1765C72.1177 43.1765 75.1765 40 75.1765 36.2353C75.1765 32.4706 72.1176 29.2941 68.3529 29.2941ZM5.76471 46.3529C3.88235 46.3529 2.35294 44.8235 2.35294 42.9412C2.35294 41.0588 3.88235 39.5294 5.76471 39.5294C7.64706 39.5294 9.17647 41.0588 9.17647 42.9412C9.17647 44.8235 7.64706 46.3529 5.76471 46.3529ZM33.4118 67.6471C33.4118 70.5882 31.0588 72.9412 28.1176 72.9412C25.1765 72.9412 22.8235 70.5882 22.8235 67.6471C22.8235 64.7059 25.1765 62.3529 28.1176 62.3529C30.9412 62.2353 33.4118 64.7059 33.4118 67.6471ZM53.7647 2.35294C56.4706 2.35294 58.5882 4.58824 58.5882 7.17647C58.5882 9.76471 56.3529 12 53.7647 12C51.0588 12 48.8235 9.76471 48.8235 7.17647C48.8235 4.58824 51.0588 2.35294 53.7647 2.35294ZM2.58824 8.70588C2.58824 5.17647 5.41177 2.35294 8.94118 2.35294C12.3529 2.35294 15.1765 5.17647 15.1765 8.58824C15.1765 12 12.3529 14.8235 8.94118 14.8235C5.41177 14.9412 2.58824 12.1176 2.58824 8.70588ZM31.4118 52.1176C28.9412 52.1176 27.6471 49.8824 28.7059 48.2353C29.1765 47.5294 28.7059 46.4706 27.8824 46.3529C24.9412 46.1176 22.8235 43.5294 23.6471 40.9412C24.2353 40.5882 25.7647 39.6471 28.4706 39.7647C29.0588 39.7647 29.6471 39.2941 29.6471 38.5882C29.6471 37.8824 29.1765 37.4118 28.4706 37.4118C25.5294 37.2941 23.5294 38.2353 22.4706 38.8235C20.3529 37.1765 20.3529 34.2353 22.3529 32.4706C22.8235 32.1176 22.9412 31.5294 22.5882 31.0588C21.4118 28.7059 22.9412 25.7647 26 25.0588C26.5882 25.6471 27.6471 26.9412 28.1176 28.7059C28.2353 29.2941 28.9412 29.7647 29.5294 29.5294C30.1176 29.4118 30.5882 28.7059 30.3529 28.1176C29.7647 25.5294 28.1176 23.7647 27.4118 23.1765C26.9412 21.2941 28.7059 19.5294 30.9412 19.5294C32.8235 19.5294 34.4706 20.8235 34.4706 22.5882V49.4118C34.5882 50.9412 33.1765 52.1176 31.4118 52.1176ZM48.9412 38.7059C47.8824 38.1176 45.8824 37.1765 42.9412 37.2941C42.2353 37.2941 41.7647 37.8824 41.7647 38.4706C41.7647 39.0588 42.3529 39.6471 42.9412 39.6471C45.6471 39.5294 47.2941 40.4706 47.7647 40.8235C48.5882 43.4118 46.4706 46 43.5294 46.2353C42.5882 46.3529 42.1176 47.2941 42.7059 48.1176C43.7647 49.7647 42.4706 52 40 52C38.2353 52 36.9412 50.8235 36.9412 49.2941C36.9412 45.8824 36.9412 25.2941 36.9412 22.4706C36.9412 20.7059 38.5882 19.4118 40.4706 19.4118C42.7059 19.4118 44.3529 21.1765 44 23.0588C43.2941 23.7647 41.5294 25.5294 40.9412 28.3529C40.8235 29.0588 41.2941 29.7647 42.1176 29.7647C42.7059 29.7647 43.1765 29.4118 43.2941 28.8235C43.6471 26.9412 44.8235 25.5294 45.4118 24.9412C48.4706 25.6471 50 28.4706 48.8235 30.9412C48.5882 31.4118 48.7059 32 49.0588 32.3529C51.1765 34.2353 51.0588 37.0588 48.9412 38.7059ZM68.3529 40.9412C65.7647 40.9412 63.6471 38.8235 63.6471 36.3529C63.6471 33.8824 65.7647 31.7647 68.3529 31.7647C70.9412 31.7647 72.9412 33.8824 72.9412 36.3529C72.9412 38.8235 70.8235 40.9412 68.3529 40.9412Z" fill="#1A72F5"/>
</svg>
