<svg width="80" height="80" viewBox="0 0 80 80" fill="none" xmlns="http://www.w3.org/2000/svg">
<g clip-path="url(#clip0_27156_685)">
<path d="M76 0H33.3333C32.2725 0 31.2551 0.421427 30.5049 1.17157C29.7548 1.92172 29.3333 2.93913 29.3333 4V32C29.3333 33.0609 29.7548 34.0783 30.5049 34.8284C31.2551 35.5786 32.2725 36 33.3333 36H37.3333V42.6667C37.3311 43.1679 37.4711 43.6594 37.7371 44.0843C38.0031 44.5091 38.3842 44.8497 38.836 45.0667C39.192 45.2413 39.584 45.3333 39.9813 45.3333C40.6143 45.3251 41.2255 45.1018 41.7147 44.7L51.12 36H76C77.0609 36 78.0783 35.5786 78.8284 34.8284C79.5786 34.0783 80 33.0609 80 32V4C80 2.93913 79.5786 1.92172 78.8284 1.17157C78.0783 0.421427 77.0609 0 76 0ZM77.3333 32C77.3333 32.3536 77.1929 32.6928 76.9428 32.9428C76.6928 33.1929 76.3536 33.3333 76 33.3333H51.12C50.4907 33.3333 49.8813 33.5587 49.4027 33.9667L40 42.6667V36C40 35.2928 39.719 34.6145 39.219 34.1144C38.7189 33.6143 38.0406 33.3333 37.3333 33.3333H33.3333C32.9797 33.3333 32.6406 33.1929 32.3905 32.9428C32.1405 32.6928 32 32.3536 32 32V4C32 3.64638 32.1405 3.30724 32.3905 3.05719C32.6406 2.80714 32.9797 2.66667 33.3333 2.66667H76C76.3536 2.66667 76.6928 2.80714 76.9428 3.05719C77.1929 3.30724 77.3333 3.64638 77.3333 4V32ZM76.944 48.4267C76.4103 48.2734 75.8515 48.2275 75.2999 48.2915C74.7484 48.3556 74.215 48.5284 73.7307 48.8L71.572 50.02L71.5027 49.9507C70.6021 49.0565 69.4659 48.4367 68.2266 48.1633C66.9873 47.89 65.6959 47.9744 64.5027 48.4067L53.62 52.5213L28.02 48.1493C25.78 47.7947 23.4867 48.016 21.3533 48.7893L15.904 51.1413C15.7084 50.2514 15.2148 49.4548 14.5048 48.8836C13.7949 48.3124 12.9112 48.0006 12 48H4C2.93913 48 1.92172 48.4214 1.17157 49.1716C0.421427 49.9217 0 50.9391 0 52L0 70.6667C0 71.7275 0.421427 72.7449 1.17157 73.4951C1.92172 74.2452 2.93913 74.6667 4 74.6667H12C13.0134 74.6623 13.9873 74.2736 14.7251 73.5788C15.4629 72.8841 15.9095 71.9353 15.9747 70.924C16.2452 70.9161 16.5153 70.9517 16.7747 71.0293L43.9333 79.7173C44.9557 80.0226 46.0363 80.0792 47.085 79.8826C48.1337 79.6859 49.1203 79.2416 49.9627 78.5867L78.4 55.792C78.8973 55.3946 79.2991 54.8908 79.576 54.3176C79.8529 53.7445 79.9978 53.1165 80 52.48C79.9957 51.7627 79.8124 51.0578 79.4667 50.4293C79.1985 49.9461 78.8376 49.5205 78.4047 49.1768C77.9719 48.8332 77.4755 48.5783 76.944 48.4267ZM45.8667 63.8547L41.8053 61.3333H51.552L47.1253 63.8347C46.9334 63.9414 46.7181 63.9991 46.4985 64.0026C46.2789 64.0061 46.0619 63.9552 45.8667 63.8547ZM65.4293 50.9067C66.0381 50.6869 66.6911 50.6178 67.3325 50.7053C67.9738 50.7928 68.5844 51.0344 69.112 51.4093L59.7787 56.6853C59.7483 56.4137 59.6911 56.1457 59.608 55.8853C59.584 55.808 59.5533 55.7333 59.5253 55.6573C59.4586 55.4741 59.3788 55.2959 59.2867 55.124C59.2467 55.0493 59.208 54.976 59.1627 54.904C59.047 54.716 58.9163 54.5377 58.772 54.3707C58.7413 54.336 58.7173 54.296 58.6853 54.2627C58.5043 54.0666 58.3052 53.888 58.0907 53.7293C58.0747 53.7187 58.0627 53.7027 58.0467 53.6907L65.4293 50.9067ZM13.3333 70.6667C13.3333 71.0203 13.1929 71.3594 12.9428 71.6095C12.6928 71.8595 12.3536 72 12 72H4C3.64638 72 3.30724 71.8595 3.05719 71.6095C2.80714 71.3594 2.66667 71.0203 2.66667 70.6667V52C2.66667 51.6464 2.80714 51.3072 3.05719 51.0572C3.30724 50.8071 3.64638 50.6667 4 50.6667H12C12.3536 50.6667 12.6928 50.8071 12.9428 51.0572C13.1929 51.3072 13.3333 51.6464 13.3333 52V53.0453C13.3333 53.076 13.32 53.104 13.32 53.1347L13.3333 69.828V70.6667ZM76.7387 53.7053L48.3147 76.4933C47.8123 76.881 47.2254 77.1444 46.6019 77.2621C45.9783 77.3798 45.3358 77.3485 44.7267 77.1707L17.584 68.488C17.0828 68.3321 16.5609 68.253 16.036 68.2533H16V54L22.3307 51.264C24.0147 50.6623 25.8233 50.4944 27.5893 50.776L53.5093 55.2027C53.5402 55.2084 53.5714 55.2124 53.6027 55.2147L55.8253 55.592C56.5733 55.716 57.1253 56.3573 57.1333 57.116C57.1373 57.5213 56.98 57.912 56.6947 58.2013C56.4013 58.496 56.0027 58.664 55.5867 58.6667H31.8C31.4464 58.6667 31.1072 58.8071 30.8572 59.0572C30.6071 59.3072 30.4667 59.6464 30.4667 60C30.4667 60.3536 30.6071 60.6928 30.8572 60.9428C31.1072 61.1929 31.4464 61.3333 31.8 61.3333H36.752L44.512 66.152C44.8147 66.3213 45.1373 66.4507 45.472 66.5387C45.676 66.5813 45.8827 66.608 46.0907 66.6187C46.2187 66.6413 46.3467 66.6587 46.476 66.668H46.4827C46.752 66.6613 47.02 66.628 47.2827 66.5667C47.3467 66.5533 47.416 66.5573 47.4787 66.5413C47.812 66.4547 48.132 66.328 48.432 66.16L72 52.8413L72.008 52.8347L75.0333 51.124C75.3752 50.931 75.7774 50.8748 76.159 50.9668C76.5406 51.0588 76.8732 51.292 77.0895 51.6196C77.3059 51.9471 77.39 52.3445 77.3249 52.7316C77.2598 53.1186 77.0503 53.4666 76.7387 53.7053Z" fill="#07A9EB"/>
<path d="M47.0575 19.6075C47.309 19.8504 47.6458 19.9848 47.9954 19.9817C48.345 19.9787 48.6794 19.8385 48.9266 19.5912C49.1738 19.344 49.314 19.0096 49.3171 18.66C49.3201 18.3104 49.1857 17.9736 48.9428 17.7222L44.5522 13.3315L48.9428 8.94082C49.0702 8.81783 49.1718 8.6707 49.2416 8.50803C49.3115 8.34536 49.3483 8.1704 49.3498 7.99336C49.3514 7.81632 49.3176 7.64074 49.2506 7.47688C49.1836 7.31302 49.0846 7.16415 48.9594 7.03896C48.8342 6.91377 48.6853 6.81477 48.5214 6.74773C48.3576 6.68068 48.182 6.64695 48.005 6.64849C47.8279 6.65003 47.653 6.68681 47.4903 6.75669C47.3276 6.82657 47.1805 6.92814 47.0575 7.05549L41.7242 12.3888C41.4742 12.6389 41.3338 12.9779 41.3338 13.3315C41.3338 13.685 41.4742 14.0241 41.7242 14.2742L47.0575 19.6075ZM60.3908 19.6075C60.6409 19.8574 60.9799 19.9979 61.3335 19.9979C61.6871 19.9979 62.0261 19.8574 62.2762 19.6075L67.6095 14.2742C67.8595 14.0241 67.9999 13.685 67.9999 13.3315C67.9999 12.9779 67.8595 12.6389 67.6095 12.3888L62.2762 7.05549C62.0247 6.81261 61.6879 6.67822 61.3383 6.68126C60.9887 6.68429 60.6543 6.82452 60.4071 7.07173C60.1599 7.31894 60.0196 7.65336 60.0166 8.00295C60.0136 8.35255 60.148 8.68935 60.3908 8.94082L64.7815 13.3315L60.3908 17.7222C60.1409 17.9722 60.0005 18.3113 60.0005 18.6648C60.0005 19.0184 60.1409 19.3575 60.3908 19.6075ZM53.0108 19.9582C53.3535 20.0433 53.7159 19.989 54.0186 19.8073C54.3213 19.6256 54.5395 19.3312 54.6255 18.9888L57.2922 8.32216C57.3753 7.98013 57.3197 7.61913 57.1377 7.31787C56.9557 7.01662 56.662 6.79956 56.3205 6.71402C55.9791 6.62849 55.6177 6.68143 55.3152 6.86129C55.0126 7.04116 54.7935 7.33335 54.7055 7.67415L52.0388 18.3408C51.9963 18.5108 51.9878 18.6876 52.0136 18.8609C52.0395 19.0342 52.0993 19.2008 52.1895 19.351C52.2798 19.5012 52.3988 19.6322 52.5397 19.7363C52.6807 19.8405 52.8408 19.9159 53.0108 19.9582ZM70.6668 22.6648H68.0002C67.6465 22.6648 67.3074 22.8053 67.0574 23.0553C66.8073 23.3054 66.6668 23.6445 66.6668 23.9982C66.6668 24.3518 66.8073 24.6909 67.0574 24.941C67.3074 25.191 67.6465 25.3315 68.0002 25.3315H70.6668C71.0205 25.3315 71.3596 25.191 71.6096 24.941C71.8597 24.6909 72.0002 24.3518 72.0002 23.9982C72.0002 23.6445 71.8597 23.3054 71.6096 23.0553C71.3596 22.8053 71.0205 22.6648 70.6668 22.6648ZM38.6668 25.3315H61.3335C61.6871 25.3315 62.0263 25.191 62.2763 24.941C62.5264 24.6909 62.6668 24.3518 62.6668 23.9982C62.6668 23.6445 62.5264 23.3054 62.2763 23.0553C62.0263 22.8053 61.6871 22.6648 61.3335 22.6648H38.6668C38.3132 22.6648 37.9741 22.8053 37.724 23.0553C37.474 23.3054 37.3335 23.6445 37.3335 23.9982C37.3335 24.3518 37.474 24.6909 37.724 24.941C37.9741 25.191 38.3132 25.3315 38.6668 25.3315ZM70.6668 27.9982H69.3335C68.9799 27.9982 68.6407 28.1386 68.3907 28.3887C68.1406 28.6387 68.0002 28.9779 68.0002 29.3315C68.0002 29.6851 68.1406 30.0243 68.3907 30.2743C68.6407 30.5243 68.9799 30.6648 69.3335 30.6648H70.6668C71.0205 30.6648 71.3596 30.5243 71.6096 30.2743C71.8597 30.0243 72.0002 29.6851 72.0002 29.3315C72.0002 28.9779 71.8597 28.6387 71.6096 28.3887C71.3596 28.1386 71.0205 27.9982 70.6668 27.9982ZM64.0002 27.9982H48.0002C47.6465 27.9982 47.3074 28.1386 47.0574 28.3887C46.8073 28.6387 46.6668 28.9779 46.6668 29.3315C46.6668 29.6851 46.8073 30.0243 47.0574 30.2743C47.3074 30.5243 47.6465 30.6648 48.0002 30.6648H64.0002C64.3538 30.6648 64.6929 30.5243 64.943 30.2743C65.193 30.0243 65.3335 29.6851 65.3335 29.3315C65.3335 28.9779 65.193 28.6387 64.943 28.3887C64.6929 28.1386 64.3538 27.9982 64.0002 27.9982ZM42.6668 27.9982H38.6668C38.3132 27.9982 37.9741 28.1386 37.724 28.3887C37.474 28.6387 37.3335 28.9779 37.3335 29.3315C37.3335 29.6851 37.474 30.0243 37.724 30.2743C37.9741 30.5243 38.3132 30.6648 38.6668 30.6648H42.6668C43.0205 30.6648 43.3596 30.5243 43.6096 30.2743C43.8597 30.0243 44.0002 29.6851 44.0002 29.3315C44.0002 28.9779 43.8597 28.6387 43.6096 28.3887C43.3596 28.1386 43.0205 27.9982 42.6668 27.9982ZM9.3335 53.3315H6.66683C6.31321 53.3315 5.97407 53.472 5.72402 53.722C5.47397 53.9721 5.3335 54.3112 5.3335 54.6648C5.3335 55.0184 5.47397 55.3576 5.72402 55.6076C5.97407 55.8577 6.31321 55.9982 6.66683 55.9982H9.3335C9.68712 55.9982 10.0263 55.8577 10.2763 55.6076C10.5264 55.3576 10.6668 55.0184 10.6668 54.6648C10.6668 54.3112 10.5264 53.9721 10.2763 53.722C10.0263 53.472 9.68712 53.3315 9.3335 53.3315ZM9.3335 66.6648H6.66683C6.31321 66.6648 5.97407 66.8053 5.72402 67.0553C5.47397 67.3054 5.3335 67.6445 5.3335 67.9982C5.3335 68.3518 5.47397 68.6909 5.72402 68.941C5.97407 69.191 6.31321 69.3315 6.66683 69.3315H9.3335C9.68712 69.3315 10.0263 69.191 10.2763 68.941C10.5264 68.6909 10.6668 68.3518 10.6668 67.9982C10.6668 67.6445 10.5264 67.3054 10.2763 67.0553C10.0263 66.8053 9.68712 66.6648 9.3335 66.6648Z" fill="#07A9EB"/>
</g>
<defs>
<clipPath id="clip0_27156_685">
<rect width="80" height="80" fill="white"/>
</clipPath>
</defs>
</svg>
