<svg width="78" height="78" viewBox="0 0 78 78" fill="none" xmlns="http://www.w3.org/2000/svg">
<path fill-rule="evenodd" clip-rule="evenodd" d="M20.6706 68.4543L21.8726 70.578L21.8743 70.5812C22.7747 72.1826 22.2039 74.2262 20.6114 75.1256L16.6452 77.3738L16.6412 77.3758C15.0398 78.2762 12.9962 77.7054 12.0965 76.1123L0.432618 55.5026C-0.475774 53.8999 0.0950492 51.8546 1.68925 50.954L5.66023 48.706L5.66132 48.7054C7.25505 47.8053 9.29928 48.3711 10.2067 49.9649L10.2085 49.9677L11.2 51.7197L21.7184 45.6298C21.8342 45.563 21.95 45.4968 22.0659 45.4317V2.40047C22.0659 1.07576 23.1418 0 24.4665 0H59.4899C60.1493 0 60.7201 0.239373 61.1834 0.702745L67.5992 7.11843C68.0626 7.5818 68.3019 8.15263 68.3019 8.81208V45.554C71.6511 44.2955 74.0111 44.6915 75.4903 45.6838C77.1045 46.7667 77.8493 48.6173 77.8011 50.4323C77.7525 52.2645 76.8844 54.0173 75.4475 54.9021L49.7846 70.7024C47.1216 72.346 44.2045 72.7311 41.1826 71.925L41.1812 71.9246L23.0676 67.0701L20.6706 68.4543ZM12.4362 53.9042L19.4343 66.27L22.2627 64.6367C22.4055 64.5543 22.5631 64.5008 22.7265 64.4793C22.8899 64.4578 23.056 64.4687 23.2152 64.5114L41.8298 69.5001C44.1608 70.1219 46.4122 69.8344 48.4665 68.5666L48.4676 68.566L74.1314 52.765C74.8342 52.3322 75.2072 51.4659 75.2808 50.5749C75.3936 49.2064 74.7462 47.6991 73.0533 47.3445C71.5316 47.0257 69.3863 47.5205 66.4703 49.2193L52.328 57.456C50.0913 58.7594 47.747 59.1187 45.1921 58.7122L45.1879 58.7114L43.4343 58.426L43.4328 58.4259C43.4158 58.4231 43.3989 58.4199 43.3821 58.4165L43.3804 58.4162C40.1915 57.7616 37.2342 56.798 33.9525 55.9161C33.2836 55.7363 32.8864 55.0474 33.0662 54.3785C33.246 53.7096 33.9349 53.3125 34.6038 53.4922C37.8174 54.3559 40.7142 55.3029 43.8343 55.9471C45.5035 56.1346 46.7192 55.4342 47.1027 54.0056L47.1029 54.005C47.4927 52.5559 46.5879 51.1468 45.1771 50.6525C39.512 49.6146 33.9658 47.262 30.565 46.1594L30.5645 46.1592C27.88 45.2874 25.4193 46.3889 22.9752 47.8024L12.4362 53.9042ZM24.5757 44.2102C26.7542 43.3402 28.9896 43.0089 31.3394 43.7719C34.6833 44.8563 40.1427 47.1925 45.714 48.1992C45.7692 48.2093 45.824 48.2229 45.8775 48.2402C48.6085 49.1245 50.2725 51.8836 49.5266 54.6568C49.3782 55.2097 49.1672 55.7117 48.8982 56.1569C49.6381 55.9846 50.3584 55.6988 51.0643 55.2875L65.207 47.0507C65.4006 46.9379 65.5957 46.8276 65.7921 46.72V9.59592H60.5336C59.5319 9.59592 58.706 8.77004 58.706 7.76816V2.5098H24.5757V44.2102ZM64.0174 7.08612L61.2158 4.28455V7.08612H64.0174ZM38.1379 38.2455C37.9026 38.0101 37.7704 37.691 37.7704 37.3582C37.7704 37.0254 37.9026 36.7063 38.1379 36.4709C38.3733 36.2357 38.6924 36.1036 39.0252 36.1036C39.3579 36.1036 39.6771 36.2357 39.9125 36.4709L43.8133 40.3716L50.4554 33.7296C50.6908 33.4944 51.01 33.3623 51.3427 33.3623C51.6755 33.3623 51.9947 33.4944 52.2301 33.7296C52.4653 33.965 52.5974 34.2842 52.5974 34.6169C52.5974 34.9497 52.4653 35.2689 52.2301 35.5043L44.7007 43.0337C44.5842 43.1503 44.4458 43.2427 44.2936 43.3058C44.1413 43.3688 43.9781 43.4013 43.8133 43.4013C43.6485 43.4013 43.4853 43.3688 43.3331 43.3058C43.1808 43.2427 43.0425 43.1503 42.9259 43.0337L38.1379 38.2455ZM30.4397 14.9842C29.7471 14.9842 29.1848 14.422 29.1848 13.7293C29.1848 13.0367 29.7471 12.4744 30.4397 12.4744H52.6099C53.3024 12.4744 53.8648 13.0367 53.8648 13.7293C53.8648 14.422 53.3024 14.9842 52.6099 14.9842H30.4397ZM30.4397 28.9093C29.7471 28.9093 29.1848 28.347 29.1848 27.6544C29.1848 26.9617 29.7471 26.3995 30.4397 26.3995H59.9281C60.6207 26.3995 61.1831 26.9617 61.1831 27.6544C61.1831 28.347 60.6207 28.9093 59.9281 28.9093H30.4397ZM30.4397 21.9468C29.7471 21.9468 29.1848 21.3845 29.1848 20.6919C29.1848 19.9992 29.7471 19.437 30.4397 19.437H59.9281C60.6207 19.437 61.1831 19.9992 61.1831 20.6919C61.1831 21.3845 60.6207 21.9468 59.9281 21.9468H30.4397ZM8.0254 51.2061L8.02415 51.2041C7.79764 50.8097 7.29129 50.6673 6.89583 50.8907L2.92579 53.1382L2.9247 53.1388C2.53003 53.3617 2.39136 53.8686 2.61615 54.2651L2.61662 54.2657L14.2808 74.8762L14.2812 74.8772C14.5048 75.2728 15.0127 75.4116 15.4103 75.1887L19.374 72.9421L19.3755 72.9413C19.7713 72.7178 19.9101 72.2097 19.687 71.8119L8.0254 51.2061ZM6.40627 53.4483C7.3065 53.3144 8.14242 53.936 8.27638 54.8362C8.40501 55.7365 7.78336 56.5777 6.88329 56.7064C5.98305 56.8403 5.14713 56.2133 5.01317 55.3131C4.88454 54.4129 5.50603 53.5769 6.40627 53.4483Z" fill="#5D49FA"/>
</svg>
