<svg width="70" height="70" viewBox="0 0 70 70" fill="none" xmlns="http://www.w3.org/2000/svg">
<path d="M34.9574 55.6844C30.8584 55.6844 26.8514 54.4689 23.4432 52.1916C20.035 49.9143 17.3787 46.6775 15.81 42.8905C14.2414 39.1035 13.831 34.9364 14.6307 30.9161C15.4303 26.8959 17.4042 23.203 20.3026 20.3046C23.2011 17.4062 26.8939 15.4323 30.9142 14.6326C34.9344 13.8329 39.1015 14.2434 42.8885 15.812C46.6755 17.3806 49.9123 20.037 52.1896 23.4452C54.4669 26.8534 55.6824 30.8604 55.6824 34.9594C55.6762 40.4541 53.4906 45.7219 49.6053 49.6072C45.7199 53.4926 40.4521 55.6781 34.9574 55.6844ZM34.9574 16.7344C31.3529 16.7344 27.8292 17.8033 24.8322 19.8059C21.8351 21.8084 19.4991 24.6548 18.1197 27.985C16.7403 31.3152 16.3794 34.9796 17.0826 38.5149C17.7858 42.0502 19.5216 45.2976 22.0704 47.8464C24.6192 50.3952 27.8666 52.131 31.4019 52.8342C34.9372 53.5374 38.6017 53.1765 41.9318 51.7971C45.262 50.4177 48.1084 48.0817 50.111 45.0847C52.1136 42.0876 53.1824 38.5639 53.1824 34.9594C53.1771 30.1274 51.2553 25.4949 47.8386 22.0782C44.4219 18.6615 39.7894 16.7397 34.9574 16.7344Z" fill="#B426F1"/>
<path d="M42.4575 36.2091H34.9575C34.626 36.2091 34.3081 36.0774 34.0736 35.8429C33.8392 35.6085 33.7075 35.2906 33.7075 34.9591V22.4141C33.7075 22.0825 33.8392 21.7646 34.0736 21.5302C34.3081 21.2958 34.626 21.1641 34.9575 21.1641C35.289 21.1641 35.607 21.2958 35.8414 21.5302C36.0758 21.7646 36.2075 22.0825 36.2075 22.4141V33.7091H42.4575C42.789 33.7091 43.107 33.8408 43.3414 34.0752C43.5758 34.3096 43.7075 34.6275 43.7075 34.9591C43.7075 35.2906 43.5758 35.6085 43.3414 35.8429C43.107 36.0774 42.789 36.2091 42.4575 36.2091Z" fill="#B426F1"/>
<path d="M38.4975 69.915H31.165C30.5854 69.9157 30.0222 69.7224 29.5653 69.3658C29.1083 69.0092 28.7839 68.5099 28.6438 67.9475L27.1113 61.825C25.0734 61.2303 23.1102 60.4045 21.26 59.3638L15.9163 62.57C15.4194 62.8689 14.8368 62.9927 14.2613 62.9218C13.6858 62.8509 13.1507 62.5893 12.7413 62.1788L7.5575 56.995C7.14696 56.5856 6.88536 56.0504 6.81445 55.475C6.74353 54.8995 6.86739 54.3169 7.16625 53.82L10.4125 48.4075C9.39105 46.5471 8.58582 44.576 8.0125 42.5325L1.9675 41.02C1.40509 40.8798 0.905786 40.5554 0.5492 40.0985C0.192614 39.6415 -0.000726202 39.0784 2.0498e-06 38.4988V31.1663C-0.000726202 30.5866 0.192614 30.0235 0.5492 29.5665C0.905786 29.1096 1.40509 28.7852 1.9675 28.645L8.09 27.1125C8.68465 25.0746 9.51043 23.1115 10.5513 21.2613L7.345 15.9163C7.04635 15.4193 6.92262 14.8367 6.99353 14.2613C7.06444 13.6859 7.3259 13.1508 7.73625 12.7413L12.9213 7.5575C13.3305 7.14657 13.8656 6.8847 14.4412 6.81378C15.0168 6.74285 15.5995 6.86695 16.0963 7.16625L21.5088 10.4125C23.3692 9.39083 25.3403 8.58518 27.3838 8.01125L28.8963 1.9675C29.0364 1.40509 29.3608 0.905786 29.8178 0.5492C30.2747 0.192614 30.8379 -0.000726202 31.4175 2.0498e-06H38.75C39.3296 -0.000726202 39.8928 0.192614 40.3497 0.5492C40.8067 0.905786 41.1311 1.40509 41.2713 1.9675L42.8038 8.09C44.8421 8.68454 46.8057 9.51033 48.6563 10.5513L53.9988 7.345C54.4957 7.04657 55.0783 6.92297 55.6536 6.99387C56.229 7.06476 56.7641 7.32609 57.1738 7.73625L62.3575 12.9213C62.768 13.3307 63.0296 13.8658 63.1006 14.4413C63.1715 15.0168 63.0476 15.5994 62.7488 16.0963L59.5025 21.5088C60.5242 23.3692 61.3298 25.3403 61.9038 27.3838L67.9475 28.8963C68.5099 29.0364 69.0092 29.3608 69.3658 29.8178C69.7224 30.2747 69.9157 30.8379 69.915 31.4175V38.75C69.9157 39.3296 69.7224 39.8928 69.3658 40.3497C69.0092 40.8067 68.5099 41.1311 67.9475 41.2713L61.8263 42.8025C61.2316 44.8414 60.4054 46.8054 59.3638 48.6563L62.57 54C62.869 54.4967 62.9931 55.0793 62.9224 55.6547C62.8517 56.2302 62.5904 56.7654 62.18 57.175L56.995 62.36C56.5854 62.7704 56.0502 63.0317 55.4747 63.1024C54.8993 63.1731 54.3167 63.049 53.82 62.75L48.4075 59.5025C46.5468 60.5242 44.5752 61.3294 42.5312 61.9025L41.0188 67.9475C40.8786 68.5099 40.5542 69.0092 40.0972 69.3658C39.6403 69.7224 39.0771 69.9157 38.4975 69.915ZM21.2488 56.6625C21.475 56.6624 21.6971 56.7238 21.8913 56.84C23.9405 58.0678 26.1533 58.9991 28.4638 59.6063C28.6803 59.6631 28.8776 59.7771 29.0351 59.9363C29.1925 60.0955 29.3043 60.2941 29.3588 60.5113L31.07 67.34L38.4975 67.415L40.285 60.5813C40.3399 60.3619 40.4533 60.1615 40.6131 60.0014C40.7729 59.8414 40.9732 59.7277 41.1925 59.6725C43.5095 59.0897 45.7324 58.182 47.795 56.9763C47.9883 56.8635 48.2084 56.8046 48.4323 56.806C48.6561 56.8073 48.8755 56.8687 49.0675 56.9838L55.1075 60.6063L60.4125 55.4063L56.8413 49.31C56.7249 49.1159 56.6635 48.8938 56.6635 48.6675C56.6635 48.4412 56.7249 48.2191 56.8413 48.025C58.0686 45.9747 58.9999 43.7611 59.6075 41.45C59.6643 41.2333 59.7782 41.0358 59.9374 40.8781C60.0966 40.7205 60.2952 40.6084 60.5125 40.5538L67.34 38.845L67.415 31.4175L60.5825 29.63C60.3633 29.5752 60.163 29.462 60.0029 29.3024C59.8429 29.1428 59.7292 28.9428 59.6738 28.7238C59.0904 26.4063 58.1822 24.1831 56.9763 22.12C56.8635 21.9267 56.8046 21.7066 56.806 21.4827C56.8073 21.2589 56.8687 21.0395 56.9838 20.8475L60.605 14.8088L55.405 9.50375L49.3088 13.0738C49.1146 13.1901 48.8926 13.2515 48.6663 13.2515C48.4399 13.2515 48.2179 13.1901 48.0238 13.0738C45.9739 11.8465 43.7607 10.9156 41.45 10.3088C41.2335 10.2518 41.0363 10.1377 40.8788 9.97856C40.7214 9.81938 40.6096 9.62087 40.555 9.40375L38.845 2.575L31.4175 2.5L29.63 9.3325C29.5754 9.55198 29.4623 9.75253 29.3027 9.91279C29.1431 10.073 28.943 10.187 28.7238 10.2425C26.4064 10.8255 24.1832 11.7332 22.12 12.9388C21.9269 13.0523 21.7067 13.1116 21.4827 13.1103C21.2587 13.1089 21.0392 13.0471 20.8475 12.9313L14.8088 9.31L9.50375 14.51L13.0738 20.6063C13.1901 20.8004 13.2515 21.0224 13.2515 21.2488C13.2515 21.4751 13.1901 21.6971 13.0738 21.8913C11.8465 23.9411 10.9156 26.1543 10.3088 28.465C10.2518 28.6815 10.1377 28.8787 9.97856 29.0362C9.81938 29.1936 9.62087 29.3054 9.40375 29.36L2.575 31.07L2.5 38.4975L9.3325 40.285C9.55198 40.3396 9.75253 40.4527 9.91279 40.6123C10.073 40.7719 10.187 40.972 10.2425 41.1913C10.8254 43.5082 11.7331 45.7311 12.9388 47.7938C13.0518 47.9872 13.1107 48.2076 13.1094 48.4317C13.1081 48.6557 13.0466 48.8754 12.9313 49.0675L9.31 55.1063L14.51 60.4113L20.6063 56.8413C20.8002 56.7245 21.0223 56.6627 21.2488 56.6625Z" fill="#B426F1"/>
</svg>
