<svg width="52" height="52" viewBox="0 0 52 52" fill="none" xmlns="http://www.w3.org/2000/svg">
<path d="M31.0817 34.4951L29.0805 33.9278C28.8205 32.9114 28.4187 31.9502 27.8987 31.0757L28.915 29.2636C29.1908 28.7751 29.1041 28.1527 28.7023 27.7508L27.2605 26.309C26.8587 25.9072 26.2441 25.8284 25.7556 26.1042L23.9356 27.1205C23.0532 26.6005 22.0999 26.1908 21.0835 25.9308L20.5241 23.9375C20.3744 23.386 19.8702 23.0078 19.3108 23.0078H17.2702C16.7029 23.0078 16.2065 23.386 16.0569 23.9375L15.4975 25.9308C14.489 26.1908 13.5199 26.5927 12.6453 27.1205L10.8253 26.1042C10.3369 25.8284 9.71443 25.9151 9.32049 26.309L7.87867 27.7508C7.47685 28.1527 7.39019 28.7751 7.66594 29.2636L8.68231 31.0757C8.16231 31.9581 7.76049 32.9114 7.50049 33.9278L5.49928 34.4951C4.94776 34.6448 4.56958 35.149 4.56958 35.7084V37.7411C4.56958 38.3084 4.94776 38.8048 5.49928 38.9545L7.49261 39.5139C7.75261 40.5302 8.15443 41.4993 8.68231 42.3739L7.66594 44.186C7.39019 44.6745 7.47685 45.2969 7.87867 45.6987L9.32049 47.1405C9.71443 47.5424 10.3369 47.6211 10.8253 47.3454L12.6453 46.329C13.5278 46.849 14.489 47.2587 15.4975 47.5187L16.0569 49.5121C16.2065 50.0636 16.7108 50.4417 17.2702 50.4417H19.3108C19.8781 50.4417 20.3744 50.0636 20.5241 49.5121L21.0835 47.5187C22.0999 47.2587 23.0611 46.8569 23.9356 46.329L25.7556 47.3454C26.2441 47.6211 26.8666 47.5345 27.2605 47.1405L28.7023 45.6987C29.1041 45.2969 29.1908 44.6745 28.915 44.186L27.8987 42.3739C28.4187 41.4914 28.8284 40.5302 29.0884 39.5139L31.0817 38.9545C31.6332 38.8048 32.0114 38.3005 32.0114 37.7411V35.7084C32.0035 35.149 31.6332 34.6527 31.0817 34.4951ZM18.2787 42.6418C15.0169 42.6418 12.3775 39.9945 12.3775 36.7327C12.3775 33.4708 15.0169 30.8236 18.2787 30.8236C21.5484 30.8236 24.1878 33.4708 24.1878 36.7327C24.1878 39.9945 21.5484 42.6418 18.2787 42.6418ZM49.1714 40.6327L47.9344 40.286C47.7769 39.6636 47.5326 39.0727 47.2096 38.529L47.832 37.4102C48.0053 37.1108 47.9502 36.7248 47.6981 36.4805L46.8156 35.5981C46.6957 35.4784 46.5399 35.4013 46.372 35.3785C46.2041 35.3557 46.0334 35.3886 45.8859 35.4721L44.7672 36.0945C44.2235 35.7714 43.6405 35.5272 43.0102 35.3618L42.6635 34.1327C42.618 33.9692 42.5201 33.8253 42.3849 33.7228C42.2498 33.6203 42.0847 33.565 41.915 33.5654H40.6544C40.3078 33.5654 40.0005 33.7939 39.9059 34.1327L39.5593 35.3618C38.9369 35.5193 38.3459 35.7714 37.8023 36.0945L36.6835 35.4721C36.5361 35.3886 36.3653 35.3557 36.1974 35.3785C36.0295 35.4013 35.8737 35.4784 35.7538 35.5981L34.8714 36.4805C34.6193 36.7327 34.572 37.1108 34.7375 37.4102L35.3678 38.529C35.0415 39.0761 34.7972 39.668 34.6429 40.286L33.4059 40.6327C33.0672 40.7272 32.8387 41.0345 32.8387 41.3811V42.6339C32.8387 42.9805 33.0672 43.2878 33.4059 43.3824L34.635 43.729C34.7926 44.3514 35.0447 44.9502 35.3678 45.4939L34.7375 46.6127C34.5641 46.9121 34.6193 47.2981 34.8714 47.5424L35.7538 48.4248C35.9981 48.669 36.3762 48.7242 36.6835 48.5508L37.8023 47.9205C38.3459 48.2436 38.9369 48.4878 39.5593 48.6533L39.9059 49.8824C40.0005 50.2211 40.3078 50.4496 40.6544 50.4496H41.915C42.2617 50.4496 42.569 50.2211 42.6635 49.8824L43.0102 48.6533C43.6326 48.4957 44.2235 48.2436 44.7672 47.9205L45.8859 48.5508C46.1853 48.7242 46.5714 48.669 46.8156 48.4248L47.6981 47.5424C47.9502 47.2902 47.9975 46.9121 47.832 46.6127L47.2096 45.4939C47.5326 44.9502 47.7769 44.3593 47.9423 43.729L49.1714 43.3824C49.5102 43.2878 49.7387 42.9805 49.7387 42.6339V41.3811C49.7387 41.0345 49.5102 40.7272 49.1714 40.6327ZM41.2926 45.6436C39.2835 45.6436 37.6605 44.0127 37.6605 42.0114C37.6605 40.0102 39.2835 38.3793 41.2926 38.3793C43.3017 38.3793 44.9247 40.0102 44.9247 42.0114C44.9247 44.0127 43.3017 45.6436 41.2926 45.6436Z" fill="url(#paint0_linear_27156_743)"/>
<path d="M6.68112 30.6589L6.3187 30.0129C5.71203 28.9335 5.90112 27.5547 6.78354 26.6723L8.22536 25.2304C8.48372 24.9717 8.79083 24.7667 9.12893 24.6274C9.46703 24.4881 9.82939 24.4173 10.1951 24.4189C10.6757 24.4189 11.1484 24.545 11.5581 24.7735L12.6375 25.3801C13.1575 25.1201 13.6932 24.8995 14.2369 24.7183L14.5678 23.5365C14.7316 22.9498 15.0829 22.4328 15.568 22.0644C16.053 21.696 16.6453 21.4963 17.2545 21.4959H19.2951C20.5399 21.4959 21.6508 22.3389 21.9817 23.5365L22.3126 24.7183C22.8563 24.8995 23.392 25.128 23.912 25.388L24.9993 24.7814C25.409 24.5529 25.8817 24.4268 26.3623 24.4268C27.1108 24.4268 27.812 24.7183 28.332 25.2383L29.7738 26.6801C30.2049 27.1118 30.4835 27.6722 30.5674 28.2765C30.6513 28.8807 30.5359 29.4959 30.2387 30.0286L29.632 31.108C29.7029 31.242 29.7581 31.3838 29.8211 31.5177H41.6314C45.3266 31.5177 48.3205 28.5238 48.3205 24.8365C48.3213 23.1513 47.6853 21.5279 46.5398 20.2919C45.3943 19.0558 43.824 18.2982 42.1435 18.1711C41.269 18.242 40.4023 18.502 39.646 18.9353C39.5278 19.0062 39.3938 19.0377 39.2678 19.0377C39.1329 19.039 39.0002 19.0037 38.8837 18.9358C38.7672 18.8678 38.6713 18.7697 38.606 18.6517C38.5553 18.565 38.5224 18.4691 38.5093 18.3696C38.4961 18.2701 38.5029 18.1689 38.5294 18.0721C38.5558 17.9752 38.6012 17.8846 38.6631 17.8056C38.725 17.7265 38.802 17.6606 38.8896 17.6117C39.9926 16.9735 41.269 16.6504 42.5375 16.6426C42.5848 16.3274 42.6163 16.0044 42.6163 15.6814C42.6163 11.9468 39.5908 8.92135 35.8642 8.92135C34.4066 8.92135 33.0514 9.3862 31.9484 10.1741C31.0423 5.25772 26.7405 1.55469 21.5799 1.55469C15.7575 1.55469 11.0381 6.27408 11.0381 12.0965C11.0381 12.7189 11.0932 13.3335 11.1957 13.9323C12.1096 14.1765 12.9763 14.5547 13.772 15.0826C14.1266 15.3189 14.2211 15.7917 13.9848 16.1383C13.8351 16.3589 13.5987 16.4771 13.3466 16.4771C13.2048 16.4771 13.0551 16.4377 12.9211 16.3511C12.5114 16.0753 12.0781 15.8547 11.629 15.6735C11.172 15.5947 10.7072 15.5474 10.2266 15.5474C5.81445 15.5474 2.24536 19.1244 2.24536 23.5286C2.26112 26.6486 4.05748 29.3511 6.68112 30.6589ZM31.8066 12.7032C31.3811 12.7032 31.0423 12.3644 31.0423 11.9389C31.0423 11.5135 31.3811 11.1747 31.8066 11.1747H34.3829C34.8084 11.1747 35.1472 11.5135 35.1472 11.9389C35.1472 12.3644 34.8084 12.7032 34.3829 12.7032H33.8629V18.5256H34.3829C34.8084 18.5256 35.1472 18.8644 35.1472 19.2898C35.1472 19.7153 34.8084 20.0541 34.3829 20.0541H31.8066C31.3811 20.0541 31.0423 19.7153 31.0423 19.2898C31.0423 18.8644 31.3811 18.5256 31.8066 18.5256H32.3266V12.7032H31.8066ZM24.5266 12.128C24.5266 11.4977 25.0387 10.9856 25.669 10.9856H28.009C29.6163 10.9856 30.9163 12.2935 30.9163 13.8929C30.9163 15.4923 29.6084 16.8001 28.009 16.8001H26.0551V19.282C26.0551 19.7074 25.7163 20.0462 25.2908 20.0462C24.8654 20.0462 24.5266 19.7074 24.5266 19.282V12.128ZM16.4745 14.1844C16.4745 12.4195 17.9084 10.9935 19.6654 10.9935C21.4223 10.9935 22.8563 12.4274 22.8563 14.1844V19.2898C22.8563 19.7153 22.5175 20.0541 22.092 20.0541C21.6666 20.0541 21.3278 19.7153 21.3278 19.2898V16.808H17.9951V19.2898C17.9951 19.7153 17.6563 20.0541 17.2308 20.0541C16.8054 20.0541 16.4666 19.7153 16.4666 19.2898V14.1844H16.4745Z" fill="url(#paint1_linear_27156_743)"/>
<path d="M29.3877 13.9022C29.3877 13.138 28.7653 12.5234 28.0089 12.5234H26.055V15.281H28.0089C28.7732 15.281 29.3877 14.6586 29.3877 13.9022ZM21.3356 14.1859C21.3356 13.745 21.1604 13.3221 20.8487 13.0104C20.5369 12.6986 20.1141 12.5234 19.6732 12.5234C19.2323 12.5234 18.8094 12.6986 18.4977 13.0104C18.1859 13.3221 18.0107 13.745 18.0107 14.1859V15.281H21.3435V14.1859H21.3356Z" fill="url(#paint2_linear_27156_743)"/>
<defs>
<linearGradient id="paint0_linear_27156_743" x1="4.56268" y1="22.9631" x2="50.116" y2="23.5925" gradientUnits="userSpaceOnUse">
<stop stop-color="#23BFF8"/>
<stop offset="1" stop-color="#8F47CF"/>
</linearGradient>
<linearGradient id="paint1_linear_27156_743" x1="2.23832" y1="1.50592" x2="48.7066" y2="2.1057" gradientUnits="userSpaceOnUse">
<stop stop-color="#23BFF8"/>
<stop offset="1" stop-color="#8F47CF"/>
</linearGradient>
<linearGradient id="paint2_linear_27156_743" x1="18.009" y1="12.5189" x2="29.4712" y2="12.9159" gradientUnits="userSpaceOnUse">
<stop stop-color="#23BFF8"/>
<stop offset="1" stop-color="#8F47CF"/>
</linearGradient>
</defs>
</svg>
