<svg width="38" height="50" viewBox="0 0 38 50" fill="none" xmlns="http://www.w3.org/2000/svg">
<path fill-rule="evenodd" clip-rule="evenodd" d="M18.89 0C7.7584 0 0 3.75492 0 7.1188C0 10.4926 7.7584 14.2475 18.89 14.2475C30.0217 14.2475 37.7712 10.4926 37.7712 7.11932C37.7712 3.74608 30.0217 0 18.89 0ZM33.5457 14.1055C28.8644 15.8681 23.8913 16.7265 18.89 16.6353C13.8857 16.7273 8.9093 15.8689 4.225 14.1055C2.69732 13.5028 1.27212 12.6674 0 11.6288V18.5084C0.03536 21.8639 7.8026 25.61 18.89 25.61C29.9681 25.61 37.7354 21.8639 37.7712 18.5084V11.6199C36.5015 12.6645 35.0756 13.5032 33.5457 14.1055ZM33.5098 25.4857C28.8378 27.2344 23.8779 28.0865 18.89 27.9973C13.8982 28.0886 8.93424 27.2332 4.26088 25.4764C2.7153 24.8805 1.27639 24.0382 0 22.9824V30.3056C0.03536 31.9394 1.97912 33.7147 5.19272 35.0636C9.56386 36.7272 14.2133 37.538 18.8895 37.452C29.9681 37.452 37.7354 33.7054 37.7707 30.3503V22.9819C36.4925 24.0376 35.0541 24.8828 33.5098 25.4857ZM33.5098 37.3272V37.3183C29.0793 38.982 24.386 39.8361 19.6534 39.8398C19.396 39.8398 19.1474 39.8398 18.89 39.8304C10.5986 39.8304 3.52404 37.7801 0 34.7266V42.2807C0 45.6451 7.7584 49.4 18.89 49.4C30.0128 49.4 37.7712 45.6539 37.7712 42.2812V34.8244C36.4928 35.8798 35.0543 36.7247 33.5098 37.3272Z" fill="url(#paint0_linear_27156_741)"/>
<defs>
<linearGradient id="paint0_linear_27156_741" x1="-0.00577399" y1="-0.0804055" x2="38.0925" y2="0.164102" gradientUnits="userSpaceOnUse">
<stop stop-color="#23BFF8"/>
<stop offset="1" stop-color="#8F47CF"/>
</linearGradient>
</defs>
</svg>
