<svg width="52" height="52" viewBox="0 0 52 52" fill="none" xmlns="http://www.w3.org/2000/svg">
<path d="M52 29.7266V22.2734H46.9751C46.4854 19.127 45.3015 16.2104 43.585 13.6851L47.0199 10.2504L41.7496 4.98012L38.3778 8.35189C35.852 6.54509 32.9114 5.28166 29.7265 4.73088V0H22.2733V4.76724C19.1172 5.34523 16.2069 6.62502 13.7085 8.43842L10.2502 4.98012L4.97991 10.2504L8.53745 13.8079C6.86562 16.3048 5.71177 19.1778 5.22996 22.2735H0V29.7267H5.39053C5.9864 32.6987 7.20515 35.4453 8.90551 37.8243L4.98002 41.7498L10.2503 47.0201L14.2368 43.0336C16.6137 44.6505 19.3374 45.7949 22.2734 46.3326V52H29.7266V46.3688C32.6903 45.8563 35.4425 44.7265 37.8457 43.116L41.7496 47.0199L47.0199 41.7496L43.2131 37.9428C44.9584 35.5365 46.2089 32.7483 46.8147 29.7266H52ZM26.0966 41.0419C17.6626 41.0419 10.8012 34.1792 10.8012 25.7438C10.8012 17.3083 17.6626 10.4456 26.0966 10.4456C34.5305 10.4456 41.392 17.3083 41.392 25.7438C41.392 34.1792 34.5305 41.0419 26.0966 41.0419Z" fill="url(#paint0_linear_27156_754)"/>
<path d="M21.517 24.3516C21.3007 24.351 21.0865 24.3933 20.8867 24.476C20.6868 24.5588 20.5054 24.6804 20.3529 24.8338C20.0419 25.1448 19.8706 25.5582 19.8706 25.998C19.8706 26.4378 20.0418 26.8512 20.3528 27.1622H20.3529C20.6639 27.4732 21.0773 27.6444 21.517 27.6444C21.9568 27.6444 22.3703 27.4732 22.6811 27.1622L23.8455 25.998L22.6813 24.8338C22.5288 24.6804 22.3473 24.5588 22.1475 24.4761C21.9476 24.3933 21.7333 24.351 21.517 24.3516ZM29.3186 27.1622C29.6295 27.4732 30.043 27.6444 30.4828 27.6444C30.9225 27.6444 31.336 27.4732 31.6469 27.1622C31.9579 26.8512 32.1291 26.4379 32.1291 25.9981C32.1291 25.5583 31.9579 25.1449 31.6469 24.8339C31.3359 24.5229 30.9224 24.3517 30.4827 24.3517C30.0429 24.3517 29.6294 24.5229 29.3186 24.8339L28.1543 25.998L29.3186 27.1622Z" fill="url(#paint1_linear_27156_754)"/>
<path d="M26.0967 13.4922C19.3428 13.4922 13.8481 18.988 13.8481 25.7435C13.8481 32.4989 19.3428 37.9948 26.0967 37.9948C32.8506 37.9948 38.3452 32.4989 38.3452 25.7435C38.3452 18.988 32.8506 13.4922 26.0967 13.4922ZM27.1643 22.6811C28.0507 21.7945 29.2294 21.3064 30.483 21.3064C31.7366 21.3064 32.9152 21.7946 33.8016 22.6811C34.6881 23.5675 35.1763 24.746 35.1763 25.9997C35.1763 27.2533 34.6881 28.4319 33.8016 29.3184C32.9152 30.2049 31.7366 30.693 30.483 30.693C29.2294 30.693 28.0507 30.2048 27.1643 29.3184L26.0001 28.1542L24.8359 29.3184C23.9494 30.2049 22.7708 30.693 21.5172 30.693C20.2636 30.693 19.085 30.2048 18.1986 29.3184C17.3121 28.4319 16.8239 27.2534 16.8239 25.9997C16.8239 24.7461 17.3121 23.5675 18.1986 22.6811C19.085 21.7945 20.2636 21.3064 21.5172 21.3064C22.7708 21.3064 23.9494 21.7946 24.8359 22.6811L26.0001 23.8453L27.1643 22.6811Z" fill="url(#paint2_linear_27156_754)"/>
<defs>
<linearGradient id="paint0_linear_27156_754" x1="-0.00794911" y1="-0.0846374" x2="52.4407" y2="0.355601" gradientUnits="userSpaceOnUse">
<stop stop-color="#23BFF8"/>
<stop offset="1" stop-color="#8F47CF"/>
</linearGradient>
<linearGradient id="paint1_linear_27156_754" x1="19.8687" y1="24.3462" x2="32.2218" y2="24.7322" gradientUnits="userSpaceOnUse">
<stop stop-color="#23BFF8"/>
<stop offset="1" stop-color="#8F47CF"/>
</linearGradient>
<linearGradient id="paint2_linear_27156_754" x1="13.8444" y1="13.4523" x2="38.5529" y2="13.6597" gradientUnits="userSpaceOnUse">
<stop stop-color="#23BFF8"/>
<stop offset="1" stop-color="#8F47CF"/>
</linearGradient>
</defs>
</svg>
