<svg width="73" height="64" viewBox="0 0 73 64" fill="none" xmlns="http://www.w3.org/2000/svg">
<path d="M70.4688 0.0237687C70.4812 0.0284562 70.4953 0.0284564 70.5094 0.0331439L70.4688 0.0237687ZM55.3078 22.5472L59.0187 24.9206C64.0188 21.9003 67.7922 16.4925 69.2594 10.916L61.4031 6.38002C57.0891 10.0831 53.9406 15.6503 53.3203 21.2753L55.3078 22.5472ZM60.5172 26.5597C60.6672 27.1316 60.5875 27.7597 60.2469 28.2956L58.9672 30.2972C58.3297 31.2941 57.0312 31.5988 56.0172 31.0066C54.5734 33.7347 51.9031 35.3956 48.7844 36.0831C48.1953 36.2113 47.6109 35.8394 47.4828 35.2503C46.7969 32.1316 47.1859 29.0097 49.0547 26.5566C48.589 26.2356 48.2662 25.7461 48.1546 25.1916C48.0429 24.6371 48.1511 24.061 48.4563 23.5847L49.7359 21.5831C50.0812 21.0472 50.6172 20.7066 51.1969 20.605C51.3203 19.666 51.5063 18.7269 51.75 17.8019L46.5672 19.4941C45.6016 19.8081 44.7641 18.7316 45.3141 17.8738L48.6 12.7316H29.9953C30.3672 13.1253 30.5984 13.6613 30.5984 14.2456V16.3488C30.5984 17.5706 29.6016 18.5628 28.3844 18.5628V18.5581H27.5656V18.5628L27.5438 18.58C27.2469 19.6644 26.8391 20.6566 26.2766 21.6316C26.2063 21.7519 27.5031 22.4113 27.5031 23.8019H27.5078C27.5078 24.3691 27.2953 24.9363 26.8609 25.3691L25.3734 26.8566C24.5094 27.7206 23.1063 27.7206 22.2469 26.8566L21.6531 26.2628C21.6484 26.2628 21.6438 26.2675 21.6359 26.2722C20.6609 26.8347 19.6688 27.2425 18.5844 27.5394C18.4516 27.5753 18.9125 29.1035 17.8313 30.0238C17.4269 30.3891 16.9012 30.5912 16.3563 30.591H15.0891V41.9519H67.0656V28.7081L65.6797 30.8785C65.1312 31.7378 63.8063 31.4363 63.6781 30.4316L62.9516 24.78C62.1734 25.4253 61.3625 26.0238 60.5172 26.5597ZM51.5828 22.755L50.2938 24.7613L57.1281 29.1191L58.4078 27.1175L51.5828 22.755ZM62.3766 13.5769C62.3302 13.5522 62.2858 13.5239 62.2438 13.4925C61.4547 12.9706 60.1484 13.2581 59.6531 14.0597C59.3438 14.5597 59.2234 15.0206 59.3516 15.6003C59.5812 16.6628 60.6188 17.3238 61.6766 17.0878C63.3516 16.7222 63.7547 14.5394 62.3766 13.5769ZM63.4891 11.7003C66.6109 13.7019 65.6984 18.4456 62.1469 19.2253C59.9234 19.7175 57.7047 18.2956 57.2125 16.0722C56.725 13.8535 58.1469 11.63 60.3656 11.1425C61.3844 10.916 62.5359 11.08 63.4891 11.7003ZM71.2844 0.790956C72.0953 3.22221 72.2547 5.81439 71.9578 8.35189C71.7453 10.1769 71.2937 12.0238 70.625 13.8222L72.4453 19.5628C72.5469 19.8816 72.4938 20.2144 72.325 20.4753L69.2516 25.2847V47.355C69.2344 49.1847 67.7672 50.7472 65.925 50.7472H50.3516L52.3359 56.1019H54.2766C55.2281 56.1019 56.0172 56.891 56.0172 57.8425V62.241C56.0172 62.7144 55.8172 63.1535 55.5031 63.4675L55.5078 63.4722C55.1891 63.7863 54.7547 63.9816 54.2766 63.9816H27.8734C26.9172 63.9816 26.1328 63.2019 26.1328 62.241V57.8425C26.1328 56.8863 26.9219 56.1019 27.8734 56.1019H29.8141L31.7984 50.7472H16.225C14.3688 50.7472 12.8984 49.1706 12.8984 47.3097V30.13C12.8234 30.0722 12.7516 30.0097 12.6859 29.9394L12.6813 29.9441C11.6984 28.9613 12.15 27.5738 12.0172 27.5394L10.45 27.0035C9.94063 26.7956 9.44532 26.5472 8.96563 26.2722C8.84532 26.2019 8.17657 27.5035 6.79063 27.5035C6.22344 27.5035 5.65625 27.2863 5.22657 26.8566L3.73438 25.3691C2.875 24.505 2.875 23.1019 3.73438 22.2378L4.32813 21.6488C4.32813 21.6441 4.32813 21.6394 4.32344 21.6316C4.04646 21.1521 3.80064 20.6552 3.5875 20.1441V20.1488C3.37576 19.6388 3.19828 19.1152 3.05625 18.5816C3.01563 18.4441 1.62969 18.8956 0.646878 17.9128C0.44138 17.7076 0.278451 17.4637 0.167442 17.1953C0.0564326 16.9269 -0.000469227 16.6392 2.91423e-06 16.3488V14.2425C2.91423e-06 13.0206 0.99219 12.0285 2.20938 12.0285H3.05157L3.05625 12.0113C3.35313 10.93 3.76094 9.93471 4.32344 8.95971L4.31875 8.92846H4.31407C3.6625 8.28158 3.0875 7.82533 3.0875 6.78939H3.09219C3.09219 6.22689 3.30938 5.64721 3.73907 5.22533L3.73438 5.22064L5.22657 3.73314C6.08594 2.86908 7.49063 2.86908 8.35313 3.73314L8.94219 4.32689C8.94688 4.32689 8.95157 4.32689 8.95938 4.31752C9.94219 3.75033 10.9266 3.35189 12.0156 3.05502L12.0328 3.02846H12.0375V2.20971H12.0328C12.0328 0.990956 13.025 0.000331574 14.2422 0.000331574H16.35C17.5688 0.000331574 18.5609 0.997206 18.5609 2.20971V3.05189C19.6859 3.36596 20.6156 3.73471 21.6297 4.31908C21.75 4.38939 22.4094 3.09252 23.8047 3.09252V3.08783C24.3719 3.08783 24.9344 3.30502 25.3688 3.73471L26.8563 5.22221C27.7203 6.08627 27.7203 7.48939 26.8563 8.35346L26.2625 8.94252C26.2625 8.94721 26.2672 8.95189 26.2719 8.95971C26.5813 9.49564 26.8125 9.97377 27.0422 10.541H49.9984L51.9469 7.48939C52.0323 7.3487 52.1483 7.22902 52.2862 7.13923C52.4242 7.04943 52.5805 6.99181 52.7438 6.97064L58.3375 6.26127C59.6578 4.90658 61.1094 3.71439 62.6422 2.74408C64.9016 1.31752 67.4828 0.272207 70.1141 0.00658172C70.65 -0.0512308 71.1328 0.276894 71.2844 0.790956ZM69.9109 5.53939C69.8797 4.44564 69.7344 3.35971 69.4594 2.30658C67.2578 2.70502 65.1406 3.67064 63.2719 4.94564L69.7203 8.66596C69.875 7.61127 69.9422 6.56127 69.9109 5.53939ZM69.2906 16.816C68.1344 19.0347 66.6516 21.1253 64.9062 22.9456L65.4563 27.1847L70.2172 19.7347L69.2906 16.816ZM52.5844 15.2347C53.4797 12.905 54.7234 10.6988 56.2203 8.72846L53.5281 9.06908L48.7984 16.4706L52.5844 15.2347ZM50.9016 27.7331C49.5688 29.3988 49.1656 31.4847 49.4266 33.6456C51.5 32.9722 53.2219 31.7316 54.1703 29.8285L50.9016 27.7331ZM30.1156 28.1488C30.6297 27.8347 31.3031 27.9941 31.6172 28.5113C31.9313 29.0253 31.7672 29.6941 31.2547 30.0081L27.8969 32.0503L31.2547 34.0972C31.7688 34.4066 31.9328 35.08 31.6172 35.5941C31.3031 36.1081 30.6297 36.2722 30.1156 35.9566L25.2484 32.9941C24.5266 32.5644 24.5359 31.5456 25.2313 31.1206L30.1156 28.1488ZM34.1016 26.5644C34.2125 25.9706 34.7875 25.5816 35.3766 25.6956C35.9703 25.8066 36.3594 26.3816 36.2453 26.9706L34.1688 37.8441C34.0578 38.4378 33.4859 38.8222 32.8937 38.7128C32.3 38.5972 31.9109 38.0269 32.025 37.4378L34.1016 26.5644ZM37.3484 30.0097C36.8344 29.6956 36.6703 29.0269 36.9859 28.5128C37.3 27.9941 37.9734 27.8347 38.4875 28.1503L43.3734 31.1222C44.0687 31.5472 44.0781 32.566 43.3563 32.9956L38.4891 35.9581C37.975 36.2722 37.3016 36.1081 36.9875 35.5956C36.6734 35.0816 36.8375 34.4081 37.35 34.0988L40.7078 32.0519L37.3484 30.0097ZM15.3172 6.94252C19.9109 6.94252 23.6344 10.6675 23.6344 15.2597C23.6344 19.8519 19.9094 23.5769 15.3172 23.5769C10.725 23.5769 7 19.8519 7 15.2597C7 10.6675 10.725 6.94252 15.3172 6.94252ZM19.6531 10.9238C17.2563 8.53158 13.3766 8.53158 10.9813 10.9238C8.58907 13.3206 8.58907 17.2003 10.9813 19.591C13.3781 21.9878 17.2578 21.9878 19.6531 19.591C22.0453 17.2003 22.0453 13.3206 19.6531 10.9238ZM16.3531 2.18627L14.2266 2.19096C14.2219 2.19564 14.2172 2.20346 14.2172 2.20814H14.2125L14.2172 3.02689C14.2172 4.03158 13.5484 4.90033 12.5781 5.16127C11.6828 5.40033 10.8469 5.74564 10.0531 6.20658C9.63196 6.45168 9.14144 6.55027 8.65829 6.48695C8.17513 6.42362 7.72659 6.20194 7.38281 5.85658L6.78907 5.27221L5.28282 6.76908L5.27813 6.76439C5.27344 6.77377 5.26875 6.77689 5.26875 6.78627H5.27344L5.85782 7.38002V7.38471C6.56719 8.09721 6.7125 9.17846 6.20782 10.0503C5.74219 10.8519 5.40625 11.6706 5.1625 12.5753C4.90625 13.5456 4.03282 14.2144 3.02813 14.2144L2.19532 14.2238V16.3628C2.28438 16.4566 3.4625 16.1285 4.375 16.8285C4.76134 17.1248 5.03878 17.5407 5.16407 18.0113C5.28438 18.4581 5.42969 18.8925 5.60313 19.3097L6.20938 20.5363C6.45458 20.9574 6.55324 21.4479 6.48991 21.9311C6.42658 22.4143 6.20483 22.8629 5.85938 23.2066L5.275 23.805L6.78907 25.316C6.92188 25.316 7.51563 24.2535 8.6625 24.1019C9.13125 24.0394 9.61875 24.1285 10.0531 24.3816C10.4469 24.6081 10.8547 24.8113 11.2844 24.9878C11.6922 25.1613 12.1266 25.3066 12.5781 25.4269C13.5484 25.6878 14.2172 26.5566 14.2172 27.5613L14.2266 28.3988H16.3656C16.4594 28.305 16.1313 27.1269 16.8313 26.216C17.4828 25.366 18.2656 25.4503 19.2578 25.0113C19.7672 24.7847 20.0547 24.6613 20.5375 24.3816C20.9589 24.1374 21.4492 24.0393 21.9322 24.1026C22.4151 24.1659 22.8636 24.387 23.2078 24.7316L23.8063 25.316L25.3203 23.8019C25.3203 23.6816 24.2531 23.0753 24.1016 21.9285C23.9641 20.8738 24.575 20.3785 24.9703 19.3644C25.1656 18.855 25.2797 18.5628 25.4266 18.0128C25.6875 17.0425 26.5563 16.3738 27.5609 16.3738V16.3785H28.3797V16.3738L28.4063 16.3472L28.3969 14.2253V14.2206C28.3078 14.1363 27.125 14.4597 26.2172 13.7597C25.3797 13.1175 25.4328 12.2941 25.0078 11.3331L24.3828 10.0535C24.1368 9.63289 24.0372 9.14259 24.0997 8.65936C24.1622 8.17613 24.3832 7.72728 24.7281 7.38314L25.3125 6.78939L23.8016 5.27533V5.27064C23.6781 5.27064 23.075 6.33783 21.9281 6.48939C21.4594 6.55189 20.9672 6.46283 20.5328 6.20971C19.7484 5.75346 18.8984 5.40346 18.0125 5.16439C17.0422 4.90346 16.3688 4.03471 16.3688 3.03002L16.3594 2.19252C16.3625 2.18627 16.3578 2.18627 16.3531 2.18627ZM53.8281 58.2894H28.3219V61.7925H53.8297V58.2894H53.8281ZM67.0625 44.1347H15.0875V47.3456C15.0969 48.0019 15.6594 48.5644 16.3359 48.5644H65.8141C66.5 48.5644 67.0625 47.9972 67.0625 47.3113V44.1347ZM48.0172 50.7472H34.1313L32.1438 56.1019H50.0063L48.0172 50.7472Z" fill="#6647F7"/>
</svg>
