<svg width="49" height="49" viewBox="0 0 49 49" fill="none" xmlns="http://www.w3.org/2000/svg">
<path fill-rule="evenodd" clip-rule="evenodd" d="M48.7497 24.5982V26.5265C48.7497 26.8693 48.549 27.1617 48.2291 27.2848L44.7105 28.6391C44.1979 30.7909 43.3454 32.8472 42.1852 34.7305L43.7167 38.179C43.8558 38.4923 43.7911 38.8409 43.5487 39.0833L39.6724 42.9595C39.43 43.2019 39.0815 43.2667 38.7681 43.1275L35.321 41.5964C33.4372 42.757 31.3804 43.6096 29.228 44.1222L27.874 47.6399C27.7508 47.9599 27.4585 48.1605 27.1158 48.1605H21.634C21.2913 48.1605 20.9989 47.9598 20.8758 47.6399L19.5215 44.1216C17.3695 43.6091 15.3131 42.7565 13.4297 41.5961L9.98166 43.1275C9.66834 43.2666 9.31978 43.2019 9.07735 42.9595L5.20112 39.0833C4.95869 38.8409 4.89389 38.4923 5.03303 38.179L6.56459 34.7306C5.40432 32.8473 4.55183 30.791 4.03924 28.6392L0.520609 27.2848C0.200687 27.1616 0 26.8693 0 26.5265V24.5981C0 24.1506 0.365016 23.7856 0.8125 23.7857H9.38895C9.38895 32.0623 16.0985 38.7717 24.375 38.7717C32.6515 38.7717 39.361 32.0623 39.3611 23.7857H47.9373C48.3848 23.7857 48.7498 24.1507 48.7497 24.5982ZM42.5975 11.1872C42.9125 10.456 43.6396 9.94398 44.4864 9.94398C45.6218 9.94398 46.5421 10.8643 46.5421 11.9997C46.5421 13.1351 45.6218 14.0554 44.4864 14.0554C43.6397 14.0554 42.9126 13.5435 42.5975 12.8122H36.8671V15.5067C36.3855 14.7811 35.8418 14.0987 35.2421 13.4672V11.9997C35.2421 11.7842 35.3277 11.5776 35.4801 11.4252C35.6324 11.2728 35.8391 11.1872 36.0546 11.1872H42.5975ZM8.30131 5.90586C8.30131 4.77049 9.22167 3.85013 10.357 3.85013C11.2038 3.85013 11.9309 4.36211 12.2458 5.09336H18.7889C19.0043 5.09336 19.211 5.17896 19.3634 5.33133C19.5158 5.48371 19.6014 5.69037 19.6014 5.90586V9.57633C19.0473 9.76263 18.5047 9.98137 17.9764 10.2314V6.71836H12.2459C11.931 7.44961 11.2039 7.96159 10.3571 7.96159C9.22167 7.96169 8.30131 7.04123 8.30131 5.90586ZM40.4483 5.90586C40.4483 4.77049 39.5279 3.85013 38.3926 3.85013C37.5458 3.85013 36.8187 4.36211 36.5037 5.09336H29.9607C29.7452 5.09336 29.5386 5.17896 29.3862 5.33133C29.2338 5.48371 29.1482 5.69037 29.1482 5.90586V9.57643C29.7023 9.76269 30.2449 9.98142 30.7732 10.2315V6.71836H36.5037C36.8186 7.44961 37.5457 7.96159 38.3926 7.96159C39.5279 7.96169 40.4483 7.04123 40.4483 5.90586ZM26.4305 2.05573C26.4305 0.920359 25.5102 0 24.3748 0C23.2394 0 22.3191 0.920359 22.3191 2.05573C22.3191 2.90245 22.831 3.62954 23.5623 3.94448V8.82182C23.8313 8.8074 24.1021 8.79968 24.3748 8.79968C24.6474 8.79968 24.9183 8.8074 25.1873 8.82182V3.94448C25.9185 3.62954 26.4305 2.90245 26.4305 2.05573ZM24.3748 10.4247C16.9957 10.4247 11.0137 16.4066 11.0137 23.7857C11.0137 31.1649 16.9957 37.1468 24.3748 37.1468C31.7539 37.1468 37.7358 31.1649 37.7358 23.7857C37.7358 16.4066 31.7539 10.4247 24.3748 10.4247ZM20.0842 27.6338C20.2458 27.7726 20.3461 27.9696 20.3633 28.1819C20.3805 28.3943 20.3133 28.6048 20.1762 28.7679C20.0391 28.9309 19.8432 29.0333 19.631 29.0527C19.4189 29.0721 19.2076 29.0071 19.0432 28.8717L13.7424 24.4048C13.6514 24.3282 13.5785 24.2326 13.5286 24.1247C13.4788 24.0167 13.4534 23.8991 13.4543 23.7803C13.4551 23.6614 13.4821 23.5442 13.5334 23.4369C13.5846 23.3297 13.6589 23.2351 13.751 23.1598L19.0432 18.7001C19.2076 18.5647 19.4189 18.4996 19.631 18.5191C19.8432 18.5385 20.0391 18.6409 20.1762 18.8039C20.3133 18.9669 20.3805 19.1775 20.3633 19.3898C20.3461 19.6022 20.2458 19.7991 20.0842 19.9379L15.5178 23.7859L20.0842 27.6338ZM26.7853 17.9247L23.532 30.0658C23.4753 30.2723 23.3391 30.448 23.1533 30.5546C22.9675 30.6612 22.747 30.69 22.5401 30.6347C22.3331 30.5794 22.1564 30.4445 22.0485 30.2594C21.9406 30.0744 21.9103 29.8542 21.9641 29.6468L25.2174 17.5057C25.2729 17.2978 25.4088 17.1205 25.5951 17.0128C25.7814 16.9051 26.0028 16.8757 26.2107 16.9313C26.3137 16.9588 26.4102 17.0063 26.4948 17.0711C26.5794 17.1359 26.6505 17.2167 26.7038 17.3089C26.7572 17.4012 26.7918 17.5031 26.8058 17.6087C26.8198 17.7143 26.8128 17.8217 26.7853 17.9247ZM35.0072 24.4047L29.7063 28.8716C29.5416 29.0048 29.3312 29.0682 29.1203 29.0479C28.9094 29.0277 28.7149 28.9255 28.5785 28.7634C28.4422 28.6012 28.3749 28.3921 28.3911 28.1808C28.4073 27.9696 28.5058 27.7731 28.6653 27.6337L33.2317 23.7857L28.6653 19.9377C28.5037 19.7989 28.4034 19.602 28.3862 19.3896C28.369 19.1773 28.4362 18.9667 28.5733 18.8037C28.7104 18.6407 28.9063 18.5383 29.1185 18.5189C29.3306 18.4994 29.5419 18.5645 29.7063 18.6999L34.9986 23.1596C35.0907 23.2349 35.165 23.3295 35.2162 23.4368C35.2675 23.544 35.2945 23.6612 35.2953 23.7801C35.2962 23.899 35.2708 24.0166 35.2209 24.1245C35.1711 24.2325 35.0981 24.3281 35.0072 24.4047ZM2.20756 11.9997C2.20756 13.1351 3.12792 14.0554 4.26329 14.0554C5.11002 14.0554 5.8371 13.5435 6.15205 12.8122H11.8825V15.5066C12.3641 14.781 12.9079 14.0986 13.5075 13.4671V11.9997C13.5075 11.7842 13.4219 11.5776 13.2695 11.4252C13.1172 11.2728 12.9105 11.1872 12.695 11.1872H6.15205C5.8371 10.456 5.11002 9.94398 4.26329 9.94398C3.12792 9.94398 2.20756 10.8643 2.20756 11.9997Z" fill="url(#paint0_linear_27156_760)"/>
<defs>
<linearGradient id="paint0_linear_27156_760" x1="-0.00745224" y1="-0.0783881" x2="49.1628" y2="0.339381" gradientUnits="userSpaceOnUse">
<stop stop-color="#23BFF8"/>
<stop offset="1" stop-color="#8F47CF"/>
</linearGradient>
</defs>
</svg>
