<svg width="24" height="49" viewBox="0 0 24 49" fill="none" xmlns="http://www.w3.org/2000/svg">
<path d="M2.34812 10.8631V19.2725C2.34812 23.9525 6.09375 27.7712 10.7412 27.9094V34.7669C7.25562 35.1731 4.53375 38.1388 4.53375 41.73C4.53375 45.5975 7.67812 48.75 11.5537 48.75C15.4294 48.75 18.5737 45.6056 18.5737 41.73C18.5737 38.1388 15.86 35.165 12.3662 34.7669V32.7519H12.935C16.7862 32.7519 19.9469 29.77 20.2475 25.9919C21.3363 25.4881 22.1 24.3994 22.1 23.1237C22.1 21.385 20.6862 19.9631 18.9394 19.9631C17.1925 19.9631 15.7788 21.3769 15.7788 23.1237C15.7788 24.7487 17.0138 26.0731 18.5819 26.2437C18.1756 28.9981 15.8031 31.1187 12.935 31.1187H12.3662V19.76C12.847 19.6333 13.2908 19.394 13.6609 19.062C14.031 18.7301 14.3169 18.3148 14.495 17.8506H15.2669C18.6225 17.8506 21.3444 15.1206 21.3444 11.7731V10.0344C22.6931 9.67688 23.6925 8.45 23.6925 6.99562C23.6925 5.25687 22.2787 3.835 20.5319 3.835C18.785 3.835 17.3713 5.24875 17.3713 6.99562C17.3713 8.45813 18.3706 9.67688 19.7194 10.0344V11.7731C19.7194 14.2269 17.7206 16.2256 15.2669 16.2256H14.6656C14.5699 15.6246 14.3016 15.0643 13.8934 14.6128C13.4852 14.1613 12.9547 13.8381 12.3662 13.6825V6.19938C13.715 5.84188 14.7144 4.615 14.7144 3.16062C14.7144 1.42187 13.3006 0 11.5537 0C9.80687 0 8.39312 1.41375 8.39312 3.16062C8.39312 4.62313 9.3925 5.84188 10.7412 6.19938V13.6906C9.3925 14.0481 8.39312 15.275 8.39312 16.7294C8.39312 18.1838 9.3925 19.4106 10.7412 19.7681V26.2844C6.9875 26.1462 3.97312 23.0588 3.97312 19.2725V10.8631C5.32187 10.5056 6.32125 9.27875 6.32125 7.82438C6.32125 6.08563 4.9075 4.66375 3.16062 4.66375C1.41375 4.66375 0 6.0775 0 7.82438C0 9.28687 0.999375 10.5056 2.34812 10.8631ZM17.4037 23.1237C17.4037 22.2787 18.0944 21.5881 18.9394 21.5881C19.7844 21.5881 20.475 22.2787 20.475 23.1237C20.475 23.9688 19.7844 24.6594 18.9394 24.6594C18.0944 24.6594 17.4037 23.9688 17.4037 23.1237ZM19.0044 6.99562C19.0044 6.15062 19.695 5.46 20.54 5.46C21.385 5.46 22.0756 6.15062 22.0756 6.99562C22.0756 7.84062 21.385 8.53125 20.54 8.53125C19.695 8.53125 19.0044 7.84062 19.0044 6.99562ZM3.16875 6.28875C4.01375 6.28875 4.70437 6.97937 4.70437 7.82438C4.70437 8.66938 4.01375 9.36 3.16875 9.36C2.32375 9.36 1.63313 8.66938 1.63313 7.82438C1.63313 6.97937 2.32375 6.28875 3.16875 6.28875Z" fill="url(#paint0_linear_27156_750)"/>
<defs>
<linearGradient id="paint0_linear_27156_750" x1="-0.00362181" y1="-0.0793476" x2="23.8946" y2="0.0181412" gradientUnits="userSpaceOnUse">
<stop stop-color="#23BFF8"/>
<stop offset="1" stop-color="#8F47CF"/>
</linearGradient>
</defs>
</svg>
