<svg width="52" height="52" viewBox="0 0 52 52" fill="none" xmlns="http://www.w3.org/2000/svg">
<path d="M43.6223 3.75781H8.37781C5.34447 3.75781 2.88892 6.21337 2.88892 9.2467V13.0023H49.1111V9.2467C49.1111 6.21337 46.6556 3.75781 43.6223 3.75781ZM34.2334 10.6911C33.6556 10.6911 33.0778 10.2578 33.0778 9.53559C33.0778 8.95781 33.5111 8.38004 34.0889 8.38004C34.6667 8.38004 35.2445 8.81337 35.2445 9.53559C35.3889 10.2578 34.8111 10.6911 34.2334 10.6911ZM39 10.6911C38.4223 10.6911 37.8445 10.2578 37.8445 9.53559C37.8445 8.95781 38.2778 8.38004 38.8556 8.38004C39.4334 8.38004 40.0111 8.81337 40.0111 9.53559C40.0111 10.2578 39.5778 10.6911 39 10.6911ZM43.6223 10.6911C43.0445 10.6911 42.4667 10.2578 42.4667 9.53559C42.4667 8.95781 42.9 8.38004 43.4778 8.38004C44.0556 8.38004 44.6334 8.81337 44.6334 9.53559C44.6334 10.2578 44.2 10.6911 43.6223 10.6911ZM2.88892 42.7578C2.88892 45.7911 5.34447 48.2467 8.37781 48.2467H43.7667C46.8 48.2467 49.2556 45.7911 49.2556 42.7578V15.1689H2.88892V42.7578ZM14.4445 29.4689C14.4445 28.7467 15.0223 28.1689 15.6 28.1689L17.4778 28.0245C17.6223 27.3023 17.9111 26.7245 18.3445 26.1467L17.1889 24.5578C16.7556 23.98 16.9 23.2578 17.3334 22.8245L18.6334 21.5245C19.0667 21.0911 19.9334 20.9467 20.3667 21.5245L21.8111 22.8245C22.3889 22.5356 22.9667 22.2467 23.6889 22.1023L23.9778 20.2245C24.1223 19.5023 24.7 19.0689 25.2778 19.0689H27.1556C27.8778 19.0689 28.4556 19.6467 28.4556 20.2245L28.6 22.1023C29.3223 22.2467 29.9 22.5356 30.6223 22.9689L32.0667 21.9578C32.6445 21.5245 33.3667 21.6689 33.8 22.1023L35.1 23.4023C35.5334 23.8356 35.6778 24.7023 35.1 25.1356L34.0889 26.4356C34.5223 27.1578 34.8111 27.7356 34.9556 28.6023L36.5445 28.8911C37.1222 29.0356 37.7 29.6134 37.7 30.1911V31.78C37.7 32.5023 37.1222 33.08 36.5445 33.08L35.1 33.2245C34.8111 34.0911 34.5223 34.8134 34.0889 35.5356L34.9556 36.6911C35.3889 37.2689 35.2445 37.9911 34.8111 38.4245L33.5111 39.7245C33.0778 40.1578 32.2111 40.3023 31.7778 39.7245L30.6223 38.8578C29.9 39.2911 29.1778 39.58 28.3111 39.7245L28.1667 41.1689C28.0223 41.8911 27.4445 42.3245 26.8667 42.3245H24.9889C24.2667 42.3245 23.6889 41.7467 23.6889 41.1689L23.5445 39.58C22.8223 39.2911 22.1 39.0023 21.3778 38.5689L20.0778 39.58C19.5 40.0134 18.7778 39.8689 18.3445 39.4356L17.0445 38.1356C16.6111 37.7023 16.4667 36.8356 16.9 36.4023L18.0556 35.1023C17.7667 34.5245 17.4778 33.8023 17.3334 33.08L15.6 32.7911C14.8778 32.6467 14.4445 32.0689 14.4445 31.4911V29.4689Z" fill="url(#paint0_linear_27156_704)"/>
<path d="M25.9999 34.6708C28.311 34.6708 30.0444 32.7931 30.0444 30.4819C30.0444 28.1708 28.1666 26.4375 25.9999 26.4375C23.8333 26.4375 21.811 28.3153 21.811 30.4819C21.811 32.9375 23.6888 34.6708 25.9999 34.6708Z" fill="url(#paint1_linear_27156_704)"/>
<defs>
<linearGradient id="paint0_linear_27156_704" x1="2.88183" y1="3.6854" x2="49.6483" y2="4.09451" gradientUnits="userSpaceOnUse">
<stop stop-color="#23BFF8"/>
<stop offset="1" stop-color="#8F47CF"/>
</linearGradient>
<linearGradient id="paint1_linear_27156_704" x1="21.8098" y1="26.4241" x2="30.1142" y2="26.4938" gradientUnits="userSpaceOnUse">
<stop stop-color="#23BFF8"/>
<stop offset="1" stop-color="#8F47CF"/>
</linearGradient>
</defs>
</svg>
