<svg width="1129" height="182" viewBox="0 0 1129 182" fill="none" xmlns="http://www.w3.org/2000/svg">
<path d="M5 177.68L0 175.293V181.066L5 178.68V177.68ZM1128.85 4.03324C1129.05 3.83798 1129.05 3.5214 1128.85 3.32613L1125.67 0.144154C1125.48 -0.0511086 1125.16 -0.0511086 1124.96 0.144154C1124.77 0.339416 1124.77 0.655998 1124.96 0.85126L1127.79 3.67969L1124.96 6.50811C1124.77 6.70338 1124.77 7.01996 1124.96 7.21522C1125.16 7.41048 1125.48 7.41048 1125.67 7.21522L1128.85 4.03324ZM4.5 178.18V178.68H97V178.18V177.68H4.5V178.18ZM148 127.18V127.68H961.5V127.18V126.68H148V127.18ZM1025.5 63.1797V63.6797H1059.75V63.1797V62.6797H1025.5V63.1797ZM1119.25 3.67969V4.17969H1128.5V3.67969V3.17969H1119.25V3.67969ZM1089.5 33.4297H1090C1090 17.2754 1103.1 4.17969 1119.25 4.17969V3.67969V3.17969C1102.54 3.17969 1089 16.7231 1089 33.4297H1089.5ZM1059.75 63.1797V63.6797C1076.46 63.6797 1090 50.1363 1090 33.4297H1089.5H1089C1089 49.584 1075.9 62.6797 1059.75 62.6797V63.1797ZM993.5 95.1797H994C994 77.7827 1008.1 63.6797 1025.5 63.6797V63.1797V62.6797C1007.55 62.6797 993 77.2304 993 95.1797H993.5ZM961.5 127.18V127.68C979.449 127.68 994 113.129 994 95.1797H993.5H993C993 112.577 978.897 126.68 961.5 126.68V127.18ZM122.5 152.68H123C123 138.873 134.193 127.68 148 127.68V127.18V126.68C133.641 126.68 122 138.32 122 152.68H122.5ZM97 178.18V178.68C111.359 178.68 123 167.039 123 152.68H122.5H122C122 166.487 110.807 177.68 97 177.68V178.18Z" fill="url(#paint0_linear_26204_2203)"/>
<defs>
<linearGradient id="paint0_linear_26204_2203" x1="-120" y1="40.9297" x2="1219.5" y2="40.9297" gradientUnits="userSpaceOnUse">
<stop stop-color="white" stop-opacity="0.5"/>
<stop offset="0.355159" stop-color="white" stop-opacity="0"/>
<stop offset="0.708034" stop-color="white" stop-opacity="0"/>
<stop offset="1" stop-color="white" stop-opacity="0.5"/>
</linearGradient>
</defs>
</svg>
